<svg width="250" height="250" viewBox="0 0 250 250" fill="none" xmlns="http://www.w3.org/2000/svg">
<path d="M122.495 239.81C184.641 239.81 235.02 210.724 235.02 174.845C235.02 138.966 184.641 109.88 122.495 109.88C60.3491 109.88 9.96997 138.966 9.96997 174.845C9.96997 210.724 60.3491 239.81 122.495 239.81Z" fill="#5CE1E6"/>
<path d="M141.755 210.565C153.182 210.565 162.445 205.217 162.445 198.62C162.445 192.023 153.182 186.675 141.755 186.675C130.328 186.675 121.065 192.023 121.065 198.62C121.065 205.217 130.328 210.565 141.755 210.565Z" fill="#FFDE59"/>
<path d="M195.58 203.49C207.007 203.49 216.27 198.142 216.27 191.545C216.27 184.948 207.007 179.6 195.58 179.6C184.153 179.6 174.89 184.948 174.89 191.545C174.89 198.142 184.153 203.49 195.58 203.49Z" fill="#FFDE59"/>
<path d="M82.41 228.475C93.8367 228.475 103.1 223.127 103.1 216.53C103.1 209.933 93.8367 204.585 82.41 204.585C70.9832 204.585 61.72 209.933 61.72 216.53C61.72 223.127 70.9832 228.475 82.41 228.475Z" fill="#FFDE59"/>
<path d="M48.5001 177.25C48.5001 177.25 47.9601 164.62 42.6651 157.59C37.3701 150.56 30.8801 149.55 27.6651 151.53C25.3151 152.97 25.6301 157.25 29.6951 160.03C33.7601 162.81 41.5951 169.935 42.8201 174.58L48.5001 177.25Z" fill="#37474F"/>
<path d="M45 175.41C44.9142 175.404 44.8344 175.364 44.7774 175.3C44.7204 175.235 44.6909 175.151 44.695 175.065C45.24 163.605 35.195 156.46 32.46 155.175C32.3815 155.138 32.3207 155.072 32.2908 154.99C32.2609 154.909 32.2642 154.819 32.3 154.74C32.3379 154.661 32.4052 154.6 32.4874 154.57C32.5697 154.541 32.6603 154.544 32.74 154.58C35.545 155.91 45.91 163.275 45.35 175.08C45.3448 175.167 45.3057 175.248 45.2412 175.306C45.1766 175.364 45.0917 175.394 45.005 175.39L45 175.41Z" fill="white"/>
<path d="M46 173.26C45.2781 173.25 44.584 172.98 44.045 172.5C43.43 171.825 43.48 170.79 43.195 169.92C42.73 168.49 41.32 167.52 39.85 167.215C38.3595 166.983 36.836 167.085 35.39 167.515C32.44 168.24 29.605 166.425 26.65 166.64C25.5838 166.674 24.5469 166.998 23.65 167.575C23.2077 167.868 22.8452 168.266 22.5956 168.734C22.3459 169.202 22.2168 169.725 22.22 170.255C22.3214 171.133 22.7586 171.938 23.44 172.5C24.1233 173.061 24.8762 173.532 25.68 173.9L28.275 175.225C28.7236 175.424 29.1373 175.694 29.5 176.025C29.8429 176.392 30.1015 176.83 30.2578 177.308C30.4141 177.785 30.4643 178.291 30.405 178.79C30.205 179.79 29.405 180.55 29.15 181.53C28.835 182.815 29.62 184.19 30.75 184.885C31.9237 185.521 33.2635 185.782 34.59 185.635C35.915 185.56 37.225 185.295 38.55 185.27C39.4465 185.206 40.3424 185.402 41.13 185.835C42.0195 186.479 42.6603 187.41 42.945 188.47C43.1168 189.15 43.3898 189.801 43.755 190.4C44.2053 190.969 44.8117 191.395 45.5 191.625C46.8314 192.115 48.2937 192.115 49.625 191.625C50.72 191.205 51.255 189.97 51.665 188.9C52.0747 187.78 52.2698 186.593 52.24 185.4C52.1771 182.335 51.4844 179.316 50.205 176.53C49.59 175.25 48.705 173.97 47.345 173.53C46.9046 173.405 46.4548 173.314 46 173.26Z" fill="#455A64"/>
<path d="M48.8401 187C48.7796 187 48.7206 186.982 48.6713 186.947C48.622 186.912 48.5849 186.862 48.5651 186.805C45.4801 177.96 30.8851 170.265 25.5651 169.38C25.5273 169.374 25.4912 169.36 25.4587 169.34C25.4262 169.32 25.398 169.293 25.3757 169.262C25.3534 169.231 25.3375 169.196 25.3288 169.159C25.3201 169.122 25.3188 169.083 25.3251 169.045C25.3313 169.007 25.3449 168.971 25.3651 168.939C25.3853 168.906 25.4118 168.878 25.4429 168.856C25.474 168.834 25.5092 168.818 25.5464 168.809C25.5837 168.8 25.6223 168.799 25.6601 168.805C31.1001 169.705 45.9851 177.57 49.1601 186.61C49.1734 186.647 49.1794 186.685 49.1775 186.724C49.1757 186.763 49.1661 186.801 49.1493 186.836C49.1325 186.871 49.1089 186.902 49.0798 186.928C49.0508 186.953 49.0168 186.973 48.9801 186.985C48.9351 187.001 48.8873 187.006 48.8401 187Z" fill="white"/>
<path d="M35.72 182.15C35.6642 182.146 35.6109 182.125 35.5665 182.091C35.5222 182.056 35.4888 182.01 35.4703 181.957C35.4517 181.904 35.449 181.847 35.4622 181.792C35.4755 181.738 35.5043 181.689 35.545 181.65C37.9315 179.999 40.7536 179.093 43.655 179.045C43.726 179.054 43.7912 179.089 43.8384 179.143C43.8857 179.197 43.9117 179.266 43.9117 179.338C43.9117 179.409 43.8857 179.478 43.8384 179.532C43.7912 179.586 43.726 179.621 43.655 179.63C40.8798 179.697 38.1831 180.566 35.89 182.13C35.8365 182.153 35.7774 182.16 35.72 182.15Z" fill="white"/>
<path d="M49.0001 193.84C48.6856 193.626 48.4259 193.342 48.2417 193.009C48.0576 192.676 47.9543 192.305 47.9401 191.925V87.73C47.9618 87.3384 48.0755 86.9573 48.2718 86.6177C48.4681 86.2781 48.7415 85.9894 49.0701 85.775L171.65 15C171.976 14.795 172.351 14.6828 172.736 14.6754C173.121 14.6681 173.5 14.7659 173.834 14.9583C174.167 15.1506 174.442 15.4304 174.628 15.7672C174.814 16.1041 174.905 16.4854 174.89 16.87V121.07C174.868 121.462 174.755 121.843 174.558 122.182C174.362 122.522 174.089 122.811 173.76 123.025L51.1801 193.8C50.845 193.976 50.4734 194.072 50.0948 194.079C49.7163 194.086 49.3413 194.004 49.0001 193.84Z" fill="#455A64"/>
<path d="M50.9649 193.895H50.9199C50.8858 193.915 50.8487 193.931 50.8099 193.94H50.7249C50.6748 193.957 50.6228 193.969 50.5699 193.975C50.5364 193.989 50.501 193.997 50.4649 194L50.2949 194.025C49.8488 194.085 49.3948 194.007 48.9949 193.8C48.681 193.587 48.4217 193.303 48.2384 192.971C48.055 192.64 47.9528 192.269 47.9399 191.89V101.085L50.0599 102.31V193.145C50.0599 193.645 50.3149 193.955 50.6849 193.955C50.7347 193.963 50.7852 193.963 50.8349 193.955C50.8811 193.942 50.9249 193.921 50.9649 193.895Z" fill="#5CE1E6"/>
<path opacity="0.81" d="M50.9649 193.895H50.9199C50.8858 193.915 50.8487 193.931 50.8099 193.94H50.7249C50.6748 193.957 50.6228 193.969 50.5699 193.975C50.5364 193.989 50.501 193.997 50.4649 194L50.2949 194.025C49.8488 194.085 49.3948 194.007 48.9949 193.8C48.681 193.587 48.4217 193.303 48.2384 192.971C48.055 192.64 47.9528 192.269 47.9399 191.89V101.085L50.0599 102.31V193.145C50.0599 193.645 50.3149 193.955 50.6849 193.955C50.7347 193.963 50.7852 193.963 50.8349 193.955C50.8811 193.942 50.9249 193.921 50.9649 193.895Z" fill="#E0E0E0"/>
<path d="M50.0549 102.31L47.9349 101.085V121.26L50.0549 122.495V102.31Z" fill="#5CE1E6"/>
<path opacity="0.15" d="M50.0549 102.31L47.9349 101.085V121.26L50.0549 122.495V102.31Z" fill="black"/>
<path d="M50.38 87.84C50.1799 88.1767 50.0681 88.5585 50.055 88.95V102.31L47.935 101.085V87.73C47.9325 87.685 47.9325 87.64 47.935 87.595C47.9447 87.5009 47.9597 87.4074 47.98 87.315C48.0423 87.0704 48.1364 86.8351 48.26 86.615L50.38 87.84Z" fill="#263238"/>
<path d="M174.89 16.8751V22.9051L85.0349 74.7801C84.4149 75.1401 83.9099 74.8451 83.9099 74.1301V71.8451C83.9099 71.1301 83.4099 70.8451 82.7799 71.1951L55.4149 87.0001C55.0864 87.2145 54.8129 87.5032 54.6166 87.8428C54.4203 88.1824 54.3067 88.5635 54.2849 88.9551V91.2351C54.2637 91.6264 54.1509 92.0071 53.9554 92.3467C53.76 92.6863 53.4875 92.9752 53.1599 93.1901L50.0549 95.0001V89.0001C50.0761 88.6089 50.189 88.2281 50.3844 87.8885C50.5798 87.5489 50.8523 87.26 51.1799 87.0451L173.765 16.2251C174.385 15.8651 174.89 16.1551 174.89 16.8751Z" fill="#37474F"/>
<path d="M174.895 121.075C174.872 121.466 174.758 121.846 174.562 122.185C174.366 122.523 174.093 122.811 173.765 123.025L51.1799 193.8C50.5599 194.155 50.0549 193.865 50.0549 193.145V95L53.1599 93.21C53.7799 92.85 54.7899 87.38 55.4149 87.02L82.3199 71.485C82.9449 71.125 84.4149 75.165 85.0349 74.805L174.89 22.905V121.075H174.895Z" fill="#5CE1E6"/>
<path opacity="0.9" d="M174.895 121.075C174.872 121.466 174.758 121.846 174.562 122.185C174.366 122.523 174.093 122.811 173.765 123.025L51.1799 193.8C50.5599 194.155 50.0549 193.865 50.0549 193.145V95L53.1599 93.21C53.7799 92.85 54.7899 87.38 55.4149 87.02L82.3199 71.485C82.9449 71.125 84.4149 75.165 85.0349 74.805L174.89 22.905V121.075H174.895Z" fill="white"/>
<g opacity="0.4">
<path d="M174.39 23.77V121.075C174.366 121.375 174.274 121.666 174.121 121.926C173.969 122.185 173.76 122.407 173.51 122.575L50.9299 193.365C50.8543 193.416 50.7661 193.445 50.6749 193.45C50.5599 193.45 50.5549 193.2 50.5549 193.145V95.265L53.4099 93.615C53.8499 93.36 54.1299 92.485 54.7599 90.235C54.9887 89.2657 55.3033 88.3186 55.6999 87.405L82.3849 72C82.7043 72.4353 82.9917 72.8932 83.2449 73.37C83.9699 74.64 84.3699 75.3 84.9499 75.3C85.0669 75.2997 85.182 75.2705 85.2849 75.215L174.39 23.77ZM174.89 22.905L85.0349 74.78C85.007 74.787 84.9778 74.787 84.9499 74.78C84.3199 74.78 83.0399 71.415 82.4049 71.415C82.3771 71.4078 82.3478 71.4078 82.3199 71.415L55.4149 87C54.7899 87.36 53.7799 92.83 53.1599 93.19L50.0549 95V193.145C50.0549 193.645 50.3099 193.95 50.6749 193.95C50.8515 193.943 51.0235 193.891 51.1749 193.8L173.765 123.025C174.093 122.811 174.366 122.523 174.562 122.185C174.758 121.846 174.872 121.466 174.895 121.075V22.905H174.89Z" fill="#5CE1E6"/>
</g>
<path d="M50.0549 102.31V122.495L174.89 50.43V30.24L50.0549 102.31Z" fill="#5CE1E6"/>
<path d="M174.89 22.905V30.24L50.0549 102.31V95L52.3699 93.66C52.9899 93.3 53.1999 92.75 53.4949 91.705L54.2849 88.975C54.5299 88.025 54.7849 87.38 55.4149 87.02L82.3199 71.485C82.9449 71.125 83.4349 71.085 83.9099 71.87L84.8749 73.62C85.2249 74.235 85.4049 74.595 86.0249 74.235L174.89 22.905Z" fill="#F0F0F0"/>
<path d="M169.6 20.655C170.385 20.205 171.02 20.57 171.02 21.475C170.993 21.9678 170.851 22.4473 170.604 22.8747C170.357 23.3021 170.013 23.6654 169.6 23.935C168.82 24.385 168.185 24.02 168.185 23.115C168.212 22.6228 168.354 22.1439 168.6 21.7166C168.845 21.2894 169.188 20.9257 169.6 20.655Z" fill="#5CE1E6"/>
<path d="M164.5 23.6001C165.28 23.1501 165.915 23.5151 165.915 24.4201C165.888 24.9122 165.746 25.3912 165.5 25.8184C165.254 26.2457 164.912 26.6093 164.5 26.8801C163.715 27.3301 163.08 26.9651 163.08 26.0601C163.107 25.5673 163.249 25.0877 163.496 24.6603C163.743 24.2329 164.087 23.8697 164.5 23.6001Z" fill="#5CE1E6"/>
<path d="M159.385 26.5451C160.165 26.0951 160.805 26.4601 160.805 27.3651C160.777 27.8576 160.634 28.3367 160.387 28.764C160.141 29.1912 159.797 29.5546 159.385 29.8251C158.6 30.2801 157.965 29.9101 157.965 29.0051C157.992 28.5123 158.134 28.0328 158.381 27.6054C158.628 27.178 158.972 26.8147 159.385 26.5451Z" fill="#5CE1E6"/>
<path opacity="0.5" d="M55.2249 95.5001L53.4549 96.5001L54.1299 95.2051C54.1566 95.156 54.1706 95.101 54.1706 95.0451C54.1706 94.9892 54.1566 94.9342 54.1299 94.8851C54.0799 94.8251 53.9899 94.8851 53.9299 94.9801L52.9699 96.8301C52.9678 96.8534 52.9678 96.8768 52.9699 96.9001C52.9677 96.9318 52.9677 96.9635 52.9699 96.9951C52.9669 97.0234 52.9669 97.0519 52.9699 97.0801C52.9675 97.0933 52.9675 97.1069 52.9699 97.1201L53.9299 97.8601C53.9442 97.869 53.9607 97.8737 53.9774 97.8737C53.9942 97.8737 54.0107 97.869 54.0249 97.8601C54.0708 97.8227 54.1068 97.7746 54.1299 97.7201C54.1799 97.6001 54.1749 97.4651 54.1299 97.4201L53.4549 96.9201L55.2249 95.9201C55.2713 95.8842 55.3085 95.8378 55.3337 95.7849C55.3589 95.7319 55.3713 95.6738 55.3699 95.6151C55.3699 95.5001 55.3049 95.4601 55.2249 95.5001Z" fill="#455A64"/>
<path opacity="0.5" d="M56.705 94.6501L58.475 93.6501L57.8 93.1501C57.74 93.1051 57.735 92.9701 57.8 92.8501C57.865 92.7301 57.94 92.6651 58 92.7101L58.96 93.4501C58.9726 93.4593 58.9828 93.4713 58.99 93.4851C58.9952 93.5115 58.9952 93.5387 58.99 93.5651C58.9952 93.5966 58.9952 93.6287 58.99 93.6601C58.99 93.6601 58.99 93.6601 58.99 93.6851C58.9821 93.7093 58.9721 93.7327 58.96 93.7551L58 95.5851C57.9792 95.6299 57.9463 95.668 57.905 95.6951C57.891 95.7089 57.8721 95.7166 57.8525 95.7166C57.8329 95.7166 57.814 95.7089 57.8 95.6951C57.7719 95.6465 57.7571 95.5913 57.7571 95.5351C57.7571 95.479 57.7719 95.4238 57.8 95.3751L58.475 94.0751L56.705 95.1001C56.625 95.1451 56.565 95.1001 56.565 94.9601C56.5618 94.901 56.5729 94.842 56.5972 94.7881C56.6216 94.7341 56.6586 94.6868 56.705 94.6501Z" fill="#455A64"/>
<path opacity="0.5" d="M62.4999 89.5499C62.4999 89.4449 62.3949 89.4599 62.3499 89.5749L62.1049 90.1699C61.6899 90.1249 61.1899 90.5249 60.8499 91.2449C60.4149 92.1699 60.4149 93.2449 60.8499 93.6899C60.9567 93.7898 61.095 93.8494 61.241 93.8586C61.3869 93.8677 61.5315 93.8257 61.6499 93.7399C62.0035 93.5028 62.2798 93.1673 62.4449 92.7749C62.4726 92.728 62.4873 92.6745 62.4873 92.6199C62.4873 92.5654 62.4726 92.5119 62.4449 92.4649C62.3849 92.4099 62.2949 92.4649 62.2399 92.5799C61.9149 93.2699 61.3799 93.5799 61.0549 93.2649C60.7299 92.9499 60.7249 92.1299 61.0549 91.4349C61.2849 90.9349 61.6199 90.6499 61.9149 90.6349L61.7299 91.0799C61.6849 91.1949 61.7299 91.3049 61.7999 91.2549L62.5249 90.7849C62.5526 90.7599 62.5742 90.7289 62.5881 90.6942C62.602 90.6595 62.6077 90.6222 62.6049 90.5849L62.4999 89.5499Z" fill="#455A64"/>
<path opacity="0.5" d="M81.545 74.8101L82.19 73.4401C82.2278 73.3757 82.2477 73.3023 82.2477 73.2276C82.2477 73.1529 82.2278 73.0796 82.19 73.0151C82.115 72.9451 81.99 73.0151 81.915 73.1751L81.27 74.5401L80.62 73.9201C80.545 73.8451 80.42 73.9201 80.345 74.0801C80.3072 74.1446 80.2872 74.2179 80.2872 74.2926C80.2872 74.3673 80.3072 74.4407 80.345 74.5051L80.99 75.1251L80.345 76.5001C80.3072 76.5646 80.2872 76.6379 80.2872 76.7126C80.2872 76.7873 80.3072 76.8607 80.345 76.9251C80.3647 76.9414 80.3894 76.9503 80.415 76.9503C80.4405 76.9503 80.4652 76.9414 80.485 76.9251C80.547 76.8866 80.5945 76.8285 80.62 76.7601L81.27 75.3901L81.915 76.0151C81.9339 76.031 81.9578 76.0397 81.9825 76.0397C82.0071 76.0397 82.031 76.031 82.05 76.0151C82.1122 75.9755 82.161 75.918 82.19 75.8501C82.2278 75.7857 82.2477 75.7123 82.2477 75.6376C82.2477 75.5629 82.2278 75.4896 82.19 75.4251L81.545 74.8101Z" fill="#455A64"/>
<path d="M64.865 91.23V88.95C64.8881 88.5588 65.0028 88.1784 65.2 87.8397C65.3972 87.501 65.6712 87.2133 66 87L167.425 28.5C168.05 28.14 168.555 28.43 168.555 29.15V31.4C168.533 31.7917 168.42 32.1728 168.223 32.5124C168.027 32.852 167.754 33.1407 167.425 33.355L66 91.885C65.37 92.245 64.865 91.95 64.865 91.23Z" fill="white"/>
<path d="M165.88 33.4999C165.854 33.5052 165.826 33.5052 165.8 33.4999C165.747 33.4734 165.704 33.43 165.679 33.3765C165.654 33.3231 165.647 33.2627 165.66 33.2049L165.77 32.2599L165.31 31.9299C165.277 31.9059 165.251 31.8742 165.233 31.8375C165.216 31.8009 165.208 31.7605 165.21 31.7199C165.21 31.6511 165.226 31.5832 165.255 31.521C165.284 31.4588 165.327 31.4038 165.38 31.3599L166.04 30.8599C166.062 30.8399 166.078 30.8138 166.085 30.7849L166.38 29.8149C166.397 29.7442 166.433 29.6797 166.486 29.6292C166.538 29.5787 166.604 29.5442 166.675 29.5299C166.72 29.5284 166.764 29.5399 166.802 29.563C166.84 29.586 166.871 29.6197 166.89 29.6599L167.155 30.2299L167.755 29.9999C167.797 29.9819 167.844 29.9775 167.889 29.9873C167.934 29.9972 167.974 30.0208 168.005 30.0549C168.044 30.1151 168.065 30.1855 168.065 30.2574C168.065 30.3293 168.044 30.3997 168.005 30.4599L167.505 31.3599C167.5 31.3863 167.5 31.4135 167.505 31.4399L167.62 32.2549C167.627 32.3216 167.619 32.389 167.596 32.4521C167.574 32.5153 167.537 32.5726 167.49 32.6199C167.463 32.6517 167.429 32.6764 167.391 32.6921C167.353 32.7078 167.311 32.7139 167.27 32.7099L166.675 32.6349L166.1 33.4049C166.072 33.4355 166.038 33.4598 166 33.4762C165.962 33.4926 165.921 33.5007 165.88 33.4999ZM165.5 31.6649L165.96 31.9949C165.999 32.0272 166.028 32.0693 166.045 32.1169C166.061 32.1644 166.065 32.2155 166.055 32.2649L166 33.0449L166.5 32.4149C166.529 32.3743 166.567 32.3416 166.611 32.3197C166.656 32.2979 166.705 32.2876 166.755 32.2899L167.35 32.3649C167.35 32.3649 167.375 32.2849 167.35 32.2449L167.235 31.4299C167.227 31.3397 167.246 31.2492 167.29 31.1699L167.79 30.2699L167.24 30.4799C167.214 30.4914 167.185 30.4975 167.157 30.4979C167.128 30.4984 167.1 30.4931 167.073 30.4823C167.047 30.4716 167.023 30.4557 167.002 30.4356C166.982 30.4154 166.966 30.3914 166.955 30.3649L166.71 29.8649L166.415 30.8349C166.39 30.9241 166.338 31.003 166.265 31.0599L165.605 31.5599C165.558 31.581 165.521 31.6183 165.5 31.6649Z" fill="#E0E0E0"/>
<g opacity="0.5">
<path d="M169.875 28.19C169.788 28.1908 169.704 28.1629 169.635 28.1105C169.566 28.0581 169.517 27.9843 169.494 27.9006C169.472 27.817 169.478 27.7283 169.512 27.6485C169.545 27.5687 169.604 27.5024 169.68 27.46L172.85 25.63C172.894 25.604 172.943 25.5871 172.994 25.5801C173.045 25.5731 173.097 25.5762 173.146 25.5892C173.196 25.6022 173.243 25.6248 173.284 25.6558C173.325 25.6869 173.359 25.7256 173.385 25.77C173.411 25.8143 173.428 25.8633 173.435 25.9141C173.442 25.965 173.439 26.0168 173.426 26.0665C173.413 26.1161 173.39 26.1628 173.359 26.2037C173.328 26.2446 173.289 26.279 173.245 26.305L170.07 28.14C170.01 28.1734 169.943 28.1906 169.875 28.19Z" fill="#455A64"/>
<path d="M169.875 30.0249C169.806 30.0248 169.739 30.0068 169.679 29.9726C169.619 29.9384 169.57 29.8892 169.535 29.8299C169.509 29.7853 169.492 29.7361 169.486 29.685C169.479 29.6338 169.482 29.5819 169.496 29.5322C169.509 29.4824 169.533 29.4358 169.564 29.3951C169.596 29.3544 169.635 29.3203 169.68 29.2949L172.85 27.4599C172.939 27.4189 173.041 27.4126 173.134 27.4423C173.228 27.472 173.307 27.5355 173.356 27.6204C173.406 27.7054 173.422 27.8057 173.401 27.9017C173.38 27.9978 173.325 28.0827 173.245 28.1399L170.07 29.9699C170.011 30.0049 169.944 30.0238 169.875 30.0249Z" fill="#455A64"/>
<path d="M169.875 31.855C169.806 31.8549 169.739 31.8368 169.679 31.8026C169.619 31.7684 169.57 31.7193 169.535 31.66C169.509 31.6158 169.492 31.5669 169.486 31.5162C169.479 31.4655 169.483 31.4139 169.496 31.3646C169.51 31.3152 169.533 31.2691 169.564 31.2288C169.596 31.1885 169.635 31.1549 169.68 31.13L172.85 29.295C172.894 29.2691 172.943 29.2521 172.994 29.2451C173.045 29.2381 173.097 29.2412 173.146 29.2542C173.196 29.2672 173.243 29.2899 173.284 29.3209C173.325 29.3519 173.359 29.3907 173.385 29.435C173.411 29.4793 173.428 29.5283 173.435 29.5792C173.442 29.6301 173.439 29.6818 173.426 29.7315C173.413 29.7812 173.39 29.8278 173.359 29.8687C173.328 29.9096 173.289 29.9441 173.245 29.97L170.07 31.805C170.01 31.8384 169.943 31.8557 169.875 31.855Z" fill="#455A64"/>
</g>
<path d="M50.0549 94.9751V102.31L47.9349 101.085V93.7551L50.0549 94.9751Z" fill="#E0E0E0"/>
<path d="M136.438 65.0917L135.641 65.5577L137.946 56.9372L138.731 56.4784L141.036 62.4034L140.239 62.8694L138.363 57.8441L138.314 57.8727L136.438 65.0917ZM136.732 62.0788L139.945 60.2005V60.9818L136.732 62.86V62.0788ZM142.014 61.8316V54.5589L142.738 54.1359V56.8206L142.799 56.7848C142.852 56.659 142.926 56.4952 143.02 56.2935C143.116 56.0882 143.253 55.8756 143.431 55.6556C143.61 55.4321 143.854 55.2307 144.16 55.0515C144.557 54.8197 144.906 54.7302 145.209 54.783C145.511 54.8358 145.747 55.0233 145.917 55.3456C146.086 55.6678 146.171 56.1154 146.171 56.6883C146.171 57.2659 146.086 57.8162 145.917 58.3392C145.747 58.8598 145.512 59.3239 145.212 59.7315C144.911 60.1368 144.565 60.4541 144.172 60.6835C143.87 60.8604 143.628 60.944 143.446 60.9343C143.264 60.9223 143.124 60.8704 143.026 60.7786C142.928 60.6844 142.852 60.6031 142.799 60.5348L142.713 60.5849V61.423L142.014 61.8316ZM142.725 58.6886C142.725 59.1005 142.778 59.4334 142.882 59.6874C142.986 59.9389 143.138 60.0949 143.339 60.1554C143.539 60.2135 143.784 60.1577 144.074 59.9881C144.377 59.8112 144.629 59.5713 144.832 59.2684C145.036 58.9619 145.189 58.6213 145.291 58.2467C145.396 57.8685 145.448 57.4853 145.448 57.0971C145.448 56.7135 145.397 56.3978 145.294 56.1497C145.194 55.8982 145.042 55.7421 144.838 55.6817C144.635 55.6177 144.381 55.6753 144.074 55.8545C143.78 56.0266 143.533 56.2576 143.332 56.5475C143.132 56.835 142.981 57.1626 142.879 57.5301C142.777 57.8952 142.725 58.2814 142.725 58.6886ZM149.191 57.7496C148.766 57.9982 148.393 58.099 148.072 58.0522C147.753 58.0043 147.504 57.8221 147.324 57.5059C147.146 57.1884 147.057 56.748 147.057 56.1845C147.057 55.6164 147.146 55.0684 147.324 54.5407C147.504 54.0118 147.753 53.5369 148.072 53.1162C148.393 52.6942 148.766 52.359 149.191 52.1104C149.616 51.8619 149.988 51.7616 150.307 51.8096C150.628 51.8564 150.877 52.0397 151.055 52.3595C151.235 52.6781 151.325 53.1215 151.325 53.6897C151.325 54.2532 151.235 54.7982 151.055 55.3247C150.877 55.8501 150.628 56.3237 150.307 56.7457C149.988 57.1665 149.616 57.5011 149.191 57.7496ZM149.191 56.9968C149.514 56.808 149.78 56.5568 149.988 56.2432C150.197 55.9295 150.351 55.5872 150.451 55.2161C150.551 54.8451 150.601 54.4773 150.601 54.1127C150.601 53.7481 150.551 53.4377 150.451 53.1813C150.351 52.925 150.197 52.7607 149.988 52.6885C149.78 52.6162 149.514 52.6745 149.191 52.8633C148.868 53.0521 148.602 53.3044 148.394 53.6204C148.185 53.9364 148.031 54.2812 147.931 54.6546C147.831 55.028 147.781 55.397 147.781 55.7616C147.781 56.1261 147.831 56.4354 147.931 56.6894C148.031 56.9433 148.185 57.1052 148.394 57.1751C148.602 57.245 148.868 57.1856 149.191 56.9968ZM155.397 51.7779V48.5535L156.12 48.1305V53.5851L155.397 54.008V53.0847L155.348 53.1134C155.237 53.4549 155.066 53.7909 154.833 54.1212C154.6 54.4492 154.305 54.7171 153.95 54.925C153.655 55.0971 153.394 55.1754 153.165 55.1601C152.936 55.1424 152.756 55.0203 152.625 54.7937C152.495 54.5648 152.429 54.2183 152.429 53.7543V50.2884L153.153 49.8654V53.2745C153.153 53.6722 153.249 53.9333 153.441 54.0577C153.635 54.181 153.882 54.1548 154.183 53.9791C154.363 53.874 154.545 53.7138 154.731 53.4985C154.919 53.2821 155.077 53.0267 155.204 52.7325C155.332 52.437 155.397 52.1188 155.397 51.7779ZM159.493 46.1586V46.8688L157.053 48.2955V47.5852L159.493 46.1586ZM157.764 45.8626L158.488 45.4396V50.6385C158.488 50.8753 158.517 51.0355 158.577 51.1192C158.638 51.1994 158.716 51.2321 158.81 51.2174C158.906 51.1991 159.007 51.1589 159.113 51.0968C159.193 51.0502 159.258 51.0072 159.309 50.9678C159.36 50.9261 159.401 50.8928 159.432 50.8677L159.579 51.5346C159.53 51.5845 159.462 51.6459 159.374 51.7186C159.286 51.7936 159.174 51.8706 159.039 51.9494C158.835 52.0689 158.635 52.1351 158.439 52.148C158.244 52.1597 158.083 52.099 157.954 51.966C157.828 51.8317 157.764 51.606 157.764 51.2888V45.8626ZM165.977 45.5924V42.368L166.701 41.945V47.3996L165.977 47.8226V46.8993L165.928 46.9279C165.818 47.2694 165.646 47.6054 165.413 47.9357C165.18 48.2637 164.886 48.5316 164.53 48.7395C164.236 48.9116 163.974 48.9899 163.745 48.9746C163.516 48.9569 163.337 48.8348 163.206 48.6082C163.075 48.3793 163.01 48.0328 163.01 47.5688V44.1029L163.733 43.6799V47.089C163.733 47.4867 163.829 47.7478 164.021 47.8723C164.215 47.9955 164.463 47.9693 164.763 47.7936C164.943 47.6885 165.126 47.5283 165.312 47.313C165.5 47.0966 165.657 46.8412 165.784 46.547C165.913 46.2515 165.977 45.9333 165.977 45.5924ZM171.361 40.442L170.711 41.035C170.67 40.9334 170.61 40.8467 170.53 40.775C170.453 40.6996 170.347 40.6623 170.212 40.6631C170.077 40.6638 169.904 40.7257 169.694 40.8488C169.405 41.0172 169.165 41.2346 168.973 41.5008C168.783 41.7634 168.688 42.0119 168.688 42.2463C168.688 42.4546 168.753 42.5809 168.884 42.6252C169.015 42.6695 169.219 42.6506 169.497 42.5686L170.196 42.3588C170.617 42.231 170.931 42.2287 171.137 42.3519C171.344 42.4727 171.447 42.7237 171.447 43.1048C171.447 43.4173 171.369 43.7421 171.214 44.0791C171.061 44.415 170.846 44.7345 170.57 45.0379C170.294 45.3412 169.974 45.5998 169.608 45.8137C169.127 46.0945 168.73 46.2062 168.415 46.1487C168.1 46.0912 167.901 45.855 167.817 45.4399L168.504 44.8396C168.569 45.0949 168.693 45.2428 168.875 45.2833C169.059 45.3225 169.299 45.2555 169.595 45.0823C169.933 44.8851 170.2 44.6457 170.399 44.3641C170.599 44.0789 170.699 43.8191 170.699 43.5848C170.699 43.3954 170.642 43.2702 170.527 43.2093C170.413 43.146 170.237 43.1517 170 43.2264L169.215 43.4721C168.784 43.6058 168.467 43.6076 168.265 43.4773C168.065 43.3434 167.964 43.0883 167.964 42.7119C167.964 42.4041 168.039 42.0882 168.188 41.7643C168.339 41.4391 168.545 41.1332 168.804 40.8465C169.066 40.5586 169.362 40.3179 169.694 40.1243C170.159 39.8519 170.525 39.7564 170.791 39.8378C171.059 39.918 171.249 40.1194 171.361 40.442Z" fill="#455A64"/>
<path opacity="0.1" d="M55.47 127.255L89.995 107.32V163.605L55.37 183.485L55.47 127.255Z" fill="#5CE1E6"/>
<path d="M97.605 103.965L139.255 79.9199C140.095 79.4199 140.755 79.7999 140.755 80.7349C140.724 81.2522 140.572 81.7549 140.311 82.2029C140.051 82.651 139.689 83.0318 139.255 83.3149L97.6 107.63C96.765 108.13 96.1 107.73 96.1 106.765V106.59C96.1281 106.065 96.2789 105.554 96.5403 105.098C96.8016 104.643 97.1663 104.254 97.605 103.965Z" fill="#FFDE59"/>
<path d="M97.17 111.25L166.09 71.4601C166.69 71.1151 167.175 71.3601 167.175 72.0051C167.149 72.3694 167.037 72.7223 166.848 73.035C166.659 73.3478 166.4 73.6117 166.09 73.8051L97.17 113.595C96.575 113.94 96.09 113.695 96.09 113.05C96.1162 112.686 96.2277 112.334 96.4153 112.021C96.6029 111.709 96.8614 111.444 97.17 111.25Z" fill="#FFDE59"/>
<path d="M97.17 115.96L166.09 76.1701C166.69 75.8251 167.175 76.0701 167.175 76.7151C167.149 77.0793 167.037 77.4322 166.848 77.745C166.659 78.0578 166.4 78.3216 166.09 78.5151L97.17 118.305C96.575 118.65 96.09 118.405 96.09 117.755C96.117 117.392 96.2288 117.041 96.4164 116.729C96.6039 116.417 96.8621 116.154 97.17 115.96Z" fill="#FFDE59"/>
<path d="M97.17 120.665L166.09 80.875C166.69 80.53 167.175 80.775 167.175 81.425C167.148 81.7884 167.035 82.1403 166.847 82.4521C166.658 82.764 166.399 83.0271 166.09 83.22L97.17 123C96.575 123.345 96.09 123.1 96.09 122.45C96.1193 122.089 96.2321 121.74 96.4195 121.43C96.607 121.12 96.8639 120.858 97.17 120.665Z" fill="#FFDE59"/>
<path d="M97.17 125.375L166.09 85.5851C166.69 85.2401 167.175 85.4851 167.175 86.1301C167.149 86.4944 167.037 86.8473 166.848 87.16C166.659 87.4728 166.4 87.7367 166.09 87.9301L97.17 127.72C96.575 128.065 96.09 127.82 96.09 127.175C96.1162 126.811 96.2277 126.459 96.4153 126.146C96.6029 125.834 96.8614 125.569 97.17 125.375Z" fill="#FFDE59"/>
<path opacity="0.1" d="M97.17 130.085L145.26 102.085C145.855 101.74 146.34 101.985 146.34 102.635C146.313 102.998 146.201 103.349 146.014 103.661C145.826 103.973 145.568 104.236 145.26 104.43L97.17 132.43C96.575 132.775 96.09 132.53 96.09 131.88C96.117 131.517 96.2288 131.166 96.4164 130.854C96.6039 130.542 96.8621 130.279 97.17 130.085Z" fill="#5CE1E6"/>
<path d="M97.17 139.5L166.09 99.7101C166.69 99.3651 167.175 99.6101 167.175 100.255C167.149 100.619 167.037 100.972 166.848 101.285C166.659 101.598 166.4 101.862 166.09 102.055L97.17 141.845C96.575 142.19 96.09 141.945 96.09 141.3C96.1162 140.936 96.2277 140.584 96.4153 140.271C96.6029 139.959 96.8614 139.694 97.17 139.5Z" fill="#FFDE59"/>
<path d="M97.17 144.21L166.09 104.42C166.69 104.075 167.175 104.32 167.175 104.965C167.149 105.329 167.037 105.682 166.848 105.995C166.659 106.308 166.4 106.572 166.09 106.765L97.17 146.555C96.575 146.9 96.09 146.655 96.09 146.005C96.117 145.642 96.2288 145.291 96.4164 144.979C96.6039 144.667 96.8621 144.404 97.17 144.21Z" fill="#FFDE59"/>
<path d="M97.17 148.915L166.09 109.125C166.69 108.78 167.175 109.025 167.175 109.675C167.148 110.038 167.035 110.39 166.847 110.702C166.658 111.014 166.399 111.277 166.09 111.47L97.17 151.265C96.575 151.61 96.09 151.365 96.09 150.715C96.117 150.352 96.2288 149.999 96.4163 149.687C96.6038 149.374 96.8619 149.11 97.17 148.915Z" fill="#FFDE59"/>
<path opacity="0.1" d="M97.17 153.625L122.5 138.845C123.095 138.5 123.58 138.745 123.58 139.395C123.553 139.758 123.441 140.109 123.254 140.421C123.066 140.733 122.808 140.996 122.5 141.19L97.175 155.97C96.58 156.315 96.095 156.07 96.095 155.425C96.1207 155.062 96.2313 154.71 96.4181 154.397C96.6048 154.084 96.8623 153.82 97.17 153.625Z" fill="#5CE1E6"/>
<path d="M189.27 126.6C192.935 114.71 196.5 106.875 192.865 104.45C189.485 105.08 187.97 106.755 187.25 111.215C186.495 115.89 184.925 122.41 184.01 126.17C183.219 129.312 182.087 132.359 180.635 135.255C180.416 135.656 180.062 135.966 179.635 136.13C178.505 136.575 177.965 137.13 177.045 137.81C176.32 138.31 175.79 138.38 175.825 138.595C175.884 138.836 176.036 139.045 176.247 139.176C176.458 139.306 176.713 139.349 176.955 139.295C177.498 139.192 178.027 139.024 178.53 138.795C178.098 139.891 177.424 140.875 176.56 141.675C174.785 143.175 175.06 144.64 177.905 144.81C178.905 144.87 181.29 143.94 183.485 140.205C184.227 138.813 184.88 137.375 185.44 135.9C186.97 132.07 188.535 129 189.27 126.6Z" fill="#FFA8A7"/>
<path d="M193.5 104.31C193.5 104.31 190.68 104.165 188.97 106.05C187.26 107.935 185.27 119.195 185.27 119.195C185.27 119.195 187.14 121.765 192.07 120.695L193.5 104.31Z" fill="#5CE1E6"/>
<path opacity="0.3" d="M193.5 104.31C193.5 104.31 190.68 104.165 188.97 106.05C187.26 107.935 185.27 119.195 185.27 119.195C185.27 119.195 187.14 121.765 192.07 120.695L193.5 104.31Z" fill="black"/>
<path d="M206.705 184.19H202.92V190.94H206.705V184.19Z" fill="#FFA8A7"/>
<path d="M193.58 183.83L189.795 183.97L189.605 176.825L193.58 176.69V183.83Z" fill="#FFA8A7"/>
<path d="M207.24 125.75C207.24 129.515 206.685 159.815 206.685 159.815C206.77 160.9 207.745 162.9 207.535 167.06C207.25 172.71 206.865 187.56 206.865 187.56C206.216 187.894 205.498 188.076 204.768 188.092C204.038 188.107 203.313 187.956 202.65 187.65C202.65 187.65 199.07 167.075 198.395 161.47C197.8 156.585 196.795 140.125 196.795 140.125L194.745 159.26C195.182 161.319 195.34 163.428 195.215 165.53C195.035 168.12 193.82 181.615 193.82 181.615C193.166 182 192.432 182.232 191.675 182.292C190.918 182.352 190.157 182.238 189.45 181.96C189.45 181.96 187.295 161.64 187.25 159.26C187.2 156.55 188.51 125.705 188.51 125.705L207.24 125.75Z" fill="#37474F"/>
<path d="M202.92 189V188.435C202.555 188.6 201.715 191.935 200.215 193.375C199.02 194.505 197.39 195.815 196.975 197.08C196.56 198.345 199.245 199.125 200.36 198.92C201.655 198.68 203.905 197.73 204.465 196.845C205.025 195.96 205.295 194.665 205.755 194.02C206.215 193.375 207.255 192.655 207.515 191.905C207.655 191.495 207.515 190.595 207.3 189.835C207.085 189.075 206.935 188.37 206.705 188.435V188.865C206.174 189.305 205.505 189.542 204.815 189.535C204.26 189.55 202.915 189.435 202.92 189Z" fill="#263238"/>
<path d="M189.755 182.75C189.56 182.75 189.4 183.045 188.965 183.535C188.322 184.213 187.57 184.777 186.74 185.205C185.32 185.945 182.565 187.08 181.315 187.665C180.54 188.03 180.575 189.01 181.38 189.57C182.185 190.13 184.13 190.53 186.465 189.985C187.735 189.69 189.395 188.485 190.44 188.53C191.485 188.575 193.44 188.585 194.225 188.03C195.01 187.475 194.69 186.29 194.47 185.27C194.23 184.16 193.935 182.425 193.58 182.5V182.885C193.125 183.6 190.775 183.885 189.775 183.385L189.755 182.75Z" fill="#263238"/>
<path d="M196.795 140.13C194.825 139.487 193.024 138.41 191.525 136.98C191.525 136.98 192.525 138.98 195.565 140.81L194.92 157.9L196.795 140.13Z" fill="#263238"/>
<path d="M205.27 105.21C205.27 105.21 208.23 105.485 208.02 111.125L207.365 120.125V133.625C204.58 136.78 192.24 136.545 188.015 133.37C188.015 133.37 188.49 117.405 188.775 111.26C188.98 106.895 189.985 104.695 194.275 104.215L199.55 104.445L205.27 105.21Z" fill="#5CE1E6"/>
<path opacity="0.3" d="M196.855 108.17L196.175 112.91L194.595 112.88L196.38 113.165L196.855 108.17Z" fill="black"/>
<path d="M200.805 92.4999C200.836 94.0259 200.26 95.5018 199.203 96.6034C198.147 97.7049 196.696 98.3421 195.17 98.3749C192.055 98.3749 189.67 95.7399 189.53 92.5049C189.285 86.7699 192.055 86.6299 195.17 86.6299C196.695 86.6627 198.145 87.2992 199.201 88.3996C200.258 89.5001 200.834 90.9747 200.805 92.4999Z" fill="#263238"/>
<path d="M204 95.4048C204 95.4048 203.135 99.6348 202.79 100.33C202.567 100.754 202.186 101.073 201.73 101.22L201.79 98.2448L204 95.4048Z" fill="#263238"/>
<path d="M202.93 89.345C202.93 89.345 203.55 89.19 204.21 90.22C204.775 91.1 204.905 93.08 204.015 95.405L202.39 95.6L202.93 89.345Z" fill="#263238"/>
<path d="M201.9 95.5998C202.225 95.8048 202.69 95.1498 203.095 94.7098C203.5 94.2698 204.81 93.6748 205.47 95.1098C206.13 96.5448 204.89 98.5148 203.855 98.8548C202.07 99.4398 201.805 98.2448 201.805 98.2448L201.665 104.945C199.3 108.61 193.935 108.475 195.865 104.77V102.73C195.071 102.862 194.264 102.905 193.46 102.86C192.15 102.645 191.325 101.57 190.925 100.09C190.285 97.7148 190.045 95.7998 190.585 91.1248C191.185 85.9998 196.905 85.9548 200 87.9998C203.095 90.0448 201.9 95.5998 201.9 95.5998Z" fill="#FFA8A7"/>
<path d="M201.695 103.445C201.145 104.571 200.355 105.562 199.38 106.35C198.552 106.962 197.591 107.37 196.575 107.54C197.413 108.108 198.099 108.872 198.575 109.765C199.17 111.065 203.335 107.48 203.295 104.935C203.295 104.935 202.645 102.38 201.745 102.22L201.695 103.445Z" fill="#263238"/>
<path d="M196.575 107.54C196.575 107.54 195.29 106.905 195.865 104.77V102.73L195.3 102.805C194.642 103.447 194.174 104.258 193.95 105.15C193.82 105.735 193.5 108.695 194.065 109.28C194.63 109.865 195.42 107.7 196.575 107.54Z" fill="#263238"/>
<path d="M199.71 90C199.856 89.968 200.008 89.9767 200.15 90.025C200.65 90.245 200.74 91.755 200.825 92.19C201.11 93.655 201.35 96.14 201.9 96.15C202.065 96.15 202.69 95.075 203.095 94.69C203.66 94.155 202.93 89.325 202.93 89.325C203.079 88.9079 203.107 88.4572 203.012 88.0248C202.916 87.5923 202.701 87.1955 202.39 86.88C201.39 85.72 199.78 85.46 198.325 85.38C196.61 85.285 194.87 85.415 193.18 85.04C192.649 84.8925 192.11 84.7773 191.565 84.695C191.542 84.6852 191.517 84.6802 191.493 84.6802C191.468 84.6802 191.443 84.6852 191.42 84.695C191.365 84.74 191.375 84.825 191.39 84.895C191.496 85.4013 191.674 85.8897 191.92 86.345C190.914 86.2655 189.921 86.0692 188.96 85.76C188.905 85.7427 188.845 85.7427 188.79 85.76C188.675 85.795 188.655 85.945 188.665 86.065C188.73 87.275 189.305 89.105 190.29 89.815C191.163 90.3866 192.177 90.7067 193.22 90.74C195.87 90.84 197.5 90.28 199.71 90Z" fill="#263238"/>
<path d="M202.93 89.5998L204.905 88.4949C204.845 88.3588 204.757 88.2369 204.646 88.1369C204.536 88.0368 204.407 87.9609 204.265 87.9138C204.124 87.8667 203.975 87.8496 203.827 87.8636C203.678 87.8776 203.535 87.9223 203.405 87.9949C203.142 88.1571 202.948 88.4105 202.861 88.7066C202.773 89.0027 202.798 89.3207 202.93 89.5998Z" fill="#263238"/>
<path d="M195.87 102.73C195.87 102.73 198.795 102.115 199.82 101.55C200.427 101.216 200.92 100.707 201.235 100.09C201.083 100.711 200.809 101.295 200.43 101.81C199.685 102.81 195.87 103.54 195.87 103.54V102.73Z" fill="#F28F8F"/>
<path d="M196.575 94.84C196.586 94.9527 196.629 95.0599 196.699 95.1486C196.77 95.2373 196.864 95.3037 196.972 95.3397C197.079 95.3756 197.195 95.3797 197.304 95.3512C197.414 95.3228 197.513 95.2632 197.589 95.1796C197.666 95.096 197.716 94.9921 197.735 94.8803C197.753 94.7686 197.739 94.6539 197.693 94.5502C197.648 94.4465 197.573 94.3582 197.479 94.296C197.384 94.2338 197.273 94.2005 197.16 94.2C197.079 94.2025 197 94.2212 196.926 94.2549C196.853 94.2887 196.787 94.3368 196.732 94.3965C196.678 94.4561 196.636 94.5261 196.609 94.6023C196.582 94.6784 196.57 94.7593 196.575 94.84Z" fill="#263238"/>
<path d="M197.5 92.3098L198.755 93.0298C198.846 92.8567 198.87 92.6562 198.823 92.4665C198.776 92.2767 198.661 92.1107 198.5 91.9998C198.416 91.9461 198.321 91.9114 198.223 91.898C198.124 91.8847 198.023 91.893 197.928 91.9226C197.833 91.9521 197.745 92.002 197.671 92.0689C197.597 92.1358 197.539 92.218 197.5 92.3098Z" fill="#263238"/>
<path d="M196.135 99.0598L194.795 99.5598C194.822 99.6519 194.867 99.7375 194.928 99.8114C194.988 99.8854 195.064 99.946 195.149 99.9896C195.235 100.033 195.328 100.059 195.423 100.065C195.519 100.071 195.615 100.057 195.705 100.025C195.883 99.9454 196.026 99.8029 196.105 99.6248C196.184 99.4466 196.195 99.2454 196.135 99.0598Z" fill="#F28F8F"/>
<path d="M191.19 92.845L192.335 91.925C192.283 91.8444 192.215 91.7757 192.135 91.7235C192.055 91.6712 191.965 91.6366 191.87 91.622C191.775 91.6073 191.679 91.6129 191.587 91.6385C191.494 91.664 191.409 91.7088 191.335 91.77C191.182 91.8995 191.083 92.0811 191.056 92.2796C191.029 92.4782 191.077 92.6796 191.19 92.845Z" fill="#263238"/>
<path d="M191.695 94.6649C191.692 94.7448 191.704 94.8245 191.732 94.8995C191.76 94.9745 191.802 95.0433 191.856 95.1019C191.911 95.1605 191.976 95.2077 192.049 95.2408C192.122 95.2739 192.2 95.2923 192.28 95.2949C192.448 95.2949 192.61 95.228 192.729 95.1089C192.848 94.9898 192.915 94.8283 192.915 94.6599C192.915 94.4915 192.848 94.33 192.729 94.2109C192.61 94.0918 192.448 94.0249 192.28 94.0249C192.118 94.034 191.966 94.106 191.857 94.2256C191.748 94.3453 191.69 94.5029 191.695 94.6649Z" fill="#263238"/>
<path d="M194.835 94.1748L194.765 97.8798L192.66 97.3948L194.835 94.1748Z" fill="#F28F8F"/>
<path d="M211.03 97.8999C211.875 96.7799 213.585 99.2649 214.375 100.98C215.165 102.695 215.18 103.665 214.53 104.345C213.88 105.025 212.655 104.615 211.43 102.99C210.205 101.365 210.545 98.7249 211.03 97.8999Z" fill="#5CE1E6"/>
<path opacity="0.5" d="M211.03 97.8999C211.875 96.7799 213.585 99.2649 214.375 100.98C215.165 102.695 215.18 103.665 214.53 104.345C213.88 105.025 212.655 104.615 211.43 102.99C210.205 101.365 210.545 98.7249 211.03 97.8999Z" fill="black"/>
<path d="M217 98.2299C214 105.23 209.825 109.175 207.95 113.68C205.495 113.515 203.58 107.58 205.41 105.045C205.41 105.045 212.6 97.2599 213.25 94.1999C213.83 91.4849 214.605 87.0049 214.54 84.6999C214.514 84.3245 214.357 83.9703 214.095 83.6999C213.34 82.8849 213.34 82.2349 212.855 81.3399C212.48 80.6399 212.065 80.3799 212.185 80.2199C212.34 80.0536 212.553 79.9519 212.78 79.9353C213.007 79.9186 213.232 79.9881 213.41 80.1299C213.757 80.3836 214.068 80.683 214.335 81.0199C214.427 80.1211 214.281 79.2138 213.91 78.3899C213.075 76.4999 213.28 75.5399 215.825 76.2099C217.425 76.6349 218.425 77.9649 218.665 81.7999C218.776 83.396 218.786 84.9975 218.695 86.5949C218.415 89.5499 218.24 92.6299 217.875 95.0949C217.718 96.1728 217.423 97.2262 217 98.2299Z" fill="#FFA8A7"/>
<path d="M204.66 105.13L211 97.8799C211 97.8799 210.245 99.6449 211.895 102.22C213.545 104.795 214.525 104.345 214.525 104.345C214.525 104.345 210.78 109.81 209.78 111.64C208.78 113.47 207.735 115.015 207.735 115.015C207.624 115.228 207.452 115.404 207.241 115.519C207.03 115.634 206.789 115.683 206.55 115.66C205.62 115.66 203.155 111.53 204.66 105.13Z" fill="#5CE1E6"/>
<path opacity="0.3" d="M204.66 105.13L211 97.8799C211 97.8799 210.245 99.6449 211.895 102.22C213.545 104.795 214.525 104.345 214.525 104.345C214.525 104.345 210.78 109.81 209.78 111.64C208.78 113.47 207.735 115.015 207.735 115.015C207.624 115.228 207.452 115.404 207.241 115.519C207.03 115.634 206.789 115.683 206.55 115.66C205.62 115.66 203.155 111.53 204.66 105.13Z" fill="black"/>
<path d="M153.21 121.425L156.195 125.4L152.985 129.075L148.85 124.24L153.21 121.425Z" fill="#F28F8F"/>
<path d="M143.435 112.385C146.04 112.505 147.28 112.885 148.645 114.515C150.01 116.145 156.83 126 156.83 126C156.83 126 155.625 129.38 152.985 129.09L148.19 124.145L143.435 112.385Z" fill="#455A64"/>
<path d="M130.655 194.945C130.47 195.982 130.369 197.032 130.355 198.085C130.32 199.985 129.97 200.665 129.925 202.225C129.87 204.01 130.18 204.68 130.925 205.68C131.67 206.68 133.55 207.595 134.355 205.9C135.16 204.205 135.055 203.095 134.795 201.34C134.535 199.585 134.495 198.53 134.345 197.15C134.205 195.93 134.045 195.005 134.045 195.005L130.655 194.945Z" fill="#263238"/>
<path d="M136.06 180L129.785 179.885C129.88 184.075 130.545 191.045 130.655 194.97C130.655 195.71 130.655 200.715 130.915 202.24C131.335 204.525 134.045 204.215 134.19 202.85C134.335 201.485 134.015 195.635 134.025 195.03C134 192.53 135.18 185.94 135.8 181.415C135.83 181.17 136.03 180.19 136.06 180Z" fill="#FFBDA7"/>
<path d="M145.275 191.69C145.275 191.69 144.955 191.69 144.9 191.97C144.845 192.25 144.825 192.78 144.695 193.3C144.482 194.115 144.407 194.96 144.475 195.8C144.58 196.385 145.915 197.255 146.83 197.41C147.745 197.565 149.03 198.465 149.745 199.14C150.893 200.088 152.314 200.645 153.8 200.73C155.3 200.73 156.385 200.23 156.885 199.41C157.385 198.59 156.43 198.495 154.69 197.365L153.335 196.485C150.58 194.685 149.57 193.72 148.79 191.92L145.275 191.69Z" fill="#263238"/>
<path d="M148.81 190.71C148.765 189.41 149.425 179.86 149.425 179.86L144.03 180.47C145.31 188.08 145.41 190.675 145.265 191.785C145.238 191.888 145.226 191.994 145.23 192.1C145.23 193.6 146.905 194.38 148.23 195.365C148.73 195.755 150.065 196.955 151.615 197.48C152.615 197.825 154.47 197.98 154.705 197.345C153.125 196.135 150.965 194.555 149.705 193.17C149.085 192.5 148.855 192 148.81 190.71Z" fill="#FFBDA7"/>
<path d="M131.24 136.68C128.3 143.11 131.35 165.75 131.35 165.75C131.26 166.795 130.065 168.845 129.625 173.44C129.1 178.86 130.59 193.385 130.59 193.385C131.115 193.704 131.716 193.878 132.33 193.892C132.944 193.905 133.551 193.756 134.09 193.46C134.09 193.46 137.885 172.12 138.59 166.73C139.185 162.02 140.325 151.67 140.325 151.67L143.565 166.7C143.09 168.218 142.745 169.773 142.535 171.35C142.23 174.52 145.32 190.445 145.32 190.445C145.877 190.675 146.475 190.787 147.077 190.775C147.68 190.763 148.273 190.627 148.82 190.375C148.82 190.375 150.185 169.805 150.475 165.985C150.975 159.565 149.25 139.54 148.075 135.74L131.24 136.68Z" fill="#5CE1E6"/>
<path opacity="0.5" d="M131.24 136.68C128.3 143.11 131.35 165.75 131.35 165.75C131.26 166.795 130.065 168.845 129.625 173.44C129.1 178.86 130.59 193.385 130.59 193.385C131.115 193.704 131.716 193.878 132.33 193.892C132.944 193.905 133.551 193.756 134.09 193.46C134.09 193.46 137.885 172.12 138.59 166.73C139.185 162.02 140.325 151.67 140.325 151.67L143.565 166.7C143.09 168.218 142.745 169.773 142.535 171.35C142.23 174.52 145.32 190.445 145.32 190.445C145.877 190.675 146.475 190.787 147.077 190.775C147.68 190.763 148.273 190.627 148.82 190.375C148.82 190.375 150.185 169.805 150.475 165.985C150.975 159.565 149.25 139.54 148.075 135.74L131.24 136.68Z" fill="black"/>
<path opacity="0.2" d="M140.315 151.67L141.27 145.7C141.27 145.7 145.31 144.865 147.145 143.14C145.879 144.624 144.224 145.724 142.365 146.315L141.29 150.915L143.17 164.83L140.315 151.67Z" fill="black"/>
<path d="M132.75 116.715L136.75 117.755V109.29C134.54 108.715 132.75 109.99 132.75 112.14V116.715Z" fill="#5CE1E6"/>
<path opacity="0.6" d="M132.75 116.715L136.75 117.755V109.29C134.54 108.715 132.75 109.99 132.75 112.14V116.715Z" fill="black"/>
<path d="M140.67 110.5L139.235 110.47C134.855 110.365 131.385 106.59 131.48 102.03C131.48 97.06 135.33 93.03 140.1 92.985C144.87 92.96 148.76 96.985 148.785 101.935V102.435C148.665 107 145.04 110.595 140.67 110.5Z" fill="#5CE1E6"/>
<path opacity="0.6" d="M140.67 110.5L139.235 110.47C134.855 110.365 131.385 106.59 131.48 102.03C131.48 97.06 135.33 93.03 140.1 92.985C144.87 92.96 148.76 96.985 148.785 101.935V102.435C148.665 107 145.04 110.595 140.67 110.5Z" fill="black"/>
<path d="M133.965 95.0599C133.93 94.9149 133.866 94.7786 133.776 94.6596C133.686 94.5405 133.572 94.4413 133.442 94.3681C133.312 94.2949 133.169 94.2493 133.02 94.2341C132.872 94.219 132.722 94.2346 132.58 94.2799L132.965 95.7799C132.885 95.6787 132.787 95.5938 132.675 95.5299C132.545 95.4566 132.402 95.4112 132.253 95.3969C132.105 95.3825 131.955 95.3994 131.814 95.4466C131.672 95.4937 131.543 95.57 131.432 95.6704C131.322 95.7709 131.235 95.8934 131.175 96.0299L133.125 97.1749C133.226 96.9795 133.271 96.7596 133.255 96.5399C133.534 96.4231 133.761 96.2078 133.891 95.935C134.022 95.6621 134.048 95.3508 133.965 95.0599Z" fill="#5CE1E6"/>
<path opacity="0.6" d="M133.965 95.0599C133.93 94.9149 133.866 94.7786 133.776 94.6596C133.686 94.5405 133.572 94.4413 133.442 94.3681C133.312 94.2949 133.169 94.2493 133.02 94.2341C132.872 94.219 132.722 94.2346 132.58 94.2799L132.965 95.7799C132.885 95.6787 132.787 95.5938 132.675 95.5299C132.545 95.4566 132.402 95.4112 132.253 95.3969C132.105 95.3825 131.955 95.3994 131.814 95.4466C131.672 95.4937 131.543 95.57 131.432 95.6704C131.322 95.7709 131.235 95.8934 131.175 96.0299L133.125 97.1749C133.226 96.9795 133.271 96.7596 133.255 96.5399C133.534 96.4231 133.761 96.2078 133.891 95.935C134.022 95.6621 134.048 95.3508 133.965 95.0599Z" fill="black"/>
<path d="M136.33 112.73C134.983 112.913 133.648 113.17 132.33 113.5C133.88 117.3 131.45 123.17 131.45 123.17L133.745 130.235C132.16 133.48 130.855 135.09 130.315 137.735C131.775 140.585 142.08 143.305 148.79 138.11C148.79 138.11 148.575 130.895 147.72 126.69C149.915 122.405 149.56 121.145 149.11 119.65C148.065 116.175 145.955 114.84 143.44 112.39L141.94 112.23L136.33 112.73Z" fill="#37474F"/>
<path d="M134 133.065C135.245 131.79 137.885 131.425 137.885 131.425L135.46 130.045L132.75 123.5C133.887 121.272 134.449 118.795 134.385 116.295L132.825 115.92C133.015 119.385 131.445 123.175 131.445 123.175L133.74 130.24C132.155 133.485 130.85 135.095 130.31 137.74C131.31 139.69 136.455 141.58 141.755 140.91C134.655 140.43 132.805 134.3 134 133.065Z" fill="#263238"/>
<path d="M141.175 140.965L141.465 140.935C141.368 140.937 141.271 140.947 141.175 140.965Z" fill="#E6E6E6"/>
<path d="M145.565 97.415C146.425 98.205 147.5 99.915 147.415 104.915C147.34 109.165 146.025 110.22 145.36 110.525C144.695 110.83 143.42 110.655 142.175 110.445V112.205C142.175 112.205 143.815 114.025 143.715 115.205C143.615 116.385 141.375 116.86 139.76 115.705C138.622 114.843 137.612 113.825 136.76 112.68V107.335C136.76 107.335 136.03 108.08 134.76 106.96C133.76 106.03 133.38 104.46 134.175 103.61C134.379 103.409 134.629 103.261 134.904 103.179C135.179 103.097 135.469 103.084 135.75 103.141C136.031 103.198 136.294 103.322 136.515 103.505C136.737 103.687 136.91 103.92 137.02 104.185C138.926 103.986 140.781 103.451 142.5 102.605C143.467 102.14 144.274 101.399 144.82 100.475C145.365 99.5511 145.625 98.4863 145.565 97.415Z" fill="#FFBDA7"/>
<path d="M142.17 103.96C142.17 104.057 142.141 104.152 142.088 104.233C142.034 104.314 141.958 104.378 141.869 104.417C141.78 104.456 141.682 104.468 141.586 104.451C141.49 104.435 141.401 104.391 141.33 104.325C141.259 104.259 141.208 104.174 141.185 104.08C141.161 103.986 141.166 103.887 141.197 103.795C141.229 103.703 141.287 103.623 141.364 103.563C141.441 103.504 141.533 103.468 141.63 103.46C141.767 103.457 141.9 103.508 142.001 103.601C142.102 103.694 142.162 103.823 142.17 103.96Z" fill="#263238"/>
<path d="M142.365 107.5L143.7 107.935C143.679 108.026 143.639 108.112 143.583 108.187C143.527 108.262 143.457 108.325 143.376 108.372C143.295 108.419 143.205 108.449 143.112 108.46C143.019 108.47 142.925 108.462 142.835 108.435C142.653 108.367 142.504 108.233 142.417 108.06C142.33 107.886 142.311 107.686 142.365 107.5Z" fill="#F79776"/>
<path d="M147 102.045L145.785 101.63C145.804 101.549 145.84 101.473 145.891 101.407C145.941 101.34 146.005 101.285 146.078 101.245C146.151 101.205 146.232 101.181 146.315 101.174C146.398 101.167 146.481 101.178 146.56 101.205C146.724 101.266 146.859 101.386 146.941 101.541C147.022 101.696 147.043 101.875 147 102.045Z" fill="#263238"/>
<path d="M137.025 103.71V105.505C137.14 105.51 137.255 105.491 137.363 105.45C137.47 105.408 137.568 105.346 137.651 105.265C137.733 105.184 137.798 105.088 137.842 104.981C137.886 104.875 137.907 104.76 137.905 104.645C137.907 104.406 137.816 104.175 137.652 104.001C137.488 103.827 137.264 103.723 137.025 103.71Z" fill="#5CE1E6"/>
<path opacity="0.6" d="M137.025 103.71V105.505C137.14 105.51 137.255 105.491 137.363 105.45C137.47 105.408 137.568 105.346 137.651 105.265C137.733 105.184 137.798 105.088 137.842 104.981C137.886 104.875 137.907 104.76 137.905 104.645C137.907 104.406 137.816 104.175 137.652 104.001C137.488 103.827 137.264 103.723 137.025 103.71Z" fill="black"/>
<path d="M146.56 103.785C146.571 103.929 146.525 104.071 146.431 104.181C146.337 104.291 146.204 104.359 146.06 104.37C145.95 104.381 145.839 104.358 145.742 104.306C145.644 104.253 145.565 104.172 145.514 104.074C145.463 103.976 145.442 103.865 145.454 103.755C145.467 103.645 145.512 103.541 145.584 103.457C145.656 103.373 145.751 103.312 145.858 103.283C145.965 103.253 146.078 103.256 146.183 103.292C146.288 103.327 146.38 103.393 146.447 103.481C146.514 103.569 146.553 103.675 146.56 103.785Z" fill="#263238"/>
<path d="M143.71 103.06L143.7 106.54L145.32 106.005L143.71 103.06Z" fill="#F79776"/>
<path d="M142.175 110.465C140.86 110.295 138.175 109.5 137.73 108.39C137.899 108.947 138.232 109.44 138.685 109.805C139.495 110.52 142.185 111.305 142.185 111.305L142.175 110.465Z" fill="#F79776"/>
<path d="M126.175 130.5C126.175 130.5 129.385 135.06 129.935 135.655C130.485 136.25 130.865 136.05 131.46 135.785C132.186 135.492 132.931 135.25 133.69 135.06C134.69 134.815 134.88 135.72 133.91 136.365C133.21 136.835 132.41 137.035 132.74 137.42C133.424 138.039 134.218 138.526 135.08 138.855C137.45 139.79 137.265 140.26 136.83 141.025C136.45 141.695 135.33 143.135 131.11 141.435C129.36 140.73 126.9 138.735 125.74 137.435C124.065 135.58 121.45 132.255 121.45 132.255L126.175 130.5Z" fill="#FFBDA7"/>
<path d="M132.945 113.335C131.785 113.41 129.6 113.69 126.86 118.24C124.455 122.24 120.73 127.645 120.04 129.58C119.76 130.365 120.85 131.99 122.255 133.655C124.17 133.57 125.915 132.245 126.82 131.185C126.583 130.621 126.288 130.083 125.94 129.58L131.56 123.17C131.56 123.17 133.695 121.215 134.14 118.67C134.62 115.91 134.47 113.74 132.945 113.335Z" fill="#455A64"/>
<path d="M164.41 121.965L150.555 125.615L146.74 141.29L159.915 137.465L164.41 121.965Z" fill="#5CE1E6"/>
<path opacity="0.25" d="M164.41 121.965L150.555 125.615L146.74 141.29L159.915 137.465L164.41 121.965Z" fill="black"/>
<g opacity="0.1">
<path d="M158.15 133.065C158.382 133.549 158.751 133.954 159.212 134.23C159.672 134.505 160.204 134.639 160.74 134.615L160.84 134.27L158.15 133.065Z" fill="black"/>
</g>
<g opacity="0.1">
<path d="M160.235 124.455L160.35 123.925C160.415 123.635 159.6 123.62 158.535 123.925L156.49 124.425C155.425 124.705 154.49 125.165 154.445 125.455L154.335 125.985L160.235 124.455Z" fill="black"/>
</g>
<path d="M161.3 122.47C161.34 122.285 161.01 122.235 160.565 122.36L159.755 122.585C159.755 122.585 159.995 121.44 158.205 121.84C157.724 121.911 157.27 122.104 156.887 122.402C156.503 122.7 156.203 123.092 156.015 123.54L155.155 123.785C154.655 123.92 154.245 124.175 154.19 124.355L154.085 124.685L161.225 122.805L161.3 122.47Z" fill="#37474F"/>
<path d="M160.315 123.03C159.665 123.19 159.39 123.275 159.315 123.725C159.24 124.175 159.155 124.615 159.155 124.615L156 125.45C156 125.45 156.155 124.8 156.205 124.55C156.255 124.3 156.145 124.14 155.64 124.275L155.6 124.075L160.55 122.81L160.315 123.03Z" fill="#37474F"/>
<path d="M160.425 124.5L160.54 123.97C160.605 123.68 159.79 123.665 158.725 123.97L156.68 124.47C155.615 124.75 154.68 125.21 154.635 125.5L154.525 126.03L160.425 124.5Z" fill="#37474F"/>
<path d="M162.95 127C162.95 127 162.45 128.775 162.315 129.195C162.18 129.615 160.64 130.38 159.625 130.66C158.61 130.94 157.49 131.27 157.975 132.695C158.415 134.01 160.095 134.31 160.945 134.27C161.795 134.23 162.97 133.42 163.445 132.105C164.03 130.425 163.715 128.635 163.945 127.655C164.175 126.675 163.46 126.415 162.95 127Z" fill="#FFBDA7"/>
<path d="M110.465 127.415C108.565 125.5 107.885 126.245 107.645 128.345C107.556 129.226 107.342 130.089 107.01 130.91C106.951 130.474 106.831 130.048 106.655 129.645C106.571 129.427 106.409 129.249 106.199 129.146C105.989 129.043 105.749 129.023 105.525 129.09C105.34 129.165 105.57 129.59 105.525 130.425C105.49 131.465 105.15 132.04 105.395 133.145C105.48 133.561 105.415 133.993 105.21 134.365C104.21 136.265 100.915 139.775 98.605 142.305L89.83 134.38C86.83 131.68 85.86 130.465 82.965 130.66C83.8707 131.004 84.7048 131.512 85.425 132.16C86.77 133.295 86.45 139.79 86.45 139.79C86.45 139.79 96.41 146.93 97.45 147.61C97.6 147.71 97.755 147.8 97.905 147.885C98.3966 148.141 98.9605 148.224 99.505 148.12C100.05 148.015 100.543 147.73 100.905 147.31C103.03 144.88 106.13 140.095 107.905 137.61C108.717 136.407 109.44 135.147 110.07 133.84C111.85 130.305 111.655 128.615 110.465 127.415Z" fill="#914F4E"/>
<path d="M83.275 130.5C83.9745 130.373 84.6931 130.396 85.3829 130.568C86.0727 130.741 86.7177 131.058 87.275 131.5C88.985 132.8 96.275 139.5 96.275 139.5C96.275 139.5 96.475 143.045 92.775 145.155L83.84 138.855L83.275 130.5Z" fill="#5CE1E6"/>
<path opacity="0.3" d="M83.275 130.5C83.9745 130.373 84.6931 130.396 85.3829 130.568C86.0727 130.741 86.7177 131.058 87.275 131.5C88.985 132.8 96.275 139.5 96.275 139.5C96.275 139.5 96.475 143.045 92.775 145.155L83.84 138.855L83.275 130.5Z" fill="black"/>
<path d="M74.65 210.48H70.865V217.23H74.65V210.48Z" fill="#914F4E"/>
<path d="M83.99 210.12L87.775 210.255L87.965 203.11L83.99 202.975V210.12Z" fill="#914F4E"/>
<path d="M70.33 152.035C70.33 155.8 70.885 186.105 70.885 186.105C70.8 187.185 69.825 189.185 70.035 193.345C70.32 199 70.705 213.845 70.705 213.845C71.3552 214.178 72.0725 214.358 72.8027 214.373C73.533 214.388 74.257 214.236 74.92 213.93C74.92 213.93 78.5 193.355 79.18 187.755C79.77 182.865 80.775 166.405 80.775 166.405L82.825 185.545C82.3882 187.603 82.2301 189.71 82.355 191.81C82.535 194.4 83.75 207.895 83.75 207.895C84.4046 208.282 85.1389 208.515 85.8971 208.576C86.6552 208.636 87.4172 208.523 88.125 208.245C88.125 208.245 90.275 187.92 90.32 185.545C90.37 182.835 89.06 151.985 89.06 151.985L70.33 152.035Z" fill="#37474F"/>
<path d="M74.65 215.28V214.72C75.015 214.885 75.855 218.22 77.355 219.655C78.55 220.79 80.18 222.1 80.595 223.365C81.01 224.63 78.325 225.405 77.21 225.2C75.915 224.96 73.665 224.01 73.105 223.13C72.545 222.25 72.275 220.945 71.815 220.3C71.355 219.655 70.315 218.935 70.055 218.185C69.9807 217.487 70.0539 216.782 70.27 216.115C70.445 215.42 70.635 214.655 70.865 214.72V215.15C71.399 215.587 72.0699 215.823 72.76 215.815C73.31 215.835 74.655 215.72 74.65 215.28Z" fill="#263238"/>
<path d="M87.815 209.04C88.01 209.04 88.17 209.335 88.605 209.825C89.2478 210.501 90 211.064 90.83 211.49C92.25 212.23 95.005 213.37 96.255 213.955C97.035 214.32 96.995 215.3 96.19 215.855C95.385 216.41 93.44 216.815 91.105 216.275C89.835 215.975 88.175 214.775 87.105 214.82C86.035 214.865 84.105 214.87 83.32 214.32C82.535 213.77 82.855 212.575 83.075 211.56C83.315 210.445 83.615 208.71 83.965 208.785V209.17C84.42 209.89 86.77 210.17 87.77 209.67L87.815 209.04Z" fill="#263238"/>
<path d="M80.775 166.415C82.7449 165.772 84.5456 164.695 86.045 163.265C86.045 163.265 85.045 165.265 82.005 167.095L82.65 184.19L80.775 166.415Z" fill="#263238"/>
<path d="M72.3 131.5C72.3 131.5 69.34 131.77 69.55 137.415L70.205 146.415L70.145 159.915C72.925 163.07 85.27 162.84 89.495 159.66C89.495 159.66 89.06 143.695 88.775 137.55C88.57 133.185 87.565 130.985 83.275 130.505L77.995 130.735L72.3 131.5Z" fill="#5CE1E6"/>
<path opacity="0.3" d="M80.715 134.46L81.395 139.2L82.98 139.17L81.19 139.45L80.715 134.46Z" fill="black"/>
<path d="M62.905 150.88C64.44 138.53 67.975 132.38 72.28 131.67L71.975 139.57C70.1825 143.783 68.8092 148.163 67.875 152.645C67.31 155.685 66.655 160.97 66.825 163.565C66.859 164.022 67.0538 164.453 67.375 164.78C68.225 165.645 68.48 166.395 69.05 167.37C69.5 168.135 69.96 168.405 69.84 168.59C69.6853 168.784 69.461 168.911 69.2145 168.943C68.968 168.974 68.7189 168.909 68.52 168.76C68.0688 168.44 67.656 168.069 67.29 167.655C67.2352 168.832 67.4472 170.006 67.91 171.09C68.91 173.17 68.75 174.265 65.96 173.65C64.21 173.27 62.96 171.425 62.46 167.12C62.3285 165.513 62.3001 163.9 62.375 162.29C62.565 158.175 62.6 153.35 62.905 150.88Z" fill="#914F4E"/>
<path d="M72.525 131.465C70.29 131.465 68.25 131.85 66.625 134.965C65.07 137.965 63.875 144.31 63.27 146.385C63.27 146.385 66.535 148.315 69.54 148.265L71.655 140.925C71.655 140.925 73.085 137.5 72.525 131.465Z" fill="#5CE1E6"/>
<path opacity="0.3" d="M72.525 131.465C70.29 131.465 68.25 131.85 66.625 134.965C65.07 137.965 63.875 144.31 63.27 146.385C63.27 146.385 66.535 148.315 69.54 148.265L71.655 140.925C71.655 140.925 73.085 137.5 72.525 131.465Z" fill="black"/>
<path d="M77.14 118.755C77.1851 119.86 77.5539 120.927 78.2006 121.824C78.8474 122.721 79.7434 123.408 80.7774 123.799C81.8114 124.191 82.9378 124.27 84.0164 124.027C85.095 123.783 86.0783 123.228 86.844 122.431C87.6097 121.633 88.1241 120.628 88.3232 119.54C88.5222 118.453 88.3972 117.331 87.9636 116.313C87.53 115.296 86.807 114.429 85.8845 113.819C84.962 113.21 83.8807 112.885 82.775 112.885C81.2499 112.918 79.8001 113.554 78.7437 114.655C77.6872 115.755 77.1105 117.23 77.14 118.755Z" fill="#263238"/>
<path d="M73.5551 121.69C73.5551 121.69 74.4201 125.92 74.7651 126.615C74.9901 127.04 75.3721 127.362 75.8301 127.51L75.7651 124.51L73.5551 121.69Z" fill="#263238"/>
<path d="M74.64 115.63C74.64 115.63 74 115.5 73.36 116.5C72.795 117.38 72.67 119.36 73.555 121.685L75.18 121.88L74.64 115.63Z" fill="#263238"/>
<path d="M75.6699 121.885C75.3449 122.09 74.8799 121.435 74.4749 121C74.0699 120.565 72.76 119.96 72.105 121.4C71.45 122.84 72.6799 124.805 73.7149 125.14C75.4999 125.725 75.765 124.53 75.765 124.53L75.9049 131.235C78.2699 134.895 83.635 134.765 81.705 131.055V129C82.4994 129.132 83.3059 129.175 84.11 129.13C85.42 128.92 86.2449 127.84 86.6449 126.36C87.2849 123.985 87.525 122.07 86.985 117.4C86.39 112.28 80.675 112.225 77.585 114.25C74.495 116.275 75.6699 121.885 75.6699 121.885Z" fill="#914F4E"/>
<path d="M75.8749 129.73C76.4251 130.856 77.2153 131.847 78.1899 132.635C79.0191 133.246 79.9797 133.655 80.9949 133.83C80.1581 134.397 79.4717 135.159 78.9949 136.05C78.4049 137.355 74.2349 133.77 74.2749 131.225C74.2749 131.225 74.9299 128.67 75.8249 128.505L75.8749 129.73Z" fill="#263238"/>
<path d="M81 133.83C81 133.83 82.285 133.19 81.71 131.055V129L82.275 129.075C82.9334 129.717 83.4008 130.528 83.625 131.42C83.755 132.005 84.075 134.965 83.51 135.55C82.945 136.135 82.15 134 81 133.83Z" fill="#263238"/>
<path d="M75.67 122.46C75.505 122.46 74.88 121.385 74.475 121C73.91 120.465 74.64 115.63 74.64 115.63C74.4927 115.213 74.4653 114.762 74.5607 114.33C74.6562 113.898 74.8707 113.501 75.18 113.185C75.955 112.3 77.245 112.185 79.445 111.845C80.3234 111.737 81.1948 111.578 82.055 111.37C82.9632 111.03 83.8371 110.605 84.665 110.1C84.9254 109.931 85.2372 109.86 85.545 109.9C85.687 109.948 85.8139 110.032 85.9131 110.144C86.0122 110.257 86.0801 110.393 86.11 110.54C86.1601 110.833 86.1601 111.132 86.11 111.425C86.3881 111.166 86.7574 111.028 87.1369 111.041C87.5165 111.055 87.8754 111.218 88.135 111.495C88.3805 111.787 88.5404 112.142 88.5968 112.52C88.6533 112.897 88.6042 113.283 88.455 113.635C88.1355 114.334 87.6128 114.922 86.955 115.32C84.19 117.19 80.925 116.67 77.825 116.32C77.6785 116.287 77.5256 116.298 77.385 116.35C76.885 116.57 76.795 118.075 76.71 118.51C76.46 119.96 76.22 122.45 75.67 122.46Z" fill="#263238"/>
<path d="M74.64 115.885L72.67 114.78C72.7298 114.643 72.8175 114.521 72.9276 114.42C73.0376 114.32 73.1675 114.244 73.3089 114.196C73.4503 114.149 73.6 114.132 73.7483 114.147C73.8967 114.161 74.0403 114.206 74.17 114.28C74.432 114.443 74.6246 114.697 74.7113 114.993C74.798 115.289 74.7727 115.606 74.64 115.885Z" fill="#263238"/>
<path d="M81.7 129C81.7 129 78.775 128.385 77.75 127.82C77.1416 127.487 76.6482 126.978 76.335 126.36C76.4875 126.981 76.761 127.565 77.14 128.08C77.885 129.08 81.7 129.815 81.7 129.815V129Z" fill="#783736"/>
<path d="M80.64 120.95C80.6433 121.03 80.6308 121.11 80.6032 121.185C80.5756 121.261 80.5335 121.33 80.4791 121.389C80.4248 121.448 80.3594 121.495 80.2866 121.529C80.2138 121.563 80.1351 121.582 80.055 121.585C79.8931 121.576 79.7413 121.504 79.632 121.384C79.5226 121.265 79.4645 121.107 79.47 120.945C79.47 120.79 79.5316 120.641 79.6413 120.531C79.751 120.421 79.8998 120.36 80.055 120.36C80.2101 120.36 80.3589 120.421 80.4686 120.531C80.5783 120.641 80.64 120.79 80.64 120.945V120.95Z" fill="#263238"/>
<path d="M79.635 118.41L78.38 119.13C78.2897 118.952 78.2694 118.746 78.3231 118.554C78.3768 118.361 78.5005 118.196 78.67 118.09C78.7535 118.043 78.8458 118.015 78.9409 118.006C79.0361 117.997 79.1321 118.008 79.2228 118.038C79.3135 118.068 79.397 118.116 79.468 118.18C79.5389 118.245 79.5958 118.323 79.635 118.41Z" fill="#263238"/>
<path d="M81.435 125.345L82.775 125.87C82.7487 125.962 82.7036 126.048 82.6425 126.121C82.5815 126.195 82.5059 126.256 82.4205 126.299C82.3351 126.342 82.2416 126.367 82.146 126.372C82.0505 126.378 81.9548 126.363 81.865 126.33C81.6823 126.25 81.5365 126.105 81.4567 125.922C81.377 125.739 81.3692 125.533 81.435 125.345Z" fill="#783736"/>
<path d="M86.5001 119.11L85.1801 118.47C85.2124 118.38 85.2633 118.299 85.3294 118.23C85.3955 118.162 85.4753 118.108 85.5636 118.073C85.6518 118.038 85.7466 118.021 85.8417 118.025C85.9367 118.029 86.0299 118.053 86.1151 118.095C86.2935 118.186 86.4316 118.341 86.5027 118.528C86.5739 118.716 86.5729 118.923 86.5001 119.11Z" fill="#263238"/>
<path d="M85.635 120.95C85.6426 121.032 85.633 121.114 85.6069 121.192C85.5808 121.27 85.5388 121.341 85.4835 121.402C85.4282 121.462 85.3609 121.511 85.2858 121.544C85.2107 121.577 85.1296 121.594 85.0475 121.594C84.9655 121.594 84.8843 121.577 84.8092 121.544C84.7342 121.511 84.6669 121.462 84.6116 121.402C84.5563 121.341 84.5142 121.27 84.4881 121.192C84.4621 121.114 84.4525 121.032 84.46 120.95C84.4567 120.87 84.4692 120.79 84.4968 120.715C84.5245 120.64 84.5668 120.571 84.6212 120.513C84.6755 120.454 84.741 120.407 84.8138 120.374C84.8865 120.341 84.9651 120.322 85.045 120.32C85.2064 120.326 85.3587 120.396 85.4691 120.514C85.5795 120.632 85.6391 120.788 85.635 120.95Z" fill="#263238"/>
<path d="M82.3099 120.495L82.3749 124.2L84.4799 123.72L82.3099 120.495Z" fill="#783736"/>
<path d="M79.7349 119.42C79.3464 119.42 78.9738 119.574 78.699 119.849C78.4243 120.124 78.2699 120.496 78.2699 120.885C78.2699 121.273 78.4243 121.646 78.699 121.921C78.9738 122.196 79.3464 122.35 79.7349 122.35H79.9999C80.3885 122.35 80.7611 122.196 81.0359 121.921C81.3106 121.646 81.4649 121.273 81.4649 120.885C81.4649 120.496 81.3106 120.124 81.0359 119.849C80.7611 119.574 80.3885 119.42 79.9999 119.42H79.7349ZM77.9999 120.885C77.9959 120.422 78.1758 119.976 78.5001 119.645C78.8244 119.314 79.2667 119.125 79.7299 119.12H79.9999C80.4246 119.176 80.8146 119.384 81.0971 119.706C81.3796 120.028 81.5353 120.442 81.5353 120.87C81.5353 121.298 81.3796 121.712 81.0971 122.034C80.8146 122.356 80.4246 122.564 79.9999 122.62H79.7349C79.2756 122.617 78.8358 122.434 78.511 122.109C78.1862 121.784 78.0026 121.344 77.9999 120.885Z" fill="#263238"/>
<path d="M85 119.42C84.6114 119.42 84.2388 119.574 83.9641 119.849C83.6893 120.124 83.535 120.496 83.535 120.885C83.535 121.273 83.6893 121.646 83.9641 121.921C84.2388 122.196 84.6114 122.35 85 122.35H85.265C85.6535 122.35 86.0261 122.196 86.3009 121.921C86.5756 121.646 86.73 121.273 86.73 120.885C86.73 120.496 86.5756 120.124 86.3009 119.849C86.0261 119.574 85.6535 119.42 85.265 119.42H85ZM83.27 120.885C83.266 120.422 83.4458 119.976 83.7701 119.645C84.0944 119.314 84.5367 119.125 85 119.12H85.265C85.6897 119.176 86.0796 119.384 86.3621 119.706C86.6446 120.028 86.8004 120.442 86.8004 120.87C86.8004 121.298 86.6446 121.712 86.3621 122.034C86.0796 122.356 85.6897 122.564 85.265 122.62H85C84.5432 122.613 84.1073 122.428 83.7857 122.104C83.4641 121.779 83.2825 121.342 83.28 120.885H83.27Z" fill="#263238"/>
<path d="M81.71 120.535C81.8147 120.39 81.9521 120.271 82.111 120.189C82.2699 120.106 82.4459 120.062 82.625 120.06C82.7726 120.044 82.922 120.064 83.0603 120.118C83.1987 120.172 83.3221 120.258 83.42 120.37L83.655 120.19C83.5301 120.038 83.3691 119.919 83.1865 119.845C83.004 119.77 82.8058 119.743 82.61 119.765C82.3829 119.767 82.1598 119.824 81.9596 119.932C81.7594 120.039 81.588 120.192 81.46 120.38L81.71 120.535Z" fill="#263238"/>
<path d="M78.1601 120.52H75.1801V120.815H78.1601V120.52Z" fill="#263238"/>
</svg>
