<svg width="350" height="350" viewBox="0 0 350 350" fill="none" xmlns="http://www.w3.org/2000/svg">
<path d="M287.182 180.6C349.538 216.601 349.867 274.974 287.917 310.982C225.967 346.99 125.181 346.983 62.825 310.982C0.469002 274.981 0.133005 216.58 62.083 180.6C124.033 144.62 224.819 144.571 287.182 180.6Z" fill="#5CE1E6"/>
<path d="M152.6 163.926L145.6 159.887C144.855 159.457 144.01 159.23 143.15 159.23C142.29 159.23 141.445 159.457 140.7 159.887L93.3099 187.25C83.6429 185.815 73.0099 187.25 65.4499 191.646C57.8899 196.042 55.4399 202.146 57.8759 207.704L26.7049 225.701C26.3851 225.885 26.1194 226.15 25.9346 226.47C25.7499 226.789 25.6526 227.152 25.6526 227.521C25.6526 227.89 25.7499 228.253 25.9346 228.572C26.1194 228.892 26.3851 229.157 26.7049 229.341L33.7049 233.373C34.4498 233.803 35.2948 234.029 36.1549 234.029C37.0151 234.029 37.86 233.803 38.6049 233.373L67.6479 216.608C79.1349 222.103 96.1309 221.746 106.848 215.53C117.565 209.314 118.104 199.549 108.703 192.92L152.6 167.559C152.918 167.374 153.182 167.109 153.366 166.791C153.55 166.472 153.646 166.11 153.646 165.742C153.646 165.375 153.55 165.013 153.366 164.694C153.182 164.376 152.918 164.111 152.6 163.926Z" fill="#FFDE59"/>
<path d="M210.357 189.343C221.774 195.937 221.837 206.633 210.49 213.227C199.143 219.821 180.677 219.821 169.253 213.227C157.829 206.633 157.773 195.937 169.12 189.343C180.467 182.749 198.933 182.749 210.357 189.343Z" fill="#FFDE59"/>
<path d="M294.777 225.232C306.201 231.826 306.257 242.515 294.91 249.116C283.563 255.717 265.104 255.71 253.68 249.116C242.256 242.522 242.193 231.826 253.54 225.232C264.887 218.638 283.353 218.631 294.777 225.232Z" fill="#FFDE59"/>
<path d="M134.295 273.595C145.719 280.189 145.782 290.885 134.428 297.479C123.074 304.073 104.622 304.073 93.198 297.479C81.774 290.885 81.711 280.189 93.065 273.595C104.419 267.001 122.871 267.001 134.295 273.595Z" fill="#FFDE59"/>
<path d="M175.266 315.609C170.247 310.485 167.3 295.197 172.193 291.109H197.113C202.013 295.19 199.059 310.443 194.047 315.609L193.907 315.749L193.732 315.917C193.592 316.057 193.438 316.19 193.284 316.323L193.158 316.421C193.039 316.512 192.913 316.61 192.78 316.701C192.647 316.792 192.346 316.995 192.129 317.121C187.999 319.501 181.307 319.501 177.177 317.121C176.953 316.988 176.729 316.848 176.519 316.701C176.309 316.554 176.281 316.526 176.169 316.428L176.022 316.316C175.861 316.19 175.721 316.057 175.581 315.931L175.385 315.728L175.266 315.609Z" fill="#37474F"/>
<path d="M194.922 289.499C200.613 292.782 200.613 298.109 194.922 301.399C189.231 304.689 180.019 304.682 174.335 301.399C168.651 298.116 168.651 292.796 174.335 289.499C180.019 286.202 189.266 286.216 194.922 289.499Z" fill="#455A64"/>
<path d="M192.178 291.081C196.378 293.489 196.378 297.381 192.178 299.831C187.978 302.281 181.237 302.239 177.058 299.831C172.879 297.423 172.858 293.531 177.058 291.081C181.258 288.631 188.013 288.666 192.178 291.081Z" fill="#2E353A"/>
<path d="M177.1 295.225C181.3 292.817 188.041 292.817 192.22 295.225C193.229 295.77 194.088 296.556 194.719 297.514C194.084 298.472 193.22 299.256 192.206 299.796C188.006 302.204 181.265 302.204 177.086 299.796C176.072 299.255 175.212 298.465 174.587 297.5C175.224 296.546 176.087 295.764 177.1 295.225Z" fill="#EBEBEB"/>
<path d="M180.383 285.033C181.125 283.92 182.224 283.066 182.896 281.904C184.296 279.468 182.616 277.088 183.323 274.61C183.507 274.076 183.801 273.587 184.185 273.173C184.57 272.76 185.037 272.431 185.556 272.209C186.598 271.781 187.693 271.496 188.811 271.362C189.409 271.299 189.991 271.133 190.533 270.872C191.177 270.508 191.373 269.871 191.779 269.311C192.243 268.697 192.771 268.133 193.354 267.631C194.483 266.484 196.015 265.821 197.624 265.783C201.012 265.937 200.921 268.856 199.955 271.061C198.989 273.266 198.723 273.98 200.837 276.311C202.951 278.642 202.937 281.449 200.438 283.038C197.939 284.627 196.238 284.844 197.267 287.896C198.156 290.633 198.709 292.964 196.182 295.89C195.39 296.888 194.377 297.69 193.223 298.23C192.069 298.771 190.806 299.036 189.532 299.005C184.478 298.795 180.362 294.7 179.522 289.835C179.219 288.258 179.489 286.624 180.285 285.229L180.383 285.033Z" fill="#5CE1E6"/>
<path opacity="0.3" d="M180.383 285.033C181.125 283.92 182.224 283.066 182.896 281.904C184.296 279.468 182.616 277.088 183.323 274.61C183.507 274.076 183.801 273.587 184.185 273.173C184.57 272.76 185.037 272.431 185.556 272.209C186.598 271.781 187.693 271.496 188.811 271.362C189.409 271.299 189.991 271.133 190.533 270.872C191.177 270.508 191.373 269.871 191.779 269.311C192.243 268.697 192.771 268.133 193.354 267.631C194.483 266.484 196.015 265.821 197.624 265.783C201.012 265.937 200.921 268.856 199.955 271.061C198.989 273.266 198.723 273.98 200.837 276.311C202.951 278.642 202.937 281.449 200.438 283.038C197.939 284.627 196.238 284.844 197.267 287.896C198.156 290.633 198.709 292.964 196.182 295.89C195.39 296.888 194.377 297.69 193.223 298.23C192.069 298.771 190.806 299.036 189.532 299.005C184.478 298.795 180.362 294.7 179.522 289.835C179.219 288.258 179.489 286.624 180.285 285.229L180.383 285.033Z" fill="#5CE1E6"/>
<path opacity="0.3" d="M180.383 285.033C181.125 283.92 182.224 283.066 182.896 281.904C184.296 279.468 182.616 277.088 183.323 274.61C183.507 274.076 183.801 273.587 184.185 273.173C184.57 272.76 185.037 272.431 185.556 272.209C186.598 271.781 187.693 271.496 188.811 271.362C189.409 271.299 189.991 271.133 190.533 270.872C191.177 270.508 191.373 269.871 191.779 269.311C192.243 268.697 192.771 268.133 193.354 267.631C194.483 266.484 196.015 265.821 197.624 265.783C201.012 265.937 200.921 268.856 199.955 271.061C198.989 273.266 198.723 273.98 200.837 276.311C202.951 278.642 202.937 281.449 200.438 283.038C197.939 284.627 196.238 284.844 197.267 287.896C198.156 290.633 198.709 292.964 196.182 295.89C195.39 296.888 194.377 297.69 193.223 298.23C192.069 298.771 190.806 299.036 189.532 299.005C184.478 298.795 180.362 294.7 179.522 289.835C179.219 288.258 179.489 286.624 180.285 285.229L180.383 285.033Z" fill="black"/>
<path d="M197.652 279.006C197.635 278.942 197.595 278.888 197.538 278.854C197.482 278.82 197.415 278.809 197.351 278.824C194.617 279.541 191.966 280.543 189.441 281.813C190.895 277.928 193.002 274.32 195.671 271.145C195.694 271.122 195.713 271.094 195.726 271.063C195.738 271.032 195.745 271 195.745 270.966C195.745 270.933 195.738 270.9 195.726 270.87C195.713 270.839 195.694 270.811 195.671 270.788C195.623 270.744 195.561 270.72 195.496 270.72C195.431 270.72 195.369 270.744 195.321 270.788C193.091 273.423 191.261 276.371 189.889 279.538C189.213 278.051 188.355 276.654 187.334 275.38C187.31 275.356 187.283 275.338 187.252 275.325C187.221 275.312 187.189 275.306 187.155 275.306C187.122 275.306 187.089 275.312 187.059 275.325C187.028 275.338 187 275.356 186.977 275.38C186.954 275.403 186.935 275.43 186.922 275.46C186.91 275.49 186.903 275.522 186.903 275.555C186.903 275.588 186.91 275.62 186.922 275.65C186.935 275.68 186.954 275.707 186.977 275.73C188.063 277.088 188.958 278.588 189.637 280.189C189.35 280.854 189.049 281.554 188.79 282.289C188.749 282.338 188.726 282.4 188.727 282.464C186.893 287.445 185.982 292.718 186.039 298.025C186.038 298.057 186.043 298.089 186.055 298.119C186.066 298.149 186.084 298.177 186.106 298.2C186.128 298.224 186.154 298.242 186.184 298.256C186.213 298.269 186.245 298.276 186.277 298.277H186.361C186.411 298.261 186.455 298.229 186.487 298.186C186.518 298.144 186.535 298.092 186.536 298.039C186.481 292.786 187.385 287.567 189.203 282.639C192.22 280.777 197.463 279.398 197.512 279.377C197.575 279.36 197.63 279.32 197.664 279.263C197.698 279.207 197.709 279.14 197.694 279.076C197.694 279.076 197.659 279.013 197.652 279.006Z" fill="white"/>
<path d="M185.045 299.481C184.905 299.565 183.743 299.971 183.575 300.02C181.713 300.559 179.284 300.272 177.086 299.943C175.644 299.726 173.691 299.425 172.62 298.347C172.34 298.093 172.141 297.763 172.049 297.396C171.957 297.03 171.975 296.645 172.102 296.289C172.438 295.589 173.39 295.12 173.467 294.322C171.892 293.797 170.03 294.21 168.623 293.335C167.604 292.641 166.836 291.637 166.432 290.472C166.093 289.739 166.056 288.902 166.327 288.141C166.705 287.357 167.727 287.168 168.588 287.035C168.818 287.018 169.042 286.954 169.246 286.846C169.347 286.787 169.428 286.7 169.48 286.596C169.532 286.491 169.553 286.374 169.54 286.258C169.47 285.978 169.176 285.838 168.903 285.754C168.315 285.565 167.734 285.453 167.153 285.236C166.577 285.044 166.083 284.661 165.753 284.151C165.454 283.494 165.361 282.762 165.487 282.051C165.587 280.826 165.758 279.609 165.998 278.404C166.166 277.359 166.264 276.305 166.292 275.247C169.341 274.672 172.477 274.744 175.497 275.457C177.163 275.8 179.578 276.577 180.306 278.313C180.495 278.81 180.558 279.347 180.488 279.874C180.451 280.111 180.397 280.345 180.327 280.574C180.292 280.714 180.145 281.274 180.502 281.029C180.577 280.961 180.637 280.877 180.677 280.784L181.846 278.453C181.937 278.209 182.098 277.997 182.308 277.844C182.777 277.55 184.058 277.781 185.36 278.831C186.214 279.585 186.793 280.602 187.005 281.722C187.28 283.501 187.211 285.317 186.802 287.07L187.936 285.488C189.273 283.64 190.092 287.021 190.148 287.749C190.276 290.023 189.916 292.297 189.091 294.42C188.277 296.473 186.868 298.235 185.045 299.481Z" fill="#5CE1E6"/>
<path d="M181.503 290.745C181.615 287.756 182.385 284.828 183.757 282.17V282.114C183.77 282.087 183.778 282.058 183.779 282.029C183.781 281.999 183.777 281.97 183.767 281.942C183.757 281.914 183.742 281.888 183.722 281.866C183.703 281.844 183.679 281.826 183.652 281.813C183.597 281.786 183.534 281.782 183.476 281.802C183.419 281.822 183.371 281.863 183.344 281.918V281.981C182.064 284.484 181.291 287.215 181.069 290.017C177.443 283.913 172.13 278.117 169.337 276.612C169.28 276.582 169.214 276.575 169.152 276.594C169.091 276.612 169.039 276.654 169.008 276.71C168.992 276.736 168.981 276.766 168.976 276.797C168.972 276.827 168.974 276.859 168.981 276.889C168.989 276.919 169.003 276.947 169.022 276.972C169.041 276.996 169.065 277.017 169.092 277.032C171.85 278.53 177.1 284.27 180.67 290.332C177.79 289.119 174.586 288.905 171.57 289.723C171.513 289.742 171.465 289.783 171.438 289.837C171.411 289.89 171.405 289.952 171.423 290.01C171.437 290.049 171.461 290.084 171.493 290.111C171.525 290.138 171.564 290.157 171.605 290.164H171.717C174.829 289.326 178.139 289.629 181.048 291.018C182.61 293.563 183.703 296.368 184.275 299.299C184.28 299.344 184.298 299.388 184.326 299.423C184.355 299.459 184.393 299.487 184.436 299.502H184.548C184.609 299.493 184.663 299.461 184.701 299.413C184.739 299.365 184.757 299.304 184.751 299.243C184.415 296.618 183.169 293.664 181.503 290.745Z" fill="white"/>
<path d="M86.3169 213.045V219.016C86.3169 219.295 86.4275 219.562 86.6244 219.759C86.8213 219.955 87.0884 220.066 87.3669 220.066C87.6454 220.066 87.9124 219.955 88.1094 219.759C88.3063 219.562 88.4169 219.295 88.4169 219.016V213.045H86.3169Z" fill="#5CE1E6"/>
<path d="M88.4098 184.667C88.4098 184.389 88.2992 184.122 88.1023 183.925C87.9054 183.728 87.6383 183.617 87.3598 183.617C87.0813 183.617 86.8143 183.728 86.6174 183.925C86.4204 184.122 86.3098 184.389 86.3098 184.667V213.045H88.4098V184.667Z" fill="#263238"/>
<path d="M90.9509 182.658C90.8517 182.551 90.7314 182.466 90.5976 182.408C90.4637 182.351 90.3193 182.321 90.1735 182.322C90.0278 182.323 89.8838 182.355 89.7508 182.415C89.6179 182.474 89.4988 182.561 89.4012 182.67C89.3037 182.778 89.2297 182.905 89.1841 183.044C89.1385 183.182 89.1222 183.329 89.1363 183.474C89.1503 183.619 89.1945 183.76 89.2659 183.887C89.3373 184.014 89.4343 184.125 89.5509 184.212L108.451 201.25L109.942 199.766L90.9509 182.658Z" fill="#263238"/>
<path d="M113.246 202.79L109.9 199.766L108.409 201.25L111.839 204.344C112.031 204.518 112.28 204.616 112.539 204.617C112.686 204.616 112.832 204.586 112.966 204.527C113.101 204.468 113.223 204.382 113.323 204.274C113.508 204.066 113.604 203.794 113.589 203.516C113.575 203.238 113.451 202.978 113.246 202.79Z" fill="#5CE1E6"/>
<path d="M61.4809 202.79C61.2754 202.978 61.1521 203.238 61.1377 203.516C61.1232 203.794 61.2189 204.066 61.4039 204.274C61.5043 204.382 61.6256 204.468 61.7604 204.527C61.8953 204.586 62.0408 204.616 62.1879 204.617C62.447 204.616 62.6963 204.518 62.8879 204.344L66.3179 201.25L64.8339 199.766L61.4809 202.79Z" fill="#5CE1E6"/>
<path d="M85.26 182.735C85.1682 182.632 85.0567 182.547 84.9321 182.488C84.8075 182.428 84.6722 182.393 84.5341 182.386C84.396 182.379 84.2579 182.399 84.1277 182.446C83.9976 182.493 83.878 182.565 83.776 182.658L64.834 199.766L66.318 201.25L85.218 184.212C85.4182 184.021 85.5349 183.759 85.5428 183.482C85.5506 183.206 85.449 182.937 85.26 182.735Z" fill="#263238"/>
<path d="M93.541 182.035H81.2V185.612C81.2 186.529 81.816 187.446 83.027 188.146C84.3806 188.833 85.8771 189.191 87.3949 189.191C88.9128 189.191 90.4093 188.833 91.7629 188.146C92.9599 187.446 93.5619 186.529 93.5549 185.612L93.541 182.035Z" fill="#37474F"/>
<path d="M91.6998 179.508C94.1148 180.908 94.1288 183.169 91.6998 184.562C90.3472 185.252 88.8503 185.612 87.3318 185.612C85.8134 185.612 84.3165 185.252 82.9638 184.562C80.5418 183.162 80.5278 180.901 82.9638 179.508C84.3168 178.819 85.8136 178.46 87.3318 178.46C88.8501 178.46 90.3469 178.819 91.6998 179.508Z" fill="#455A64"/>
<path d="M85.6169 51.2471V181.657C85.634 181.808 85.6901 181.952 85.7797 182.075C85.8693 182.198 85.9893 182.295 86.1279 182.357C86.5114 182.554 86.9361 182.656 87.3669 182.656C87.7978 182.656 88.2225 182.554 88.6059 182.357C88.7445 182.296 88.8642 182.198 88.9528 182.075C89.0414 181.952 89.0956 181.808 89.1099 181.657V51.2471H85.6169Z" fill="#263238"/>
<path d="M30.2119 81.592V193.816L143.514 128.408V15.687L30.2119 81.592Z" fill="#455A64"/>
<path d="M34.405 84L139.314 22.988V125.979L34.405 186.55V84Z" fill="#FAFAFA"/>
<path d="M33.4039 79.8001C34.3279 80.4016 35.0966 81.2128 35.6477 82.1677C36.1987 83.1226 36.5164 84.1942 36.5749 85.2951C36.5749 87.3111 35.1749 88.0951 33.3829 87.1081C32.459 86.5066 31.6902 85.6954 31.1391 84.7405C30.5881 83.7856 30.2704 82.714 30.2119 81.6131C30.2189 79.5691 31.6469 78.7571 33.4039 79.8001Z" fill="#263238"/>
<path d="M150.5 19.061C150.5 19.005 150.5 18.956 150.5 18.907C150.5 18.858 150.5 18.858 150.5 18.837V18.802C150.5 18.802 150.5 18.767 150.5 18.746C150.503 18.6948 150.503 18.6433 150.5 18.592C150.503 18.5384 150.503 18.4847 150.5 18.431C150.503 18.3798 150.503 18.3283 150.5 18.277C150.5 18.221 150.5 18.172 150.5 18.116C150.497 18.0952 150.497 18.0739 150.5 18.053V18.018V17.948L150.458 17.78C150.443 17.739 150.431 17.6969 150.423 17.654V17.612C150.423 17.556 150.423 17.5 150.367 17.444C150.351 17.3893 150.333 17.3356 150.311 17.283V17.185L150.248 17.031C150.248 16.989 150.213 16.954 150.199 16.919V16.8C150.173 16.7501 150.149 16.6987 150.129 16.646L150.045 16.478C150.045 16.429 149.996 16.387 149.975 16.345L149.884 16.177L149.835 16.1V16.065L149.744 15.925L149.618 15.722C149.555 15.624 149.485 15.533 149.415 15.435C149.366 15.372 149.324 15.309 149.275 15.253L149.156 15.106L149.037 14.959L148.911 14.826L148.82 14.735L148.687 14.602L148.645 14.567L148.575 14.504L148.435 14.378L148.372 14.329L148.323 14.294L148.183 14.182L148.078 14.112L147.945 14.028L147.812 13.944H147.777L147.679 13.888L147.546 13.818H147.462L147.329 13.762L147.203 13.713H147.161H147.077L146.944 13.678H146.881H146.811C146.764 13.6742 146.718 13.6742 146.671 13.678H146.587H146.216L145.6 13.3H145.558L145.376 13.349L145.138 13.461L31.136 79.548C31.2128 79.5009 31.2951 79.4633 31.381 79.4361C31.444 79.41 31.5097 79.3913 31.577 79.3801H31.815H31.871C31.9502 79.373 32.0298 79.373 32.109 79.3801L32.375 79.415L32.655 79.499L32.956 79.625L33.271 79.793C33.376 79.849 33.481 79.919 33.586 79.989C33.684 80.059 33.782 80.1291 33.873 80.206C33.964 80.2831 34.055 80.36 34.139 80.444H34.174L34.44 80.7101C34.531 80.8081 34.622 80.913 34.706 81.018C34.79 81.123 34.881 81.235 34.965 81.354C35.042 81.452 35.112 81.564 35.189 81.669L35.315 81.872L35.42 82.0471C35.4337 82.0765 35.4501 82.1046 35.469 82.1311L35.63 82.425V82.4601C35.693 82.579 35.749 82.705 35.805 82.831C35.854 82.957 35.91 83.076 35.952 83.202C36.001 83.328 36.043 83.454 36.085 83.58C36.125 83.6993 36.1577 83.8208 36.183 83.944C36.183 84.07 36.232 84.196 36.253 84.315C36.253 84.441 36.288 84.567 36.302 84.693C36.302 84.819 36.302 84.938 36.302 85.064C36.302 85.19 36.302 85.2951 36.302 85.4071C36.2954 85.506 36.2813 85.6042 36.26 85.701V85.743C36.26 85.834 36.218 85.918 36.19 86.002C36.1941 86.0181 36.1941 86.035 36.19 86.051C36.1639 86.1274 36.1335 86.2022 36.099 86.275C36.057 86.359 36.015 86.4361 35.973 86.5061L35.847 86.667L35.798 86.723C35.798 86.765 35.721 86.8 35.679 86.842L35.63 86.884C35.5714 86.9324 35.5081 86.9746 35.441 87.01L149.597 21.245C149.66 21.2047 149.721 21.1603 149.779 21.112L149.828 21.07L149.947 20.958L149.996 20.902C150.042 20.8515 150.084 20.7977 150.122 20.741C150.168 20.6712 150.21 20.5987 150.248 20.524C150.27 20.4763 150.288 20.4272 150.304 20.377C150.306 20.3514 150.306 20.3257 150.304 20.3C150.306 20.2838 150.306 20.2673 150.304 20.251C150.307 20.2372 150.307 20.2229 150.304 20.209C150.324 20.1572 150.338 20.1032 150.346 20.048C150.349 20.0272 150.349 20.0059 150.346 19.985V19.88C150.346 19.88 150.346 19.838 150.346 19.817V19.67C150.349 19.6398 150.349 19.6093 150.346 19.579V19.516C150.346 19.467 150.346 19.418 150.346 19.362V19.208L150.5 19.061Z" fill="#37474F"/>
<path d="M43.176 111.846L54.376 112.812L54.418 127.666C47.278 131.789 41.475 128.485 41.447 120.274C41.5025 117.383 42.0885 114.526 43.176 111.846Z" fill="#5CE1E6"/>
<path d="M60.8439 96.187C64.7009 96.537 67.3049 99.834 67.3189 105.329C67.3189 113.54 61.5719 123.529 54.4319 127.666L54.3899 112.798L60.7879 96.271L60.8439 96.187Z" fill="#5CE1E6"/>
<path d="M54.3479 97.958C56.2763 96.7265 58.5369 96.1179 60.8229 96.215V96.299L54.3899 112.812L43.1899 111.846C45.4019 106.12 49.5669 100.716 54.3479 97.958Z" fill="#5CE1E6"/>
<g opacity="0.2">
<path d="M54.3479 97.958C56.2763 96.7265 58.5369 96.1179 60.8229 96.215V96.299L54.3899 112.812L43.1899 111.846C45.4019 106.12 49.5669 100.716 54.3479 97.958Z" fill="white"/>
</g>
<path d="M43.176 111.846L54.376 112.812L54.418 127.666C47.278 131.789 41.475 128.485 41.447 120.274C41.5025 117.383 42.0885 114.526 43.176 111.846Z" fill="#5CE1E6"/>
<path d="M48.2929 153.573L48.2999 156.016L41.5729 159.894L41.5659 157.458L48.2929 153.573Z" fill="#E0E0E0"/>
<path d="M51.3588 142.037L51.3658 144.473L41.5448 150.143L41.5378 147.707L51.3588 142.037Z" fill="#E0E0E0"/>
<path d="M63.245 140.063L63.252 142.499L41.559 155.022L41.552 152.579L63.245 140.063Z" fill="#E0E0E0"/>
<path d="M98.574 114.779L98.581 117.215L78.519 128.793L78.512 126.357L98.574 114.779Z" fill="#E0E0E0"/>
<g opacity="0.1">
<path d="M60.8439 96.187C64.7009 96.537 67.3049 99.834 67.3189 105.329C67.3189 113.54 61.5719 123.529 54.4319 127.666L54.3899 112.798L60.7879 96.271L60.8439 96.187Z" fill="black"/>
</g>
<path d="M76.4188 85.218C77.4968 84.595 78.3718 85.092 78.3788 86.331C78.3428 87.0086 78.1471 87.6681 77.8077 88.2557C77.4683 88.8432 76.9948 89.3423 76.4258 89.712C75.3478 90.335 74.4728 89.831 74.4658 88.592C74.5013 87.9152 74.6968 87.2565 75.0363 86.67C75.3758 86.0835 75.8496 85.5858 76.4188 85.218Z" fill="#5CE1E6"/>
<path d="M76.4398 92.96C77.5178 92.337 78.3928 92.834 78.3998 94.08C78.3635 94.7558 78.1683 95.4135 77.8302 95.9997C77.4921 96.5859 77.0205 97.0842 76.4538 97.454C75.3688 98.077 74.4938 97.58 74.4868 96.334C74.5228 95.6574 74.7186 94.9989 75.058 94.4124C75.3975 93.826 75.871 93.3283 76.4398 92.96Z" fill="#5CE1E6"/>
<path d="M76.4608 100.702C77.5388 100.079 78.4208 100.583 78.4208 101.822C78.3861 102.498 78.1917 103.157 77.8534 103.743C77.5152 104.329 77.0427 104.827 76.4748 105.196C75.3898 105.826 74.5148 105.315 74.5078 104.076C74.5438 103.399 74.7396 102.741 75.079 102.154C75.4185 101.568 75.892 101.07 76.4608 100.702Z" fill="#5CE1E6"/>
<path d="M76.4819 108.444C77.5599 107.821 78.4419 108.325 78.4419 109.564C78.4072 110.24 78.2128 110.898 77.8745 111.485C77.5362 112.071 77.0638 112.569 76.4959 112.938C75.4109 113.561 74.5359 113.064 74.5359 111.825C74.57 111.148 74.7642 110.488 75.1025 109.901C75.4407 109.313 75.9134 108.814 76.4819 108.444Z" fill="#5CE1E6"/>
<path d="M87.4298 79.8141L87.4368 82.3901L81.0038 86.1071L80.9968 83.5241L87.4298 79.8141Z" fill="#E0E0E0"/>
<path d="M96.019 74.8511L96.026 77.4341L89.6 81.1441L89.593 78.5681L96.019 74.8511Z" fill="#E0E0E0"/>
<path d="M98.5179 96.6841L98.5249 99.2601L89.2709 104.608L89.2639 102.025L98.5179 96.6841Z" fill="#E0E0E0"/>
<path d="M92.8478 92.197L92.8548 94.78L81.0458 101.598L81.0388 99.015L92.8478 92.197Z" fill="#E0E0E0"/>
<path d="M89.1518 86.576L89.1588 89.1521L81.0248 93.8491L81.0178 91.273L89.1518 86.576Z" fill="#E0E0E0"/>
<path d="M87.4929 103.047L87.4999 105.63L81.0739 109.34L81.0669 106.764L87.4929 103.047Z" fill="#E0E0E0"/>
<path d="M68.439 141.946L68.446 144.382L51.716 154.042L51.709 151.599L68.439 141.946Z" fill="#E0E0E0"/>
<path d="M59.675 132.349L59.689 134.792L41.538 145.271L41.531 142.828L59.675 132.349Z" fill="#E0E0E0"/>
<path d="M98.5879 119.658L98.5949 122.094L89.6559 127.253L89.6489 124.817L98.5879 119.658Z" fill="#E0E0E0"/>
<path d="M98.6019 124.53L98.6089 126.973L86.4289 134.001L86.4219 131.558L98.6019 124.53Z" fill="#E0E0E0"/>
<path d="M115.71 104.881L115.717 107.317L105.896 112.987L105.889 110.551L115.71 104.881Z" fill="#E0E0E0"/>
<path d="M131.649 95.6831L131.656 98.1191L118.475 105.728L118.468 103.292L131.649 95.6831Z" fill="#E0E0E0"/>
<path d="M115.017 72.926L115.08 94.864L111.405 96.992L111.342 75.047L115.017 72.926Z" fill="#5CE1E6"/>
<path d="M120.54 73.395L120.596 91.686L116.921 93.807L116.865 75.523L120.54 73.395Z" fill="#5CE1E6"/>
<path d="M126.028 61.9711L126.105 88.5011L122.43 90.6221L122.353 64.0921L126.028 61.9711Z" fill="#5CE1E6"/>
<path d="M131.53 54.229L131.621 85.316L127.946 87.437L127.855 56.357L131.53 54.229Z" fill="#5CE1E6"/>
<path d="M112.637 116.424L112.644 118.867L105.924 122.745L105.917 120.302L112.637 116.424Z" fill="#E0E0E0"/>
<path d="M83.006 133.532V135.975L71.862 142.408L71.855 139.972L83.006 133.532Z" fill="#E0E0E0"/>
<path d="M86.2329 126.791V129.227L66.6679 140.525L66.6609 138.089L86.2329 126.791Z" fill="#E0E0E0"/>
<path d="M77.1119 122.283L77.1189 124.726L63.1049 132.811L63.0979 130.375L77.1119 122.283Z" fill="#E0E0E0"/>
<path d="M75.089 128.338L75.096 130.774L54.789 142.499L54.782 140.063L75.089 128.338Z" fill="#E0E0E0"/>
<path d="M131.677 105.434L131.684 107.87L116.067 116.886L116.06 114.45L131.677 105.434Z" fill="#E0E0E0"/>
<path d="M131.663 100.562L131.67 102.998L105.91 117.866L105.903 115.43L131.663 100.562Z" fill="#E0E0E0"/>
<path d="M124.026 95.1931L124.033 97.6361L105.882 108.115L105.875 105.679L124.026 95.1931Z" fill="#E0E0E0"/>
<path d="M131.621 87.15L131.628 88.424L105.903 103.278L105.896 101.997L131.621 87.15Z" fill="#395A65"/>
<path d="M109.529 85.155L109.571 98.049L105.896 100.17L105.854 87.276L109.529 85.155Z" fill="#5CE1E6"/>
<path d="M302.204 130.802C301.189 142.072 302.057 143.227 294.399 142.653V130.802H302.204Z" fill="#F28F8F"/>
<path d="M293.895 110.6C300.685 110.166 306.32 112.483 302.708 131.908C299.383 133.714 293.895 132.713 293.895 132.713V110.6Z" fill="#37474F"/>
<path d="M281.344 242.844C280.861 244.37 279.188 245.245 277.592 245.371C275.996 245.497 274.421 245.049 272.846 244.762C269.346 244.125 265.923 244.762 262.409 244.678C261.262 244.684 260.118 244.558 259 244.3C257.864 244.043 256.836 243.439 256.06 242.571C255.62 242.044 255.33 241.408 255.22 240.73C255.148 241.242 255.185 241.763 255.33 242.259C255.475 242.755 255.724 243.215 256.06 243.607C256.84 244.471 257.866 245.074 259 245.336C260.125 245.593 261.276 245.717 262.43 245.707C265.93 245.791 269.346 245.154 272.867 245.798C274.442 246.078 276.017 246.498 277.613 246.4C279.209 246.302 280.882 245.406 281.365 243.88C281.515 243.353 281.558 242.8 281.491 242.256C281.46 242.456 281.41 242.653 281.344 242.844Z" fill="#263238"/>
<path d="M281.253 239.925C281.036 238.861 280.819 237.79 280.609 236.726C280.526 236.154 280.341 235.602 280.063 235.095C279.922 234.847 279.719 234.641 279.473 234.497C279.227 234.353 278.948 234.277 278.663 234.276C276.738 234.024 274.022 233.324 272.419 234.43C269.883 236.164 266.859 237.042 263.788 236.936C262.192 236.873 260.596 236.544 259.007 236.74C257.418 236.936 255.78 237.818 255.304 239.344C255.171 239.799 255.145 240.278 255.227 240.744C255.337 241.422 255.627 242.058 256.067 242.585C256.843 243.447 257.868 244.046 259 244.3C260.125 244.559 261.276 244.686 262.43 244.678C265.93 244.762 269.346 244.125 272.867 244.762C274.442 245.049 276.017 245.462 277.613 245.371C279.209 245.28 280.882 244.37 281.365 242.844C281.424 242.652 281.466 242.455 281.491 242.256C281.534 241.471 281.454 240.685 281.253 239.925Z" fill="#37474F"/>
<path d="M271.922 231.07L271.782 235.27C271.766 235.698 271.917 236.115 272.203 236.434C272.489 236.752 272.888 236.947 273.315 236.978C274.714 237.079 276.118 237.065 277.515 236.936C278.082 236.885 278.611 236.63 279.006 236.22C279.401 235.81 279.634 235.271 279.664 234.703L279.832 231.623L271.922 231.07Z" fill="#FFA8A7"/>
<path d="M299.159 228.851C299.144 229.469 298.949 230.07 298.599 230.58C298.104 231.181 297.403 231.575 296.632 231.686C295.709 231.845 294.76 231.741 293.893 231.386C293.026 231.031 292.277 230.438 291.732 229.677C291.207 228.914 290.913 228.018 290.416 227.241C289.661 226.203 288.733 225.303 287.672 224.581C286.615 223.855 285.683 222.961 284.914 221.935C284.551 221.43 284.314 220.846 284.221 220.232C284.129 219.617 284.184 218.989 284.382 218.4C284.286 218.542 284.201 218.692 284.13 218.848C283.895 219.466 283.817 220.133 283.903 220.789C283.988 221.445 284.235 222.069 284.62 222.607C285.396 223.663 286.342 224.583 287.42 225.33C288.506 226.077 289.454 227.008 290.22 228.081C290.724 228.879 291.032 229.803 291.564 230.587C292.113 231.372 292.873 231.987 293.756 232.358C294.639 232.73 295.61 232.844 296.555 232.687C297.343 232.569 298.059 232.163 298.564 231.546C299.016 230.831 299.22 229.987 299.145 229.145C299.173 229.033 299.166 228.942 299.159 228.851Z" fill="#263238"/>
<path d="M297.899 223.615C296.625 221.396 294.014 219.779 291.991 218.204C290.89 217.244 289.532 216.626 288.085 216.426C287.362 216.34 286.63 216.471 285.981 216.803C285.333 217.134 284.798 217.651 284.445 218.288C284.445 218.323 284.445 218.365 284.396 218.4C284.198 218.989 284.143 219.617 284.236 220.232C284.328 220.846 284.565 221.43 284.928 221.935C285.697 222.961 286.629 223.855 287.686 224.581C288.747 225.303 289.675 226.203 290.43 227.241C290.927 228.018 291.221 228.914 291.746 229.677C292.291 230.438 293.04 231.031 293.907 231.386C294.774 231.741 295.723 231.845 296.646 231.686C297.417 231.575 298.118 231.181 298.613 230.58C298.963 230.07 299.158 229.469 299.173 228.851C299.184 228.65 299.184 228.449 299.173 228.249C299.14 226.622 298.702 225.03 297.899 223.615Z" fill="#37474F"/>
<path d="M292.397 221.69V225.484C293.329 225.92 294.352 226.124 295.38 226.077C296.408 226.031 297.409 225.736 298.298 225.218L298.655 221.809L292.397 221.69Z" fill="#FFA8A7"/>
<path d="M299.649 152.901C300.783 156.31 299.383 172.501 298.725 188.062C301.189 193.942 300.524 210.623 299.103 222.474C299.103 222.474 296.639 223.986 292.18 222.474L286.58 189.77L285.81 171.283C285.81 171.283 284.41 187.684 282.793 198.205C284.305 206.262 283.927 207.781 280.182 232.561C278.879 233.217 277.441 233.559 275.982 233.559C274.523 233.559 273.085 233.217 271.782 232.561C269.682 197.743 270.445 166.012 270.844 154.602L299.649 152.901Z" fill="#455A64"/>
<path d="M270.2 126.735V155.554C287.168 162.659 298.158 156.254 299.656 152.901C298.872 141.169 301.644 127.449 301.434 121.618C301.224 115.787 300.503 109.221 291.466 110.537L281.855 111.475L276.955 112.658L270.2 126.735Z" fill="#5CE1E6"/>
<path d="M276.136 89.054C274.078 88.277 272.062 85.316 274.127 84.014C274.701 83.587 276.374 84.084 277.725 84.014C276.542 82.943 276.255 81.662 276.85 81.263C277.445 80.864 279.034 82.376 281.911 82.089C284.788 81.802 294.707 78.589 295.953 85.862C296.094 85.6124 296.29 85.3979 296.526 85.2347C296.762 85.0714 297.032 84.9636 297.315 84.9191C297.598 84.8747 297.888 84.8949 298.163 84.9781C298.437 85.0614 298.689 85.2056 298.9 85.4L296.8 86.8C299.859 91.098 298.865 96.075 291.459 105.91C290.6 106.961 289.379 107.653 288.036 107.85C286.693 108.047 285.325 107.734 284.2 106.974L281.141 99.435L278.159 95.8089L276.136 89.054Z" fill="#263238"/>
<path d="M275.45 95.074L273.462 98.539L275.639 99.344L275.45 95.074Z" fill="#F28F8F"/>
<path d="M276.136 89.054C274.815 93.8446 274.621 98.8758 275.569 103.754C275.673 104.595 275.986 105.396 276.479 106.085C277.138 106.79 278.048 107.207 279.013 107.247C279.966 107.281 280.919 107.19 281.848 106.974V111.475C285.264 112.28 288.778 112.602 291.459 110.537V105.931C289.53 106.549 287.478 106.676 285.488 106.302C283.129 105.028 282.688 100.702 282.989 99.582C283.199 99.8597 283.487 100.069 283.815 100.184C284.144 100.298 284.5 100.313 284.837 100.226C285.162 100.137 285.465 99.9837 285.728 99.7743C285.992 99.5649 286.21 99.3042 286.37 99.008C286.681 98.4138 286.874 97.7647 286.937 97.097C287.108 96.2896 286.984 95.4477 286.587 94.724C286.286 94.3192 285.869 94.0159 285.391 93.8546C284.913 93.6932 284.398 93.6815 283.913 93.821C283.433 93.9718 282.988 94.2158 282.602 94.5389C282.217 94.862 281.898 95.2579 281.666 95.704C281.508 95.9786 281.374 96.2667 281.267 96.565C281.228 96.6822 281.15 96.7823 281.045 96.8481C280.941 96.9139 280.817 96.9413 280.694 96.9256C280.572 96.9098 280.458 96.852 280.374 96.7619C280.289 96.6719 280.239 96.5552 280.231 96.432C280.116 95.1363 280.358 93.8339 280.931 92.666C280.541 92.626 280.165 92.499 279.83 92.2943C279.496 92.0895 279.212 91.8122 278.999 91.483C278.774 91.1756 278.624 90.8203 278.559 90.445C278.495 90.0697 278.518 89.6846 278.628 89.32C277.788 89.377 276.945 89.287 276.136 89.054Z" fill="#FFA8A7"/>
<path opacity="0.2" d="M286.3 182.539L285.67 167.468C289.562 167.468 293.181 164.556 295.925 161.798C293.286 166.502 288.169 168.588 288.169 168.588L286.3 182.539Z" fill="black"/>
<path d="M270.2 147.224V138.824L273.091 133.364L264.376 127.946L259.77 137.284C259.4 138.033 259.199 138.855 259.183 139.69C259.168 140.526 259.337 141.354 259.678 142.117C260.02 142.879 260.526 143.557 261.16 144.101C261.795 144.645 262.541 145.042 263.347 145.264L270.2 147.224Z" fill="#FFA8A7"/>
<path d="M270.193 138.831L267.218 143.199L270.193 141.953V138.831Z" fill="#F28F8F"/>
<path d="M276.969 112.658L274.771 112.973C273.28 113.188 271.868 113.781 270.67 114.695C269.472 115.609 268.527 116.814 267.925 118.195L263.249 128.982C266.854 134.729 273.791 134.295 273.791 134.295L278.523 125.139C279.546 123.15 279.945 120.899 279.668 118.679C279.391 116.46 278.45 114.376 276.969 112.7V112.658Z" fill="#37474F"/>
<path d="M223.412 96.432L225.75 94.696C226.479 94.1565 227.031 93.4137 227.339 92.561L227.892 91.042C228.277 89.9973 228.958 89.0875 229.852 88.424C231.188 87.4322 232.392 86.275 233.436 84.98C233.772 85.3466 233.97 85.8178 233.998 86.314C234.026 86.8102 233.882 87.3009 233.59 87.703C233.162 88.2828 232.694 88.8324 232.19 89.348L233.478 89.432C234.408 89.499 235.335 89.2739 236.131 88.788L239.4 86.8C239.494 86.7433 239.601 86.7124 239.711 86.7104C239.821 86.7084 239.929 86.7354 240.025 86.7887C240.121 86.842 240.201 86.9196 240.257 87.0138C240.313 87.1079 240.344 87.2153 240.345 87.325C240.299 88.9443 239.98 90.5442 239.4 92.057C239.133 92.777 238.713 93.4306 238.169 93.9731C237.625 94.5156 236.971 94.9342 236.25 95.2C234.514 95.865 232.827 96.439 231.861 96.761C231.311 96.9448 230.794 97.2141 230.328 97.559L226.891 100.1L223.412 96.432Z" fill="#FFA8A7"/>
<path d="M225.953 94.1709L222.999 96.0749C223.095 97.1748 223.503 98.2242 224.177 99.0988C224.851 99.9735 225.761 100.637 226.8 101.01L229.509 98.4479C229.509 98.4479 226.898 98.0419 225.953 94.1709Z" fill="#37474F"/>
<path d="M224.098 98.9939C223.478 98.1363 223.099 97.1285 222.999 96.0749L213.773 102.032L208.327 86.7999C207.969 85.803 207.343 84.924 206.518 84.2596C205.693 83.5952 204.701 83.1711 203.651 83.0339L200.991 82.6909L203.469 100.534L207.711 109.039C208.091 109.8 208.637 110.466 209.31 110.986C209.982 111.507 210.764 111.87 211.596 112.048C212.427 112.225 213.289 112.213 214.115 112.012C214.942 111.811 215.712 111.427 216.37 110.887L226.8 101.01C225.723 100.615 224.784 99.9141 224.098 98.9939Z" fill="#455A64"/>
<path d="M212.8 198.758C212.229 199.308 211.551 199.733 210.807 200.006C210.064 200.28 209.272 200.396 208.481 200.347C206.903 200.241 205.357 199.852 203.917 199.199C202.461 198.597 200.627 196.917 199.017 196.945C197.474 196.935 195.934 196.83 194.404 196.63C194.348 194.527 194.567 192.426 195.055 190.379L202.426 190.183C204.414 192.906 208.285 195.174 211.211 196.028C211.661 196.155 212.068 196.401 212.389 196.742C212.71 197.082 212.931 197.503 213.031 197.96C213.035 197.976 213.035 197.993 213.031 198.009C212.989 198.268 212.912 198.52 212.8 198.758Z" fill="#455A64"/>
<path d="M199.017 196.945C200.599 196.945 202.433 198.597 203.917 199.199C205.357 199.852 206.903 200.241 208.481 200.347C209.272 200.396 210.064 200.28 210.807 200.006C211.551 199.733 212.229 199.308 212.8 198.758C212.919 198.522 213.004 198.269 213.052 198.009C213.056 197.993 213.056 197.976 213.052 197.96C213.122 198.285 213.122 198.622 213.052 198.947C213.002 199.207 212.917 199.459 212.8 199.696C212.228 200.243 211.549 200.666 210.806 200.939C210.063 201.213 209.271 201.33 208.481 201.285C206.902 201.18 205.356 200.788 203.917 200.13C202.461 199.528 200.627 197.848 199.017 197.883C197.498 197.895 195.981 197.806 194.474 197.617C194.439 197.288 194.418 196.959 194.404 196.63C195.934 196.83 197.474 196.935 199.017 196.945Z" fill="#263238"/>
<path d="M178.213 199.451C178.208 200.201 178.28 200.949 178.43 201.684C178.667 202.994 179.399 204.162 180.474 204.946C181.464 205.511 182.583 205.81 183.722 205.814C184.724 205.917 185.737 205.812 186.697 205.506C187.417 205.249 188.029 204.755 188.433 204.106C188.437 204.117 188.437 204.13 188.433 204.141C188.294 204.627 188.039 205.072 187.691 205.438C187.342 205.803 186.91 206.079 186.431 206.241C185.474 206.55 184.463 206.655 183.463 206.549C182.323 206.546 181.204 206.247 180.215 205.681C179.141 204.898 178.41 203.733 178.171 202.426C178.019 201.689 177.944 200.938 177.947 200.186C177.945 199.673 177.838 199.166 177.632 198.697C177.426 198.227 177.126 197.805 176.75 197.456C176.568 197.281 176.393 197.106 176.232 196.917C176.116 196.785 176.027 196.631 175.972 196.463C175.916 196.296 175.895 196.12 175.91 195.944C175.91 195.804 175.91 195.664 175.952 195.531C176.225 195.846 176.862 196.602 177.023 196.756C177.392 197.102 177.687 197.52 177.892 197.983C178.096 198.446 178.206 198.945 178.213 199.451Z" fill="#263238"/>
<path d="M183.848 191.667C183.607 193.201 183.806 194.771 184.422 196.196C185.042 197.611 185.85 198.937 186.823 200.137C187.298 200.707 187.718 201.321 188.076 201.971C188.428 202.611 188.554 203.351 188.433 204.071C188.029 204.72 187.417 205.214 186.697 205.471C185.737 205.777 184.724 205.882 183.722 205.779C182.583 205.775 181.464 205.476 180.474 204.911C179.399 204.127 178.667 202.959 178.43 201.649C178.28 200.914 178.208 200.166 178.213 199.416C178.209 198.904 178.101 198.397 177.896 197.928C177.69 197.458 177.391 197.036 177.016 196.686C176.855 196.532 176.218 195.776 175.945 195.461C176.095 194.344 176.471 193.27 177.051 192.304L183.848 191.667Z" fill="#455A64"/>
<path d="M205.618 118.867L205.009 160.909L203.021 190.309C198.002 193.487 194.362 190.883 194.362 190.883C192.458 176.946 192.199 168.378 193.242 162.575L192.29 139.888L189.427 163.436L184.625 192.311C179.473 195.65 175.833 192.311 175.833 192.311C175.833 181.622 174.881 169.673 177.828 161.966C176.569 147.728 177.039 133.391 179.228 119.266L205.618 118.867Z" fill="#263238"/>
<path opacity="0.3" d="M193.34 131.25L192.29 139.909L192.731 150.535L194.67 133.035C199.15 131.278 199.731 128.835 199.731 128.835C197.837 130.163 195.639 130.993 193.34 131.25Z" fill="black"/>
<path d="M196.077 82.1589L200.977 82.6769C205.002 86.2259 207.081 93.6739 206.213 101.899C205.68 107.538 205.477 113.204 205.604 118.867C194.698 126.833 180.929 121.037 179.2 119.301L180.005 109.221C180.096 108.085 179.909 106.943 179.459 105.896C178.423 103.502 176.589 98.7979 176.344 95.1439C176.195 91.8943 176.879 88.6605 178.332 85.7499L185.5 82.6349L196.077 82.1589Z" fill="#37474F"/>
<path d="M179.473 105.896C178.124 102.888 177.13 99.7331 176.512 96.495C177.527 97.104 178.612 97.706 179.018 98.721C180.362 101.976 180.712 105.557 180.026 109.011C180.082 107.944 179.893 106.879 179.473 105.896Z" fill="#37474F"/>
<path d="M197.442 89.3269C199.965 95.4125 201.337 101.914 201.488 108.5L199.5 112.875L196.329 108.717C196.574 102.345 196.445 95.9639 195.944 89.6069L197.442 89.3269Z" fill="#5CE1E6"/>
<path d="M197.61 85.75C197.698 86.9447 197.642 88.1458 197.442 89.327C196.966 89.5579 196.436 89.6547 195.909 89.607C194.943 88.7495 194.114 87.7484 193.452 86.639L195.909 85.75H197.61Z" fill="#5CE1E6"/>
<path d="M195.909 85.75C193.809 86.534 191.912 90.3 191.912 90.3C186.354 85.582 185.493 82.6 185.493 82.6C186.174 81.483 187.231 80.6463 188.475 80.241L195.909 85.75Z" fill="#37474F"/>
<path d="M195.909 85.75C197.526 85.792 198.954 88.046 198.954 88.046C199.213 84.105 195.909 81.046 195.909 81.046V85.75Z" fill="#37474F"/>
<path d="M188.349 75.866L195.909 78.568V81.368C194.207 81.1257 192.574 80.5321 191.114 79.625C189.808 78.7067 188.837 77.3868 188.349 75.866Z" fill="#F28F8F"/>
<path d="M188.349 75.866C188.837 77.3867 189.807 78.7067 191.114 79.625C192.574 80.5321 194.207 81.1257 195.909 81.368V85.75C195.909 85.75 187.915 82.159 187.915 80.472V75.705L188.349 75.866Z" fill="#FFA8A7"/>
<path d="M202.916 64.771C203.99 64.8082 205.044 64.4663 205.891 63.805C206.372 63.4212 206.772 62.9452 207.067 62.405C207.122 62.2983 207.145 62.1781 207.134 62.0585C207.123 61.939 207.079 61.8251 207.005 61.7302C206.931 61.6353 206.832 61.5634 206.719 61.523C206.606 61.4826 206.484 61.4753 206.367 61.502C205.786 61.6068 205.191 61.6068 204.61 61.502C205.278 60.6299 205.766 59.6338 206.046 58.5716C206.326 57.5093 206.392 56.402 206.241 55.314C206.222 55.1931 206.176 55.0782 206.105 54.9785C206.034 54.8789 205.941 54.7972 205.832 54.7401C205.724 54.6829 205.604 54.6519 205.482 54.6494C205.36 54.647 205.238 54.6732 205.128 54.726C202.739 55.935 200.074 56.4951 197.4 56.35C196 56.245 194.565 55.944 193.137 55.832C191.705 55.6606 190.252 55.8833 188.937 56.476C188.286 56.7793 187.73 57.2532 187.327 57.8472C186.924 58.4413 186.689 59.1333 186.648 59.85C186.486 59.6218 186.278 59.4307 186.036 59.2894C185.795 59.1482 185.526 59.0601 185.248 59.031C184.954 58.9938 184.655 59.0182 184.371 59.1025C184.086 59.1869 183.822 59.3294 183.596 59.521C184.422 59.969 185.227 60.431 186.053 60.879C185.206 60.578 184.142 61.243 183.722 62.034C183.36 62.8618 183.204 63.7648 183.267 64.666C183.212 65.8584 183.266 67.0533 183.428 68.236C183.587 69.4244 184.053 70.551 184.779 71.505C185.417 72.2887 186.272 72.868 187.236 73.171C188.55 73.5355 189.944 73.4916 191.233 73.045C192.51 72.5966 193.726 71.9899 194.852 71.239C197.732 69.3338 200.431 67.1687 202.916 64.771Z" fill="#E0E0E0"/>
<path d="M203.098 62.3909C203.924 67.3429 203.379 72.4263 201.523 77.0909C201.19 78.2212 200.488 79.2072 199.528 79.8909C198.478 80.4929 197.169 80.3669 195.972 80.1849C194.033 79.9614 192.142 79.4272 190.372 78.6029C188.583 77.7553 187.189 76.2512 186.48 74.4029C185.843 74.5328 185.183 74.4756 184.578 74.2384C183.973 74.0011 183.45 73.5939 183.071 73.0659C182.309 71.9604 181.914 70.6425 181.944 69.2999C181.944 68.4599 182.098 67.4659 182.854 67.0949C183.229 66.9727 183.63 66.9584 184.013 67.0537C184.395 67.1491 184.743 67.3501 185.017 67.6339C186.018 68.4489 186.75 69.5467 187.117 70.7839C187.67 68.7329 188.517 66.7519 189.091 64.7009C189.224 63.8797 189.649 63.1341 190.288 62.6009C191.149 62.0479 192.269 62.3629 193.263 62.6009C196.505 63.3722 199.891 63.2999 203.098 62.3909Z" fill="#FFA8A7"/>
<path d="M197.12 68.621L199.514 72.66L196.658 73.192L197.12 68.621Z" fill="#F28F8F"/>
<path d="M193.9 74.585L196.077 75.642C195.893 75.8925 195.63 76.0746 195.331 76.1595C195.032 76.2444 194.713 76.2273 194.425 76.111C194.176 75.9554 193.988 75.7189 193.892 75.441C193.796 75.1632 193.799 74.861 193.9 74.585Z" fill="#F28F8F"/>
<path opacity="0.3" d="M193.9 74.585L196.077 75.642C195.893 75.8925 195.63 76.0746 195.331 76.1595C195.032 76.2444 194.713 76.2273 194.425 76.111C194.176 75.9554 193.988 75.7189 193.892 75.441C193.796 75.1632 193.799 74.861 193.9 74.585Z" fill="black"/>
<path d="M195.181 76.181C194.928 76.2364 194.664 76.2119 194.425 76.111C194.227 75.9986 194.066 75.8306 193.963 75.6277C193.86 75.4249 193.818 75.1962 193.844 74.97C194.179 74.9636 194.504 75.0853 194.753 75.3103C195.001 75.5354 195.154 75.8468 195.181 76.181Z" fill="#F28F8F"/>
<path d="M192.976 68.782C192.959 68.9438 192.991 69.1068 193.066 69.2508C193.142 69.3947 193.258 69.5132 193.401 69.5912C193.544 69.6693 193.706 69.7035 193.868 69.6896C194.03 69.6757 194.185 69.6143 194.312 69.5131C194.439 69.4119 194.534 69.2753 194.584 69.1206C194.634 68.9658 194.637 68.7998 194.593 68.6433C194.549 68.4867 194.46 68.3466 194.336 68.2406C194.213 68.1345 194.061 68.0672 193.9 68.047C193.791 68.0334 193.68 68.0417 193.574 68.0714C193.468 68.1012 193.37 68.1518 193.283 68.2202C193.197 68.2887 193.126 68.3736 193.073 68.4701C193.02 68.5666 192.987 68.6726 192.976 68.782Z" fill="#263238"/>
<path d="M199.864 69.209C199.847 69.3717 199.878 69.5358 199.954 69.6806C200.031 69.8254 200.148 69.9443 200.292 70.0222C200.436 70.1002 200.599 70.1336 200.762 70.1184C200.925 70.1031 201.08 70.0399 201.207 69.9366C201.334 69.8333 201.427 69.6947 201.475 69.5383C201.523 69.3819 201.524 69.2148 201.476 69.0581C201.429 68.9014 201.337 68.7623 201.21 68.6583C201.084 68.5543 200.93 68.4902 200.767 68.474C200.55 68.4525 200.333 68.5177 200.164 68.6554C199.995 68.7931 199.887 68.9921 199.864 69.209Z" fill="#263238"/>
<path d="M200.991 66.038L202.671 67.438C202.772 67.2207 202.805 66.9779 202.765 66.7416C202.725 66.5054 202.614 66.2868 202.447 66.115C202.235 65.9696 201.987 65.8855 201.73 65.8719C201.473 65.8584 201.217 65.9158 200.991 66.038Z" fill="#E0E0E0"/>
<path d="M193.998 65.233L192.059 66.304C192.005 66.0718 192.022 65.8286 192.108 65.6062C192.194 65.3839 192.345 65.1928 192.542 65.058C192.777 64.9497 193.038 64.9087 193.295 64.9396C193.552 64.9705 193.795 65.072 193.998 65.233Z" fill="#E0E0E0"/>
<path d="M161.637 103.502L159.026 102.2C158.216 101.796 157.542 101.163 157.087 100.38L156.268 98.98C155.703 98.0235 154.871 97.2524 153.874 96.761C152.382 96.0233 150.989 95.0989 149.73 94.01C149.466 94.4314 149.356 94.9308 149.417 95.4242C149.478 95.9176 149.707 96.3749 150.066 96.719C150.601 97.2109 151.169 97.6647 151.767 98.077L150.514 98.392C149.612 98.6232 148.66 98.5669 147.791 98.231L144.214 96.831C144.11 96.7891 143.997 96.7763 143.887 96.7938C143.776 96.8114 143.673 96.8587 143.587 96.9306C143.502 97.0026 143.437 97.0965 143.401 97.2022C143.364 97.308 143.358 97.4217 143.381 97.531C143.706 99.1181 144.306 100.636 145.152 102.018C145.539 102.679 146.064 103.248 146.691 103.688C147.318 104.127 148.032 104.427 148.785 104.566C150.612 104.909 152.376 105.175 153.377 105.322C153.952 105.402 154.509 105.575 155.029 105.833L158.865 107.737L161.637 103.502Z" fill="#FFA8A7"/>
<path d="M164.122 107.52C164.576 106.447 164.733 105.272 164.577 104.118L169.477 106.442C170.375 102.871 171.076 99.2537 171.577 95.606C172.165 90.671 172.032 87.353 178.374 85.75L179.074 98.721C179.074 98.721 178.297 114.562 173.747 116.319C169.988 117.768 167.328 114.219 161.588 110.481C162.716 109.777 163.601 108.743 164.122 107.52Z" fill="#455A64"/>
<path d="M160.069 102.522L164.577 104.118C164.752 105.361 164.556 106.627 164.014 107.759C163.473 108.891 162.609 109.838 161.532 110.481C160.215 109.579 158.966 108.582 157.794 107.499C157.794 107.499 159.747 106.813 160.069 102.522Z" fill="#37474F"/>
<path d="M204.05 261.065L253.743 232.323L286.083 251.146L236.838 279.748L204.05 261.065Z" fill="#E6B5E4"/>
<path d="M204.05 300.202V261.065L236.838 279.748V319.13L204.05 300.202Z" fill="#5CE1E6"/>
<path d="M236.838 319.13L286.083 290.528V251.146L236.838 279.748V319.13Z" fill="#5CE1E6"/>
<path opacity="0.3" d="M236.838 319.13L286.083 290.528V251.146L236.838 279.748V319.13Z" fill="black"/>
<path d="M200.27 256.634L254.548 225.246L289.856 245.805L236.075 277.039L200.27 256.634Z" fill="#5CE1E6"/>
<path d="M200.27 261.709V256.634L236.075 277.039V282.38L200.27 261.709Z" fill="#5CE1E6"/>
<path d="M236.075 282.38L289.856 251.139V245.805L236.075 277.039V282.38Z" fill="#5CE1E6"/>
<path opacity="0.3" d="M200.27 261.709V256.634L236.075 277.039V282.38L200.27 261.709Z" fill="white"/>
<path opacity="0.2" d="M236.075 282.38L289.856 251.139V245.805L236.075 277.039V282.38Z" fill="black"/>
<g opacity="0.2">
<path d="M34.405 84L232.323 225.953L241.794 220.451L139.314 22.988L34.405 84Z" fill="#5CE1E6"/>
<path d="M232.323 225.953V234.43L34.405 186.55V84L232.323 225.953Z" fill="#5CE1E6"/>
</g>
<path d="M230.986 226.73L243.124 219.674L247.03 221.802L234.556 229.019L230.986 226.73Z" fill="#37474F"/>
<path d="M230.986 226.73V237.069L234.479 239.19L234.556 229.019L230.986 226.73Z" fill="#263238"/>
<path d="M212.674 241.668L251.496 219.219L276.752 233.926L238.287 256.27L212.674 241.668Z" fill="#455A64"/>
<path d="M237.846 230.888L252.168 222.607L261.492 228.032L247.296 236.278L237.846 230.888Z" fill="#263238"/>
<path d="M212.674 254.079V241.668L238.287 256.27V268.87L212.674 254.079Z" fill="#37474F"/>
<path d="M238.287 268.87L276.752 246.526V233.926L238.287 256.27V268.87Z" fill="#263238"/>
<path d="M235.039 261.261C235.158 261.338 235.258 261.441 235.331 261.562C235.403 261.684 235.447 261.82 235.459 261.961C235.459 262.227 235.27 262.339 235.039 262.206L223.748 255.689C223.63 255.612 223.53 255.509 223.457 255.388C223.385 255.266 223.34 255.13 223.328 254.989C223.328 254.723 223.517 254.618 223.748 254.751L235.039 261.261Z" fill="#263238"/>
<path d="M235.046 259.7C235.164 259.777 235.263 259.88 235.334 260.002C235.406 260.123 235.449 260.259 235.459 260.4C235.459 260.666 235.27 260.771 235.039 260.638L223.755 254.1C223.636 254.024 223.536 253.921 223.463 253.799C223.39 253.678 223.346 253.541 223.335 253.4C223.335 253.134 223.524 253.029 223.755 253.162L235.046 259.7Z" fill="#263238"/>
<path d="M235.032 262.843C235.151 262.92 235.251 263.023 235.324 263.144C235.396 263.266 235.44 263.402 235.452 263.543C235.452 263.809 235.263 263.921 235.032 263.788L223.741 257.271C223.623 257.193 223.524 257.09 223.452 256.969C223.379 256.848 223.334 256.712 223.321 256.571C223.321 256.305 223.517 256.2 223.748 256.333L235.032 262.843Z" fill="#263238"/>
<path d="M235.046 258.097C235.165 258.174 235.264 258.277 235.337 258.399C235.41 258.52 235.454 258.656 235.466 258.797C235.466 259.063 235.277 259.168 235.046 259.035L223.755 252.518C223.636 252.441 223.536 252.338 223.464 252.217C223.391 252.096 223.347 251.959 223.335 251.818C223.324 251.765 223.33 251.709 223.352 251.659C223.375 251.609 223.412 251.568 223.46 251.541C223.507 251.514 223.562 251.502 223.616 251.508C223.67 251.514 223.721 251.537 223.762 251.573L235.046 258.097Z" fill="#263238"/>
<path d="M241.535 261.261C241.416 261.338 241.316 261.441 241.243 261.562C241.171 261.683 241.127 261.82 241.115 261.961C241.115 262.227 241.304 262.339 241.535 262.206L257.033 253.232C257.152 253.155 257.252 253.052 257.324 252.931C257.397 252.81 257.441 252.673 257.453 252.532C257.453 252.266 257.264 252.161 257.033 252.294L241.535 261.261Z" fill="black"/>
<path d="M241.5 259.7C241.382 259.777 241.283 259.88 241.212 260.002C241.14 260.123 241.097 260.26 241.087 260.4C241.087 260.666 241.276 260.771 241.507 260.638L257.005 251.664C257.124 251.588 257.224 251.485 257.295 251.364C257.367 251.242 257.409 251.105 257.418 250.964C257.418 250.698 257.229 250.586 256.998 250.719L241.5 259.7Z" fill="black"/>
<path d="M241.542 262.843C241.422 262.919 241.321 263.021 241.248 263.143C241.175 263.264 241.132 263.402 241.122 263.543C241.122 263.809 241.311 263.921 241.542 263.788L257.04 254.814C257.159 254.737 257.258 254.634 257.331 254.513C257.404 254.391 257.448 254.255 257.46 254.114C257.46 253.848 257.271 253.743 257.033 253.876L241.542 262.843Z" fill="black"/>
<path d="M241.5 258.097C241.381 258.173 241.281 258.276 241.208 258.398C241.135 258.519 241.091 258.656 241.08 258.797C241.08 259.063 241.269 259.168 241.5 259.035L256.998 250.061C257.117 249.984 257.217 249.881 257.29 249.76C257.362 249.639 257.406 249.502 257.418 249.361C257.418 249.095 257.229 248.99 256.998 249.123L241.5 258.097Z" fill="black"/>
<path d="M259.56 250.873C259.441 250.95 259.341 251.053 259.269 251.174C259.196 251.296 259.152 251.432 259.14 251.573C259.14 251.839 259.329 251.951 259.56 251.818L275.058 242.9C275.177 242.823 275.276 242.72 275.349 242.599C275.422 242.477 275.466 242.341 275.478 242.2C275.478 241.934 275.289 241.829 275.058 241.962L259.56 250.873Z" fill="black"/>
<path d="M259.553 249.291C259.435 249.368 259.336 249.471 259.264 249.592C259.192 249.714 259.15 249.85 259.14 249.991C259.14 250.264 259.329 250.369 259.56 250.236L275.058 241.262C275.177 241.186 275.277 241.083 275.349 240.962C275.42 240.84 275.462 240.703 275.471 240.562C275.471 240.296 275.282 240.184 275.051 240.317L259.553 249.291Z" fill="black"/>
<path d="M259.567 252.455C259.447 252.531 259.346 252.633 259.273 252.755C259.2 252.877 259.157 253.014 259.147 253.155C259.147 253.421 259.336 253.533 259.567 253.4L275.1 244.447C275.219 244.37 275.318 244.267 275.391 244.146C275.464 244.024 275.508 243.888 275.52 243.747C275.52 243.481 275.331 243.376 275.093 243.509L259.567 252.455Z" fill="black"/>
<path d="M259.553 247.709C259.434 247.786 259.335 247.889 259.262 248.011C259.189 248.132 259.145 248.268 259.133 248.409C259.133 248.675 259.322 248.78 259.553 248.647L275.051 239.673C275.17 239.596 275.27 239.493 275.343 239.372C275.415 239.251 275.459 239.114 275.471 238.973C275.471 238.707 275.282 238.595 275.051 238.735L259.553 247.709Z" fill="black"/>
<path d="M120.309 282.408C123.117 285.199 126.618 287.193 130.452 288.183C131.551 288.463 132.846 288.799 133.252 289.863C133.658 290.927 132.965 291.963 132.111 292.663C130.675 293.635 128.925 294.03 127.211 293.769C125.528 293.497 123.884 293.027 122.311 292.369C120.729 291.719 119.063 291.295 117.362 291.109C116.555 291.105 115.749 291.058 114.947 290.969C114.546 290.921 114.159 290.791 113.811 290.586C113.463 290.381 113.161 290.106 112.924 289.779C112.924 284.879 114.198 283.101 114.198 283.101L120.309 282.408Z" fill="#37474F"/>
<path d="M120.4 280.231V283.563C118.16 286.013 114.604 284.382 114.17 283.08L114.058 280.231H120.4Z" fill="#8C4C4C"/>
<path d="M103.684 268.289C107.667 264.691 109.879 264.831 110.838 265.552C111.797 266.273 113.526 268.576 109.109 272.468C104.692 276.36 105.028 278.768 101.955 278.768C98.882 278.768 99.456 275.695 99.456 275.695C99.4926 274.63 99.6547 273.572 99.939 272.545L103.684 268.289Z" fill="#37474F"/>
<path d="M105.126 270.599V272.951C103.25 274.561 100.107 273.651 99.9392 272.538L100.1 270.2L105.126 270.599Z" fill="#8C4C4C"/>
<path d="M123.375 205.191L125.097 246.106L120.4 280.231C117.901 281.834 114.058 280.231 114.058 280.231C113.547 269.731 111.258 254.842 113.064 246.876L109.606 224.882L108.5 242.55C108.304 252.924 105.616 263.97 105.14 270.599C104.324 270.916 103.447 271.044 102.575 270.975C101.702 270.906 100.856 270.641 100.1 270.2C98.5462 256.403 95.4732 248.969 98.4202 239.113C96.3692 220.542 94.6192 209.013 97.1952 204.309L123.375 205.191Z" fill="#455A64"/>
<path opacity="0.2" d="M108.976 220.689L109.634 224.889L109.277 230.489L107.954 221.746C106.792 221.593 105.679 221.186 104.692 220.555C103.704 219.923 102.868 219.083 102.242 218.092C104.239 219.499 106.552 220.391 108.976 220.689Z" fill="black"/>
<path d="M115.423 166.873L103.355 165.256C98.308 164.766 96.138 170.31 96.208 175.427C96.243 178.444 98.308 189.931 99.302 197.827C97.307 202.636 95.312 208.789 95.312 212.674C104.496 220.528 121.646 214.844 123.676 212.464C123.676 199.864 122.717 180.88 122.717 180.88L115.423 166.873Z" fill="#F5F5F5"/>
<path d="M121.856 152.313L123.739 155.589L121.674 156.352L121.856 152.313Z" fill="#632C2C"/>
<path d="M122.066 150.85C121.765 147.973 120.925 145.25 119.049 143.885C119.553 147.462 118.79 151.102 116.893 154.175C116.703 153.225 116.212 152.36 115.493 151.711C115.144 151.375 114.708 151.143 114.234 151.041C113.761 150.94 113.268 150.973 112.812 151.137C112.191 151.435 111.709 151.962 111.468 152.607C111.222 153.227 111.157 153.904 111.283 154.559C111.409 155.214 111.719 155.82 112.177 156.305C112.635 156.789 113.222 157.133 113.869 157.295C114.516 157.457 115.196 157.431 115.829 157.22C115.572 158.498 114.947 159.672 114.032 160.6C113.117 161.527 111.951 162.168 110.677 162.442C108.999 162.785 107.257 162.622 105.672 161.973L104.895 165.844C108.052 169.211 113.442 166.95 113.442 166.95L114.142 163.135C120.351 163.506 120.932 163.401 121.611 159.978C122.182 156.971 122.335 153.899 122.066 150.85Z" fill="#8C4C4C"/>
<path d="M122.808 143.955C122.25 142.692 121.435 141.559 120.415 140.628C119.396 139.696 118.194 138.987 116.886 138.544C114.262 137.673 111.464 137.459 108.738 137.921C107.034 138.113 105.376 138.598 103.838 139.356C102.291 140.142 101.032 141.396 100.24 142.94L99.9181 140.294C99.5943 140.369 99.2953 140.526 99.05 140.751C98.8047 140.975 98.6215 141.259 98.5181 141.575C98.4312 141.913 98.4299 142.267 98.5142 142.606C98.5985 142.944 98.7659 143.256 99.0011 143.514H98.7561C97.6625 143.514 96.5797 143.73 95.5694 144.148C94.5592 144.567 93.6413 145.181 92.8684 145.954C92.0954 146.728 91.4825 147.646 91.0646 148.657C90.6468 149.667 90.4322 150.75 90.4331 151.844V165.977C92.6003 165.975 94.6781 165.113 96.2099 163.58C97.7417 162.047 98.6021 159.968 98.6021 157.801V154.553C99.626 156.96 101.245 159.068 103.306 160.678C104.036 161.21 104.831 161.645 105.672 161.973C107.257 162.622 108.999 162.785 110.677 162.442C111.951 162.168 113.117 161.528 114.032 160.6C114.948 159.672 115.572 158.498 115.829 157.22C115.196 157.431 114.517 157.457 113.87 157.295C113.222 157.133 112.635 156.789 112.177 156.305C111.719 155.82 111.409 155.214 111.283 154.559C111.157 153.904 111.222 153.227 111.468 152.607C111.709 151.962 112.191 151.435 112.812 151.137C113.268 150.973 113.761 150.94 114.235 151.041C114.708 151.143 115.144 151.375 115.493 151.711C116.213 152.361 116.703 153.225 116.893 154.175C118.79 151.102 119.553 147.462 119.049 143.885C120.925 145.285 121.765 147.973 122.066 150.85C122.751 149.852 123.177 148.699 123.306 147.496C123.436 146.293 123.264 145.076 122.808 143.955Z" fill="#263238"/>
<path d="M115.584 176.96L122.829 182.203C122.962 183.89 123.032 187.334 123.158 191.142C121.968 189.798 120.974 188.111 119.924 186.648C117.841 183.743 116.365 180.448 115.584 176.96Z" fill="#E6E6E6"/>
<path d="M155.505 157.185L147.028 181.748L129.5 172.025L137.886 147.735L155.505 157.185Z" fill="#5CE1E6"/>
<path d="M132.104 171.031L139.083 150.801L152.894 158.207L145.838 178.647L132.104 171.031Z" fill="white"/>
<path d="M141.519 152.299L149.191 156.324L149.527 155.302L148.036 153.993L143.836 151.879L141.918 151.522L141.519 152.299Z" fill="#455A64"/>
<path d="M143.836 151.879L144.165 151.102L148.267 153.3L148.036 153.993L143.836 151.879Z" fill="#37474F"/>
<path d="M141.785 149.821L151.06 154.805L151.459 153.839L142.1 148.925L141.785 149.821Z" fill="#455A64"/>
<path d="M144.291 150.073C145.103 147.518 149.947 149.926 149.002 152.544L144.291 150.073Z" fill="#37474F"/>
<path d="M128.247 177.009L134.715 185.409L145.957 174.349C146.586 173.732 146.988 172.92 147.098 172.046C147.637 167.846 148.799 164.857 150.29 165.382C151.228 165.711 150.024 169.799 150.024 169.799L151.424 168.994L153.055 164.262H153.797C154.184 164.263 154.562 164.384 154.878 164.609C155.194 164.833 155.432 165.15 155.561 165.515L156.261 167.538C156.674 168.737 156.693 170.036 156.316 171.246C155.938 172.457 155.183 173.514 154.161 174.265L151.69 176.092C151.329 176.371 151.021 176.713 150.78 177.1C146.88 183.09 142.467 188.729 137.592 193.956C137.043 194.512 136.319 194.859 135.542 194.938C134.765 195.017 133.985 194.823 133.336 194.39C126.455 189.84 120.771 182.154 120.771 182.154L128.247 177.009Z" fill="#8C4C4C"/>
<path d="M115.423 166.873L116.522 167.006C118.323 167.224 120.062 167.798 121.638 168.696C123.213 169.594 124.594 170.797 125.699 172.235L133.938 182.966C133.761 184.845 132.994 186.621 131.747 188.038C130.499 189.455 128.836 190.441 126.994 190.855L117.943 181.3C113.211 176.127 115.423 166.873 115.423 166.873Z" fill="#5CE1E6"/>
</svg>
