<svg width="350" height="350" viewBox="0 0 350 350" fill="none" xmlns="http://www.w3.org/2000/svg">
<path d="M350 267.68H0V267.855H350V267.68Z" fill="#EBEBEB"/>
<path d="M165.9 236.46H30.7371C29.6782 236.458 28.6634 236.036 27.9153 235.287C27.1672 234.537 26.7471 233.522 26.7471 232.463V42.462C26.7563 41.4092 27.1805 40.4026 27.9276 39.6608C28.6747 38.9189 29.6842 38.5018 30.7371 38.5H165.9C166.96 38.5 167.977 38.9211 168.726 39.6707C169.476 40.4203 169.897 41.4369 169.897 42.497V232.463C169.897 233.523 169.476 234.54 168.726 235.289C167.977 236.039 166.96 236.46 165.9 236.46ZM30.7371 38.64C29.7246 38.6419 28.7543 39.0453 28.039 39.7619C27.3238 40.4785 26.9221 41.4496 26.9221 42.462V232.463C26.9221 233.475 27.3238 234.447 28.039 235.163C28.7543 235.88 29.7246 236.283 30.7371 236.285H165.9C166.913 236.283 167.884 235.88 168.601 235.164C169.317 234.447 169.72 233.476 169.722 232.463V42.462C169.72 41.4489 169.317 40.4778 168.601 39.7615C167.884 39.0451 166.913 38.6419 165.9 38.64H30.7371Z" fill="#EBEBEB"/>
<path d="M317.317 236.46H182.147C181.087 236.458 180.072 236.036 179.323 235.287C178.573 234.538 178.152 233.522 178.15 232.463V42.462C178.161 41.4086 178.587 40.402 179.335 39.6603C180.083 38.9187 181.093 38.5018 182.147 38.5H317.317C318.368 38.5036 319.376 38.9216 320.122 39.6632C320.867 40.4048 321.291 41.4104 321.3 42.462V232.463C321.3 233.521 320.881 234.535 320.134 235.284C319.388 236.034 318.375 236.456 317.317 236.46ZM182.147 38.64C181.134 38.6419 180.163 39.0451 179.446 39.7615C178.73 40.4778 178.327 41.4489 178.325 42.462V232.463C178.327 233.476 178.73 234.447 179.446 235.164C180.163 235.88 181.134 236.283 182.147 236.285H317.317C318.33 236.283 319.301 235.88 320.017 235.164C320.734 234.447 321.137 233.476 321.139 232.463V42.462C321.137 41.4489 320.734 40.4778 320.017 39.7615C319.301 39.0451 318.33 38.6419 317.317 38.64H182.147Z" fill="#EBEBEB"/>
<path d="M140.308 274.344H122.108V274.519H140.308V274.344Z" fill="#EBEBEB"/>
<path d="M74.5919 272.447H36.7219V272.622H74.5919V272.447Z" fill="#EBEBEB"/>
<path d="M121.408 280.847H102.984V281.022H121.408V280.847Z" fill="#EBEBEB"/>
<path d="M207.942 279.671H180.761V279.846H207.942V279.671Z" fill="#EBEBEB"/>
<path d="M221.655 279.671H214.172V279.846H221.655V279.671Z" fill="#EBEBEB"/>
<path d="M314.937 276.717H276.745V276.892H314.937V276.717Z" fill="#EBEBEB"/>
<path d="M266.742 261.471H298.697V173.642H266.742V261.471Z" fill="#F0F0F0"/>
<path d="M127.211 267.673H292.558V261.464H127.211V267.673Z" fill="#F0F0F0"/>
<path d="M266.742 173.635H121.079V261.464H266.742V173.635Z" fill="#F5F5F5"/>
<path d="M267.302 179.585H121.079V211.736H267.302V179.585Z" fill="#F0F0F0"/>
<path d="M267.302 217.595H121.079V249.746H267.302V217.595Z" fill="#F0F0F0"/>
<path d="M266.742 211.729H272.272V179.578H266.742V211.729Z" fill="#E6E6E6"/>
<path d="M266.742 249.739H272.272V217.588H266.742V249.739Z" fill="#E6E6E6"/>
<path d="M116.823 173.635L266.742 173.635V168.231L116.823 168.231V173.635Z" fill="#F0F0F0"/>
<path d="M303.163 168.231H266.742V173.635H303.163V168.231Z" fill="#E6E6E6"/>
<path d="M229.705 151.711H304.906V57.183L229.705 57.183V151.711Z" fill="#F0F0F0"/>
<path d="M213.101 151.711H302.022V57.183L213.101 57.183V151.711Z" fill="#FFDE59"/>
<path d="M220.549 64.631V144.263H294.574V64.631H220.549Z" fill="white"/>
<path d="M82.0539 267.68H86.9819L86.9819 107.254H82.0539L82.0539 267.68Z" fill="#F0F0F0"/>
<path d="M81.0251 266.56L80.8921 265.86C81.3989 265.697 81.8672 265.433 82.268 265.082C82.6689 264.732 82.9939 264.303 83.2231 263.823C84.5041 261.555 85.2811 256.718 81.7181 246.582C76.2301 230.958 79.5061 218.358 86.0371 193.242C87.1711 188.867 88.4591 183.911 89.7961 178.542C94.8151 158.473 90.1741 146.027 86.4431 136.024C83.5521 128.261 81.2631 122.129 84.1891 115.024L84.8401 115.29C82.0401 122.136 84.2591 128.156 87.1011 135.779C90.8671 145.866 95.5501 158.431 90.4751 178.703C89.1381 184.065 87.8501 189.021 86.7161 193.403C80.2201 218.4 76.9581 230.944 82.3831 246.4C86.0441 256.823 85.1831 261.863 83.7831 264.25C83.5052 264.803 83.1172 265.293 82.6429 265.69C82.1686 266.087 81.618 266.383 81.0251 266.56Z" fill="#F0F0F0"/>
<path d="M75.593 267.68H93.436L88.473 264.754H80.556L75.593 267.68Z" fill="#F0F0F0"/>
<path d="M49.217 127.687H119.812L112.042 68.369H56.987L49.217 127.687Z" fill="#5CE1E6"/>
<path d="M153.916 137.466H191.604L186.641 168.231H158.879L153.916 137.466Z" fill="#F0F0F0"/>
<path d="M169.057 147.476C179.333 143.759 187.201 138.173 178.395 126.868C169.589 115.563 155.946 115.619 146.748 120.624C135.03 126.994 137.382 145.439 137.382 145.439C137.382 145.439 158.781 151.2 169.057 147.476Z" fill="#E0E0E0"/>
<path d="M179.046 137.2C171.185 131.845 165.613 125.65 174.734 119.112C183.855 112.574 195.104 115.927 201.866 121.996C210.483 129.738 205.506 143.325 205.506 143.325C205.506 143.325 186.9 142.527 179.046 137.2Z" fill="#E6E6E6"/>
<path d="M165.2 123.613C174.398 123.06 182.112 120.659 177.758 110.698C173.404 100.737 162.358 97.944 153.741 99.652C142.73 101.829 140.133 115.605 140.133 115.605C140.133 115.605 156.009 124.173 165.2 123.613Z" fill="#FFDE59"/>
<path d="M176.75 117.74C169.099 115.276 163.1 111.587 168.931 104.104C174.762 96.621 184.681 96.663 191.611 99.967C200.445 104.167 199.661 116.389 199.661 116.389C199.661 116.389 184.401 120.197 176.75 117.74Z" fill="#EBEBEB"/>
<path d="M162.4 105C170.037 107.52 177.058 108.066 176.743 98.588C176.428 89.11 168.406 83.3 160.86 81.858C151.235 80.066 144.683 90.391 144.683 90.391C144.683 90.391 154.777 102.459 162.4 105Z" fill="#FFDE59"/>
<path d="M181.783 100.905C176.316 101.283 171.591 100.457 173.383 94.248C175.175 88.039 181.475 85.568 186.683 85.911C193.333 86.352 195.916 94.311 195.916 94.311C195.916 94.311 187.243 100.534 181.783 100.905Z" fill="#FFDE59"/>
<path d="M175 299.292C249.958 299.292 310.723 295.744 310.723 291.368C310.723 286.992 249.958 283.444 175 283.444C100.042 283.444 39.2771 286.992 39.2771 291.368C39.2771 295.744 100.042 299.292 175 299.292Z" fill="#FFDE59"/>
<path d="M293.482 175.763H55.657V184.296H293.482V175.763Z" fill="#5CE1E6"/>
<path opacity="0.3" d="M119.308 175.763H55.657V184.296H119.308V175.763Z" fill="white"/>
<path d="M120.323 184.296H114.786L117.684 291.242H120.323H122.962L125.867 184.296H120.323Z" fill="#5CE1E6"/>
<path opacity="0.3" d="M117.684 291.242H120.323V186.592L114.877 187.586L117.684 291.242Z" fill="white"/>
<path d="M67.8439 184.296H62.3069L65.2049 291.242H67.8439H70.4829L73.3809 184.296H67.8439Z" fill="#5CE1E6"/>
<path opacity="0.3" d="M65.2049 291.242H67.8439V186.592L62.3909 187.586L65.2049 291.242Z" fill="white"/>
<path d="M281.295 184.296H275.758L278.656 291.242H281.295H283.934L286.839 184.296H281.295Z" fill="#5CE1E6"/>
<path opacity="0.3" d="M278.656 291.242H281.295V186.592L275.849 187.586L278.656 291.242Z" fill="white"/>
<path d="M228.816 184.296H223.279L226.177 291.242H228.816H231.455L234.353 184.296H228.816Z" fill="#5CE1E6"/>
<path opacity="0.3" d="M226.177 291.242H228.816V186.592L223.37 187.586L226.177 291.242Z" fill="white"/>
<path d="M168.546 130.081H112C111.541 130.063 111.084 130.153 110.667 130.346C110.25 130.538 109.884 130.825 109.6 131.186C109.315 131.546 109.12 131.969 109.03 132.419C108.939 132.87 108.957 133.335 109.081 133.777L116.613 169.722C116.855 170.739 117.423 171.649 118.228 172.314C119.034 172.98 120.035 173.365 121.079 173.411H177.667C178.125 173.429 178.581 173.338 178.998 173.147C179.414 172.955 179.779 172.668 180.064 172.308C180.348 171.949 180.544 171.527 180.635 171.078C180.725 170.628 180.709 170.164 180.586 169.722L173.047 133.777C172.804 132.753 172.233 131.838 171.42 131.17C170.607 130.503 169.597 130.12 168.546 130.081Z" fill="#263238"/>
<path d="M121.569 171.36C120.864 171.312 120.191 171.043 119.648 170.59C119.105 170.138 118.719 169.525 118.545 168.84L111.013 132.895C110.949 132.657 110.938 132.408 110.983 132.166C111.028 131.923 111.127 131.694 111.272 131.495C111.423 131.325 111.61 131.19 111.819 131.102C112.029 131.013 112.256 130.973 112.483 130.984H169.071C169.776 131.032 170.449 131.301 170.992 131.754C171.535 132.206 171.921 132.819 172.095 133.504L179.627 169.449C179.692 169.687 179.702 169.936 179.657 170.178C179.612 170.421 179.513 170.65 179.368 170.849C179.218 171.021 179.031 171.156 178.822 171.244C178.612 171.333 178.384 171.372 178.157 171.36H121.569Z" fill="white"/>
<path opacity="0.4" d="M164.262 168.483L157.122 134.4C157.082 134.198 157.087 133.99 157.136 133.79C157.186 133.591 157.279 133.404 157.408 133.245C157.538 133.085 157.701 132.956 157.886 132.866C158.072 132.777 158.274 132.729 158.48 132.727H167.664C167.982 132.73 168.291 132.84 168.537 133.041C168.784 133.243 168.955 133.522 169.022 133.833L176.162 167.888C176.202 168.09 176.197 168.298 176.148 168.498C176.098 168.697 176.006 168.884 175.876 169.043C175.746 169.203 175.583 169.332 175.398 169.422C175.213 169.511 175.01 169.559 174.804 169.561H165.62C165.306 169.56 165.001 169.453 164.754 169.258C164.508 169.062 164.334 168.789 164.262 168.483Z" fill="#5CE1E6"/>
<path d="M115.724 135.709L115.416 134.232H126.756L127.064 135.709H115.724Z" fill="#5CE1E6"/>
<path d="M120.96 139.377L120.652 137.9H140.525L140.84 139.377H120.96Z" fill="#EBEBEB"/>
<path d="M122.01 143.038L121.695 141.561H143.976L144.284 143.038H122.01Z" fill="#EBEBEB"/>
<path d="M123.053 146.706L122.745 145.229H140.679L140.994 146.706H123.053Z" fill="#EBEBEB"/>
<path d="M119.175 152.649L118.86 151.172H126.035L126.343 152.649H119.175Z" fill="#5CE1E6"/>
<path d="M124.404 156.31L124.096 154.833H132.832L133.147 156.31H124.404Z" fill="#EBEBEB"/>
<path d="M135.24 156.31L134.925 154.833H143.668L143.976 156.31H135.24Z" fill="#EBEBEB"/>
<path d="M125.454 159.978L125.146 158.501H154.686L154.994 159.978H125.454Z" fill="#EBEBEB"/>
<path d="M126.497 163.639L126.189 162.162H148.715L149.023 163.639H126.497Z" fill="#EBEBEB"/>
<path d="M194.964 173.194H120.512C118.482 173.194 117.166 174.349 117.593 175.763H199.43C199.01 174.349 196.994 173.194 194.964 173.194Z" fill="#263238"/>
<path opacity="0.1" d="M96.047 120.995L88.9 86.933C88.8611 86.7318 88.8668 86.5244 88.9168 86.3255C88.9668 86.1267 89.0598 85.9413 89.1893 85.7824C89.3189 85.6235 89.4817 85.495 89.6664 85.4059C89.8511 85.3169 90.053 85.2694 90.258 85.267H148.078C148.395 85.2691 148.703 85.379 148.949 85.5787C149.196 85.7784 149.368 86.056 149.436 86.366L156.583 120.4C156.623 120.602 156.618 120.81 156.569 121.01C156.519 121.209 156.427 121.396 156.297 121.555C156.167 121.715 156.004 121.844 155.819 121.934C155.633 122.023 155.431 122.071 155.225 122.073H97.405C97.0905 122.072 96.7854 121.965 96.5391 121.77C96.2927 121.574 96.1194 121.301 96.047 120.995Z" fill="#5CE1E6"/>
<path d="M116.599 86.387H104.461L104.188 85.078H116.326L116.599 86.387Z" fill="#5CE1E6"/>
<path opacity="0.4" d="M114.625 88.473H109.753L109.48 87.164H114.352L114.625 88.473Z" fill="#5CE1E6"/>
<path opacity="0.4" d="M122.731 88.473H115.227L114.954 87.164H122.458L122.731 88.473Z" fill="#5CE1E6"/>
<path opacity="0.4" d="M126 90.552H110.187L109.914 89.243H125.734L126 90.552Z" fill="#5CE1E6"/>
<path opacity="0.4" d="M123.991 92.638H110.621L110.348 91.329H123.718L123.991 92.638Z" fill="#5CE1E6"/>
<path opacity="0.4" d="M132.86 114.765H124.348L124.621 116.067H133.133L132.86 114.765Z" fill="#5CE1E6"/>
<path d="M122.248 111.909H109.781L109.508 110.6H121.975L122.248 111.909Z" fill="#5CE1E6"/>
<path opacity="0.4" d="M127.26 116.844H115.668L115.941 118.153H127.533L127.26 116.844Z" fill="#5CE1E6"/>
<path opacity="0.4" d="M123.746 114.765H115.234L115.507 116.067H124.019L123.746 114.765Z" fill="#5CE1E6"/>
<path opacity="0.4" d="M131.824 112.679H114.8L115.073 113.988H132.097L131.824 112.679Z" fill="#5CE1E6"/>
<path d="M116.172 76.671H102.438L102.165 75.369H115.899L116.172 76.671Z" fill="#5CE1E6"/>
<path opacity="0.4" d="M122.955 81.613H107.807L108.08 82.922H123.221L122.955 81.613Z" fill="#5CE1E6"/>
<path opacity="0.4" d="M119.924 79.534H107.373L107.646 80.836H120.197L119.924 79.534Z" fill="#5CE1E6"/>
<path opacity="0.4" d="M120.757 77.448H106.939L107.212 78.757H121.03L120.757 77.448Z" fill="#5CE1E6"/>
<path d="M116.018 96.026H106.47L106.197 94.717H115.745L116.018 96.026Z" fill="#5CE1E6"/>
<path opacity="0.4" d="M131.012 100.961H112.357L112.63 102.27H131.278L131.012 100.961Z" fill="#5CE1E6"/>
<path opacity="0.4" d="M119.651 98.882H111.923L112.196 100.191H119.924L119.651 98.882Z" fill="#5CE1E6"/>
<path opacity="0.4" d="M128.037 98.882H120.309L120.582 100.191H128.31L128.037 98.882Z" fill="#5CE1E6"/>
<path opacity="0.4" d="M128.513 96.796H111.489L111.762 98.105H128.779L128.513 96.796Z" fill="#5CE1E6"/>
<path opacity="0.4" d="M128.478 107.212H113.659L113.932 108.514H128.751L128.478 107.212Z" fill="#5CE1E6"/>
<path opacity="0.4" d="M117.537 105.126H113.225L113.498 106.435H117.803L117.537 105.126Z" fill="#5CE1E6"/>
<path opacity="0.4" d="M124.278 105.126H118.125L118.398 106.435H124.551L124.278 105.126Z" fill="#5CE1E6"/>
<path opacity="0.4" d="M129.815 103.047H112.791L113.064 104.349H130.088L129.815 103.047Z" fill="#5CE1E6"/>
<path opacity="0.4" d="M143.22 102.697H137.123L136.85 101.388H142.954L143.22 102.697Z" fill="#5CE1E6"/>
<path opacity="0.4" d="M153.37 102.697H143.976L143.703 101.388H153.097L153.37 102.697Z" fill="#5CE1E6"/>
<path opacity="0.4" d="M157.36 104.783H137.557L137.284 103.474H157.087L157.36 104.783Z" fill="#5CE1E6"/>
<path opacity="0.4" d="M154.728 106.862H137.991L137.718 105.553H154.455L154.728 106.862Z" fill="#5CE1E6"/>
<path opacity="0.4" d="M162.225 94.416H143.262L143.535 95.718H162.498L162.225 94.416Z" fill="#5CE1E6"/>
<path opacity="0.4" d="M158.543 92.33H142.828L143.101 93.639H158.809L158.543 92.33Z" fill="#5CE1E6"/>
<path d="M155.701 90.251H138.397L138.67 91.553H155.974L155.701 90.251Z" fill="#5CE1E6"/>
<path opacity="0.4" d="M163.079 115.192H139.727L140 116.501H163.352L163.079 115.192Z" fill="#5CE1E6"/>
<path opacity="0.4" d="M148.967 113.113H139.293L139.566 114.415H149.24L148.967 113.113Z" fill="#5CE1E6"/>
<path opacity="0.4" d="M159.467 113.113H149.793L150.066 114.415H159.74L159.467 113.113Z" fill="#5CE1E6"/>
<path opacity="0.4" d="M160.167 111.027H138.859L139.132 112.336H160.44L160.167 111.027Z" fill="#5CE1E6"/>
<path opacity="0.4" d="M159.579 121.436H141.029L141.302 122.745H159.852L159.579 121.436Z" fill="#5CE1E6"/>
<path opacity="0.4" d="M145.992 119.357H140.595L140.868 120.666H146.265L145.992 119.357Z" fill="#5CE1E6"/>
<path opacity="0.4" d="M154.434 119.357H146.734L147.007 120.666H154.707L154.434 119.357Z" fill="#5CE1E6"/>
<path opacity="0.4" d="M161.476 117.271H140.161L140.434 118.58H161.742L161.476 117.271Z" fill="#5CE1E6"/>
<path opacity="0.4" d="M104.72 123.053H90.2019L90.4749 124.362H104.993L104.72 123.053Z" fill="#5CE1E6"/>
<path opacity="0.4" d="M100.429 120.974H89.7681L90.0411 122.276H100.695L100.429 120.974Z" fill="#5CE1E6"/>
<path opacity="0.4" d="M111.832 120.974H101.178L101.451 122.276H112.112L111.832 120.974Z" fill="#5CE1E6"/>
<path opacity="0.4" d="M110.649 118.888H89.334L89.607 120.197H110.915L110.649 118.888Z" fill="#5CE1E6"/>
<path d="M273.665 162.162H264.677L265.727 175.763H272.615L273.665 162.162Z" fill="#5CE1E6"/>
<path opacity="0.4" d="M273.665 162.162H264.677L265.727 175.763H272.615L273.665 162.162Z" fill="white"/>
<path d="M77.7909 152.719H90.7129L86.3029 175.763H73.3809L77.7909 152.719Z" fill="#263238"/>
<path d="M94.248 146.545H75.999L81.109 175.763H99.358L94.248 146.545Z" fill="#5CE1E6"/>
<path d="M74.9209 146.545H75.9989L81.1089 175.763H80.0309L74.9209 146.545Z" fill="#5CE1E6"/>
<path opacity="0.3" d="M74.9209 146.545H75.9989L81.1089 175.763H80.0309L74.9209 146.545Z" fill="black"/>
<path d="M83.7341 172.634L79.7161 149.667H91.6301L95.6411 172.634H83.7341Z" fill="white"/>
<path opacity="0.6" d="M95.074 172.634L91.063 149.667H91.63L95.641 172.634H95.074Z" fill="#5CE1E6"/>
<path d="M184.639 109.2C184.898 109.76 184.814 110.355 184.443 110.523C184.072 110.691 183.568 110.376 183.309 109.823C183.05 109.27 183.141 108.668 183.505 108.5C183.869 108.332 184.38 108.612 184.639 109.2Z" fill="#263238"/>
<path d="M184.863 110.306C184.863 110.306 185.087 114.128 184.401 116.34C185.801 116.809 187.313 115.64 187.313 115.64L184.863 110.306Z" fill="#FF5652"/>
<path d="M184.709 104.573C184.649 104.622 184.576 104.652 184.499 104.657C184.043 104.669 183.597 104.789 183.197 105.007C182.797 105.224 182.454 105.534 182.196 105.91C182.173 105.953 182.142 105.991 182.104 106.022C182.066 106.052 182.022 106.075 181.975 106.089C181.928 106.102 181.879 106.106 181.83 106.1C181.782 106.094 181.735 106.078 181.693 106.054C181.651 106.029 181.614 105.997 181.584 105.958C181.555 105.919 181.534 105.874 181.522 105.827C181.51 105.779 181.508 105.73 181.515 105.682C181.523 105.634 181.54 105.587 181.566 105.546C181.883 105.065 182.311 104.666 182.814 104.385C183.318 104.104 183.881 103.947 184.457 103.929C184.534 103.925 184.609 103.945 184.674 103.986C184.738 104.028 184.788 104.088 184.816 104.16C184.844 104.231 184.849 104.31 184.83 104.384C184.81 104.458 184.768 104.524 184.709 104.573Z" fill="#263238"/>
<path d="M205.254 108.332C207.417 115.822 209.832 121.632 212.779 124.95C212.779 124.95 212.835 130.837 202.804 133.637C191.772 136.717 196 129.633 196 129.633C201.6 126.518 201.068 121.814 196.854 120.022L205.254 108.332Z" fill="#FF8B7B"/>
<path d="M215.117 123.515C214.921 120.778 214.662 117.656 212.975 117.572C211.113 117.488 200.333 122.304 198.03 125.699C195.727 129.094 200.228 132.419 200.228 132.419L215.117 123.515Z" fill="#263238"/>
<path d="M193.053 165.9L183.743 165.592L183.911 173.39C183.911 173.39 192.031 172.55 192.388 170.415L193.053 165.9Z" fill="#FF8B7B"/>
<path d="M178.822 169.421L177.842 173.411L183.911 173.397L183.743 165.599L178.822 169.421Z" fill="#FF8B7B"/>
<path d="M230.419 133.497L230.223 135.499C230.16 136.143 230.076 136.773 229.992 137.41C229.831 138.677 229.628 139.944 229.411 141.204C228.991 143.731 228.445 146.244 227.815 148.771C227.175 151.346 226.399 153.886 225.491 156.38C225.008 157.661 224.504 158.942 223.902 160.244C223.295 161.61 222.594 162.931 221.802 164.199C221.613 164.528 221.375 164.899 221.144 165.207C220.913 165.515 220.689 165.907 220.444 166.229C220.199 166.551 219.94 166.929 219.618 167.258L219.163 167.776C219 167.967 218.827 168.149 218.645 168.322C217.242 169.696 215.598 170.8 213.794 171.577C211.027 172.764 208.091 173.508 205.093 173.782C203.728 173.943 202.377 174.006 201.054 174.041C199.731 174.076 198.408 174.041 197.106 173.971C195.804 173.901 194.516 173.789 193.235 173.635C191.954 173.481 190.708 173.278 189.35 173.005L189.574 165.69C194.044 164.908 198.462 163.856 202.804 162.54C203.77 162.226 204.719 161.862 205.646 161.448C206.436 161.115 207.191 160.704 207.9 160.223C208.313 159.975 208.662 159.634 208.922 159.229L209.125 158.907C209.219 158.77 209.306 158.627 209.384 158.48C209.484 158.319 209.575 158.153 209.657 157.983C209.748 157.801 209.846 157.633 209.937 157.43C210.759 155.635 211.436 153.776 211.96 151.872C212.534 149.814 213.073 147.672 213.507 145.453C213.941 143.234 214.361 140.994 214.746 138.733L215.278 135.331L215.761 132.02L230.419 133.497Z" fill="#5CE1E6"/>
<path opacity="0.2" d="M230.419 133.497L230.223 135.499C230.16 136.143 230.076 136.773 229.992 137.41C229.831 138.677 229.628 139.944 229.411 141.204C228.991 143.731 228.445 146.244 227.815 148.771C227.175 151.346 226.399 153.886 225.491 156.38C225.008 157.661 224.504 158.942 223.902 160.244C223.295 161.61 222.594 162.931 221.802 164.199C221.613 164.528 221.375 164.899 221.144 165.207C220.913 165.515 220.689 165.907 220.444 166.229C220.199 166.551 219.94 166.929 219.618 167.258L219.163 167.776C219 167.967 218.827 168.149 218.645 168.322C217.242 169.696 215.598 170.8 213.794 171.577C211.027 172.764 208.091 173.508 205.093 173.782C203.728 173.943 202.377 174.006 201.054 174.041C199.731 174.076 198.408 174.041 197.106 173.971C195.804 173.901 194.516 173.789 193.235 173.635C191.954 173.481 190.708 173.278 189.35 173.005L189.574 165.69C194.044 164.908 198.462 163.856 202.804 162.54C203.77 162.226 204.719 161.862 205.646 161.448C206.436 161.115 207.191 160.704 207.9 160.223C208.313 159.975 208.662 159.634 208.922 159.229L209.125 158.907C209.219 158.77 209.306 158.627 209.384 158.48C209.484 158.319 209.575 158.153 209.657 157.983C209.748 157.801 209.846 157.633 209.937 157.43C210.759 155.635 211.436 153.776 211.96 151.872C212.534 149.814 213.073 147.672 213.507 145.453C213.941 143.234 214.361 140.994 214.746 138.733L215.278 135.331L215.761 132.02L230.419 133.497Z" fill="black"/>
<path d="M189.084 142.8C192.555 157.765 194.508 173.041 194.915 188.398H235.9C236.124 183.337 235.27 154.798 231.147 134.183C230.781 132.316 230.045 130.541 228.984 128.962C227.922 127.383 226.555 126.032 224.964 124.988C223.373 123.945 221.589 123.23 219.718 122.886C217.847 122.541 215.925 122.574 214.067 122.983L213.871 123.032C208.754 124.194 201.411 126.07 197.071 127.715L196.896 127.785C193.993 128.914 191.6 131.059 190.163 133.822C188.726 136.584 188.342 139.775 189.084 142.8Z" fill="#5CE1E6"/>
<path opacity="0.2" d="M191.751 155.89C192.073 157.857 192.402 159.943 192.703 162.127C196.056 158.627 197.12 147.903 197.12 147.903L191.751 155.89Z" fill="black"/>
<path d="M157.703 166.411L148.4 165.543L148.092 173.334C149.63 173.758 151.254 173.754 152.789 173.321C154.324 172.888 155.711 172.042 156.8 170.877L157.703 166.411Z" fill="#FF8B7B"/>
<path d="M143.976 167.839L140.994 173.194L148.12 173.334L148.428 165.543L143.976 167.839Z" fill="#FF8B7B"/>
<path d="M204.463 139.209C203.819 140.434 203.245 141.519 202.601 142.639C201.957 143.759 201.341 144.851 200.676 145.936C199.36 148.12 197.995 150.262 196.553 152.383C193.658 156.726 190.45 160.853 186.956 164.731C185.085 166.819 183.051 168.754 180.873 170.52C180.6 170.751 180.278 170.975 179.977 171.22C179.676 171.465 179.41 171.661 178.962 171.92C178.514 172.179 178.136 172.438 177.73 172.662C177.324 172.886 176.904 173.089 176.491 173.271C174.947 173.941 173.331 174.432 171.675 174.734C168.779 175.222 165.827 175.288 162.911 174.93C161.546 174.773 160.19 174.54 158.851 174.23C158.184 174.076 157.526 173.901 156.877 173.705C156.177 173.509 155.61 173.292 154.861 173.005L156.016 165.781C160.412 165.186 165.165 164.423 168.441 162.939C169.168 162.64 169.853 162.247 170.478 161.77C170.73 161.597 170.964 161.4 171.178 161.182C171.227 161.119 171.444 160.93 171.605 160.776C171.766 160.622 171.955 160.475 172.13 160.293C173.628 158.808 175.031 157.23 176.33 155.568C179.148 151.932 181.781 148.157 184.219 144.256C185.479 142.275 186.704 140.259 187.929 138.236L189.735 135.198L191.478 132.209L204.463 139.209Z" fill="#5CE1E6"/>
<path d="M193.214 285.32H185.556L181.699 267.575H189.364L193.214 285.32Z" fill="#FF8B7B"/>
<path d="M185.129 283.682H193.739C193.889 283.687 194.033 283.74 194.15 283.834C194.267 283.927 194.351 284.055 194.39 284.2L195.902 291.018C195.938 291.184 195.936 291.355 195.896 291.52C195.856 291.685 195.78 291.838 195.672 291.969C195.564 292.1 195.428 292.204 195.274 292.275C195.12 292.345 194.951 292.38 194.782 292.376C191.779 292.327 190.316 292.152 186.529 292.152C184.198 292.152 181.209 292.39 177.996 292.39C174.783 292.39 174.356 289.212 175.672 288.925C181.58 287.63 181.972 285.852 183.883 284.151C184.226 283.845 184.67 283.678 185.129 283.682Z" fill="#263238"/>
<g opacity="0.2">
<path d="M189.371 267.582H181.699L183.841 277.41L191.359 276.731L189.371 267.582Z" fill="black"/>
</g>
<path d="M202.797 99.33C205.597 106.414 207.543 110.425 205.695 115.57C202.895 123.305 192.962 124.089 188.132 117.971C183.792 112.462 179.998 101.801 185.479 95.942C186.679 94.6431 188.192 93.6728 189.873 93.1235C191.554 92.5742 193.348 92.4641 195.083 92.8036C196.819 93.1432 198.439 93.9211 199.789 95.0635C201.139 96.2058 202.175 97.6745 202.797 99.33Z" fill="#FF8B7B"/>
<path d="M189.343 109.942C188.195 111.482 187.313 112.651 187.313 112.651C187.313 112.651 184.954 106.792 185.857 104.104C184.709 101.829 182.392 105.182 181.517 100.751C180.642 96.32 184.429 91.56 185.857 90.573C186.004 91.0893 186.07 91.6254 186.053 92.162C189.912 89.0306 194.816 87.4818 199.773 87.829C199.359 88.4452 199.095 89.1501 199.003 89.887C199.003 89.887 207.312 91.287 209.202 95.991C208.533 95.672 207.828 95.4368 207.102 95.291C208.625 97.4749 209.229 100.17 208.782 102.795C208.179 106.623 207.866 110.491 207.844 114.366C207.921 116.354 202.468 120.155 199.143 116.095C195.818 112.035 189.343 109.942 189.343 109.942Z" fill="#263238"/>
<path d="M192.808 108.416C193.242 110.066 193.119 111.813 192.458 113.386C191.569 115.486 189.742 114.982 188.839 113.148C188.02 111.503 187.495 108.451 188.944 106.988C190.393 105.525 192.262 106.435 192.808 108.416Z" fill="#FF8B7B"/>
<path d="M207.2 188.37C207.2 188.37 171.612 201.278 170.569 218.351C168.637 249.802 181.496 274.701 181.496 274.701L193.284 273.441C193.284 273.441 191.184 263.319 189.623 234.829C187.656 199.024 248.423 235.669 235.907 188.37H207.2Z" fill="#5CE1E6"/>
<path opacity="0.5" d="M207.2 188.37C207.2 188.37 171.612 201.278 170.569 218.351C168.637 249.802 181.496 274.701 181.496 274.701L193.284 273.441C193.284 273.441 191.184 263.319 189.623 234.829C187.656 199.024 248.423 235.669 235.907 188.37H207.2Z" fill="white"/>
<path d="M178.234 270.361C178.178 270.361 180.11 275.597 180.11 275.597L194.81 274.155L194.075 269.395L178.234 270.361Z" fill="#5CE1E6"/>
<path d="M160.111 286.195H152.446L150.206 268.443H157.871L160.111 286.195Z" fill="#FF8B7B"/>
<path d="M152.39 283.675H160.79C160.942 283.673 161.089 283.724 161.208 283.818C161.326 283.912 161.409 284.045 161.441 284.193L162.967 291.004C163.012 291.171 163.017 291.346 162.982 291.515C162.947 291.684 162.874 291.843 162.767 291.978C162.661 292.114 162.524 292.223 162.368 292.297C162.212 292.371 162.041 292.408 161.868 292.404C158.851 292.355 154.483 292.187 150.668 292.194C146.23 292.194 145.383 292.439 140.168 292.446C137.018 292.446 136.143 289.275 137.459 288.946C143.451 287.63 145.369 287.483 150.542 284.284C151.088 283.91 151.729 283.699 152.39 283.675Z" fill="#263238"/>
<path opacity="0.2" d="M150.213 268.45L151.431 278.117L159.033 277.599L157.878 268.45H150.213Z" fill="black"/>
<path d="M194.915 188.37C194.915 188.37 136.605 193.543 137.235 222.831C137.886 253.295 149.268 273.84 149.268 273.84H160.65C160.65 273.84 158.494 258.034 158.879 228.046C158.991 219.065 177.149 216.097 194.873 215.047C210.189 214.137 224.525 205.408 230.475 191.247L231.7 188.37H194.915Z" fill="#5CE1E6"/>
<path opacity="0.5" d="M194.915 188.37C194.915 188.37 136.605 193.543 137.235 222.831C137.886 253.295 149.268 273.84 149.268 273.84H160.65C160.65 273.84 158.494 258.034 158.879 228.046C158.991 219.065 177.149 216.097 194.873 215.047C210.189 214.137 224.525 205.408 230.475 191.247L231.7 188.37H194.915Z" fill="white"/>
<path d="M146.601 270.781C146.552 270.781 148.554 276.045 148.554 276.045L162.302 275.058L161.497 270.298L146.601 270.781Z" fill="#5CE1E6"/>
<path d="M210.224 155.456L202.825 183.967C200.933 191.271 199.978 198.787 199.983 206.332V219.583C199.983 222.929 202.447 225.645 205.492 225.645H243.418C246.463 225.645 248.927 222.929 248.927 219.583V206.332C248.924 198.786 249.882 191.271 251.776 183.967L258.307 158.767C259.315 154.896 256.669 151.067 253.008 151.067H215.516C214.271 151.106 213.075 151.559 212.117 152.354C211.159 153.149 210.493 154.24 210.224 155.456Z" fill="#263238"/>
<path d="M163.051 211.841L164.29 218.911C164.948 222.628 168.217 225.645 171.598 225.645H213.759C217.14 225.645 219.359 222.628 218.701 218.911L217.462 211.841C216.713 207.606 212.996 204.176 209.146 204.176H168.7C164.822 204.176 162.309 207.606 163.051 211.841Z" fill="#263238"/>
<path d="M217.819 232.743H195.734L193.578 225.645H219.975L217.819 232.743Z" fill="#5CE1E6"/>
<path d="M210.721 232.743H202.832V285.53H210.721V232.743Z" fill="#5CE1E6"/>
<path opacity="0.7" d="M210.721 285.53H202.832V234.01L210.721 234.815V285.53Z" fill="white"/>
<path opacity="0.7" d="M208.796 285.53H206.913V234.423L208.796 234.619V285.53Z" fill="white"/>
<path d="M224.917 293.692H188.629C188.417 293.69 188.212 293.622 188.041 293.496C187.871 293.371 187.744 293.195 187.679 292.994C187.614 292.793 187.614 292.576 187.679 292.375C187.744 292.173 187.87 291.997 188.041 291.872L193.795 287.672C196.561 285.646 199.9 284.553 203.329 284.55H210.224C213.65 284.554 216.987 285.647 219.751 287.672L225.512 291.872C225.683 291.998 225.81 292.174 225.875 292.376C225.939 292.578 225.939 292.796 225.873 292.997C225.807 293.199 225.679 293.375 225.507 293.499C225.336 293.624 225.129 293.692 224.917 293.692Z" fill="#5CE1E6"/>
</svg>
