<svg width="350" height="350" viewBox="0 0 350 350" fill="none" xmlns="http://www.w3.org/2000/svg">
<path d="M174.902 337.05C257.87 337.05 325.129 299.812 325.129 253.876C325.129 207.94 257.87 170.702 174.902 170.702C91.934 170.702 24.675 207.94 24.675 253.876C24.675 299.812 91.934 337.05 174.902 337.05Z" fill="#5CE1E6"/>
<path d="M76.09 244.447C53.69 257.397 53.69 278.39 76.09 291.347C98.49 304.304 134.89 304.297 157.29 291.347C179.69 278.397 179.69 257.411 157.29 244.447C134.89 231.483 98.511 231.504 76.09 244.447Z" fill="#FFDE59"/>
<path d="M294 229.369L287.826 225.799C287.826 225.799 284.151 210.525 285.614 196.784C287.672 177.457 300.398 170.184 305.214 171.85C310.03 173.516 311.451 179.144 303.443 190.652C298.767 197.442 292.964 211.589 294 229.369Z" fill="#5CE1E6"/>
<g opacity="0.15">
<path d="M294 229.369L287.826 225.799C287.826 225.799 284.151 210.525 285.614 196.784C287.672 177.457 300.398 170.184 305.214 171.85C310.03 173.516 311.451 179.144 303.443 190.652C298.767 197.442 292.964 211.589 294 229.369Z" fill="black"/>
</g>
<path d="M291.466 221.9H291.522C291.577 221.89 291.63 221.869 291.677 221.839C291.724 221.808 291.765 221.769 291.796 221.723C291.828 221.676 291.851 221.624 291.862 221.57C291.874 221.515 291.875 221.458 291.865 221.403C288.477 203.574 294.707 183.547 302.414 175.203C302.494 175.122 302.539 175.012 302.539 174.898C302.539 174.785 302.494 174.675 302.414 174.594C302.332 174.516 302.223 174.472 302.109 174.472C301.996 174.472 301.887 174.516 301.805 174.594C293.958 183.085 287.609 203.441 291.046 221.494C291.05 221.603 291.095 221.706 291.174 221.782C291.252 221.858 291.357 221.9 291.466 221.9Z" fill="white"/>
<path d="M310.205 238.7C311.178 239.197 313.775 236.978 314.496 236.439C315.735 235.501 316.711 234.259 317.331 232.834C318.029 231.215 318.203 229.418 317.828 227.696C317.631 226.788 317.371 225.894 317.051 225.022L316.162 222.432C315.812 221.599 315.636 220.703 315.644 219.8C315.784 217.987 317.317 216.65 318.71 215.488C320.257 214.207 321.846 212.541 321.727 210.371C321.525 208.698 320.774 207.14 319.592 205.94C318.493 204.68 317.205 203.581 316.197 202.244C315.413 201.318 314.969 200.153 314.937 198.94C315.002 198.191 315.216 197.463 315.567 196.798C316.267 195.349 317.205 193.998 317.667 192.465C318.129 190.932 317.947 189.049 316.715 188.027C315.7 187.18 314.251 187.131 312.942 187.285C311.719 187.498 310.558 187.976 309.54 188.685C306.194 190.785 304.444 194.936 300.867 196.595C299.467 197.232 297.955 197.435 296.506 197.897C295.057 198.359 293.608 199.178 293.006 200.571C291.802 203.315 294.455 206.486 293.657 209.37C292.957 211.925 290.556 213.003 289.303 215.341C288.793 216.367 288.626 217.531 288.827 218.659C289.046 220.574 289.611 222.433 290.493 224.147C291.49 225.902 292.593 227.595 293.797 229.215C293.797 229.215 310.058 238.637 310.205 238.7Z" fill="#5CE1E6"/>
<path d="M300.748 233.8C300.804 233.796 300.859 233.78 300.909 233.754C300.959 233.729 301.004 233.693 301.04 233.651C301.076 233.608 301.104 233.558 301.121 233.504C301.138 233.451 301.145 233.394 301.14 233.338C299.579 216.384 306.635 197.225 312.179 191.478C312.219 191.439 312.251 191.392 312.273 191.34C312.295 191.289 312.306 191.233 312.306 191.177C312.306 191.121 312.295 191.065 312.273 191.014C312.251 190.962 312.219 190.915 312.179 190.876C312.098 190.796 311.988 190.751 311.874 190.751C311.76 190.751 311.651 190.796 311.57 190.876C305.9 196.7 298.718 216.209 300.3 233.401C300.307 233.513 300.358 233.618 300.442 233.692C300.526 233.767 300.636 233.806 300.748 233.8Z" fill="white"/>
<path d="M302.435 212.884C302.476 212.894 302.52 212.894 302.561 212.884C306.531 211.574 310.631 210.701 314.79 210.28C314.903 210.268 315.006 210.212 315.078 210.124C315.15 210.036 315.185 209.924 315.175 209.811C315.172 209.755 315.157 209.7 315.131 209.65C315.106 209.599 315.07 209.555 315.027 209.519C314.984 209.483 314.934 209.456 314.88 209.44C314.826 209.424 314.769 209.419 314.713 209.426C310.48 209.858 306.307 210.75 302.267 212.086C302.214 212.105 302.165 212.134 302.124 212.171C302.082 212.209 302.048 212.255 302.024 212.305C302 212.356 301.986 212.411 301.984 212.467C301.981 212.523 301.989 212.579 302.008 212.632C302.045 212.713 302.106 212.78 302.182 212.825C302.258 212.87 302.347 212.891 302.435 212.884Z" fill="white"/>
<path d="M56.469 229.369L62.643 225.799C62.643 225.799 66.318 210.525 64.855 196.784C62.797 177.457 50.071 170.184 45.255 171.85C40.439 173.516 39.018 179.144 47.026 190.652C51.723 197.442 57.526 211.589 56.469 229.369Z" fill="#5CE1E6"/>
<g opacity="0.15">
<path d="M56.469 229.369L62.643 225.799C62.643 225.799 66.318 210.525 64.855 196.784C62.797 177.457 50.071 170.184 45.255 171.85C40.439 173.516 39.018 179.144 47.026 190.652C51.723 197.442 57.526 211.589 56.469 229.369Z" fill="black"/>
</g>
<path d="M59.024 221.9H58.968C58.9129 221.89 58.8603 221.869 58.8132 221.839C58.7661 221.808 58.7255 221.769 58.6936 221.723C58.6618 221.676 58.6393 221.624 58.6275 221.57C58.6158 221.515 58.6149 221.458 58.625 221.403C62.013 203.574 55.783 183.547 48.076 175.203C47.9961 175.122 47.9513 175.012 47.9513 174.898C47.9513 174.785 47.9961 174.675 48.076 174.594C48.1581 174.516 48.2671 174.472 48.3805 174.472C48.494 174.472 48.603 174.516 48.685 174.594C56.532 183.085 62.881 203.441 59.444 221.494C59.4404 221.603 59.3946 221.706 59.3162 221.782C59.2378 221.858 59.1331 221.9 59.024 221.9Z" fill="white"/>
<path d="M40.285 238.7C39.312 239.197 36.715 236.978 35.994 236.439C34.755 235.501 33.7786 234.259 33.159 232.834C32.4609 231.215 32.2872 229.418 32.662 227.696C32.8588 226.788 33.1185 225.894 33.439 225.022L34.328 222.432C34.678 221.599 34.8543 220.703 34.846 219.8C34.706 217.987 33.173 216.65 31.78 215.488C30.233 214.207 28.644 212.541 28.763 210.371C28.9554 208.703 29.6937 207.145 30.863 205.94C31.962 204.68 33.25 203.581 34.258 202.244C35.0415 201.318 35.4859 200.153 35.518 198.94C35.4526 198.191 35.2384 197.463 34.888 196.798C34.188 195.349 33.25 193.998 32.788 192.465C32.326 190.932 32.508 189.049 33.74 188.027C34.755 187.18 36.204 187.131 37.513 187.285C38.7355 187.498 39.8966 187.976 40.915 188.685C44.261 190.785 46.011 194.936 49.588 196.595C50.988 197.232 52.5 197.435 53.949 197.897C55.398 198.359 56.847 199.178 57.449 200.571C58.653 203.315 56 206.486 56.798 209.37C57.498 211.925 59.899 213.003 61.152 215.341C61.6621 216.367 61.829 217.531 61.628 218.659C61.4086 220.574 60.8442 222.433 59.962 224.147C58.9789 225.903 57.8895 227.598 56.7 229.222C56.7 229.222 40.432 238.637 40.285 238.7Z" fill="#5CE1E6"/>
<path d="M49.742 233.8C49.6859 233.796 49.6312 233.78 49.5811 233.754C49.5309 233.729 49.4863 233.693 49.4499 233.651C49.4135 233.608 49.3859 233.558 49.3688 233.504C49.3516 233.451 49.3453 233.394 49.35 233.338C50.911 216.384 43.855 197.225 38.311 191.478C38.2708 191.439 38.2389 191.392 38.217 191.34C38.1952 191.289 38.184 191.233 38.184 191.177C38.184 191.121 38.1952 191.065 38.217 191.014C38.2389 190.962 38.2708 190.915 38.311 190.876C38.3922 190.796 38.5016 190.751 38.6155 190.751C38.7295 190.751 38.8389 190.796 38.92 190.876C44.569 196.7 51.8 216.209 50.19 233.401C50.1828 233.513 50.1318 233.618 50.0479 233.692C49.9641 233.767 49.8542 233.806 49.742 233.8Z" fill="white"/>
<path d="M48.055 212.884C48.0136 212.894 47.9704 212.894 47.929 212.884C43.9604 211.565 39.8599 210.682 35.7 210.252C35.5873 210.24 35.4839 210.184 35.4119 210.096C35.34 210.008 35.3052 209.896 35.315 209.783C35.3184 209.727 35.3333 209.672 35.3587 209.622C35.3841 209.571 35.4196 209.527 35.4628 209.491C35.5061 209.455 35.5563 209.428 35.6103 209.412C35.6644 209.396 35.7211 209.391 35.777 209.398C40.0099 209.83 44.1832 210.722 48.223 212.058C48.2759 212.077 48.3245 212.106 48.3662 212.143C48.4078 212.181 48.4416 212.227 48.4657 212.277C48.4897 212.328 48.5036 212.383 48.5064 212.439C48.5092 212.495 48.5009 212.551 48.482 212.604C48.4495 212.69 48.3907 212.763 48.314 212.813C48.2373 212.864 48.1466 212.888 48.055 212.884Z" fill="white"/>
<path d="M129.563 71.995C137.368 71.694 140.434 72.177 143.227 75.572C146.265 79.254 156.681 113.078 156.681 113.078L184.464 122.703L174.132 129.269C174.132 129.269 157.136 125.769 152.117 124.803C148.169 124.04 146.874 123.998 144.886 118.951C142.135 111.951 130.389 83.181 130.389 83.181L129.563 71.995Z" fill="#FFA8A7"/>
<path d="M130.501 71.813C134.925 71.428 138.348 71.596 140.854 72.961C143.36 74.326 144.417 75.999 146.118 80.262C147.819 84.525 157.066 112.413 157.066 112.413L170.632 117.243L167.832 127.981C167.832 127.981 153.083 125.412 150.038 124.726C146.993 124.04 146.167 123.375 144.438 119.42C142.709 115.465 132.657 90.3 132.657 90.3L130.501 71.813Z" fill="#455A64"/>
<path d="M100.709 285.474C100.422 286.629 99.8061 289.912 93.7091 289.912C87.6121 289.912 84.1191 287.413 82.9221 284.312C81.7251 281.211 82.4111 278.922 82.5231 276.22C82.6351 273.518 80.6261 271.796 80.1781 270.34C79.5271 268.191 81.3191 265.23 81.3191 265.23L100.709 285.474Z" fill="#263238"/>
<path d="M157.85 268.66C158.074 268.821 158.207 270.718 157.57 271.593C157.122 272.188 153.041 275.156 147.994 274.54C144.292 274.176 140.732 272.927 137.613 270.9C134.659 269.164 132.629 268.912 129.626 268.919C126.623 268.926 124.572 268.366 124.327 267.61C123.886 266.287 123.858 265.44 124.495 265.461L157.85 268.66Z" fill="#263238"/>
<path d="M83.349 260.792C83.349 266.35 93.989 267.365 93.723 262.892L97.433 249.907L85.4 248.633L83.349 260.792Z" fill="#FFA8A7"/>
<path d="M100.653 282.695C100.261 281.638 98.9101 280.014 98.3501 279.034C95.396 273.975 93.9939 268.16 94.3181 262.311C94.3181 261.989 94.3811 261.359 94.0871 261.121C93.7931 260.883 93.4291 261.121 93.0651 261.212C92.4412 261.386 91.7944 261.464 91.1471 261.443C88.9981 261.387 86.7231 260.554 86.1841 260.554C85.7641 260.554 85.4841 261.814 85.3021 263.2C84.6021 262.619 84.4971 261.639 83.9021 260.995C83.5801 260.645 83.4191 260.617 83.4961 260.127C83.5451 259.805 83.6081 259.525 83.6501 259.203C83.1321 258.965 82.3901 260.988 81.7181 262.521C80.9481 264.292 80.0171 266.28 80.4861 268.254C80.8073 269.337 81.2414 270.383 81.7811 271.376C82.7053 273.099 83.2 275.02 83.2231 276.976C83.2231 277.823 83.0061 278.67 83.0131 279.517C83.0139 280.951 83.4275 282.355 84.2046 283.56C84.9816 284.765 86.0892 285.721 87.3951 286.314C90.8951 287.952 96.3901 288.526 99.9531 286.419C101.171 285.684 101.045 283.752 100.653 282.695Z" fill="#263238"/>
<path d="M126.616 256.27C129.626 258.426 132.405 258.692 135.933 256.921L137.718 238H124.705L126.616 256.27Z" fill="#FFA8A7"/>
<path d="M98.126 134.834C95.725 156.877 92.526 200.634 92.526 200.634C92.526 200.634 88.9 207.284 87.5 217.917C85.757 231.049 83.713 256.025 83.713 256.025C83.713 256.025 89.859 260.022 95.83 258.09C95.83 258.09 109.494 218.659 112.224 205.73C114.604 194.446 118.818 171.276 118.818 171.276L124.082 202.811C122.713 207.812 122.139 212.997 122.381 218.176C122.633 224.252 125.027 247.464 125.027 247.464C127.008 249.333 134.61 249.564 137.144 247.975C137.144 247.975 140.791 209.314 141.344 202.937C142.044 194.537 143.346 134.337 143.346 134.337L98.126 134.834Z" fill="#263238"/>
<path d="M118.839 171.276L121.779 157.717C121.779 157.717 128.352 156.219 133.049 152.453C133.049 152.453 131.327 156.779 124.124 160.09L121.1 172.788L123.683 200.655L118.839 171.276Z" fill="black"/>
<path d="M155.267 264.866C150.29 263.004 145.467 260.827 142.38 258.671C141.652 258.179 140.951 257.649 140.28 257.082C139.013 255.808 138.236 253.036 137.69 252.721C137.508 252.616 137.256 252.721 136.892 252.966C136.751 252.778 136.543 252.653 136.311 252.616L136.241 253.386C135.21 254.045 134.046 254.468 132.832 254.625C129.78 255.017 129.661 254.401 129.563 255.395C129.532 255.765 129.532 256.138 129.563 256.508C127.939 256.298 126.644 255.808 126.553 255.213L126.28 253.26C124.663 253.176 124.663 256.06 124.257 259.322C123.928 261.961 123.368 263.886 124.159 265.783C126.679 267.82 130.956 267.141 133.42 267.456C136.92 267.897 138.621 270.403 143.5 271.887C151.368 274.288 156.156 271.005 157.563 269.598C158.501 267.841 157.983 265.881 155.267 264.866Z" fill="#263238"/>
<path d="M116.851 72.464C110.698 73.402 105.805 73.647 101.5 74.347C98.2101 74.879 97.2161 80.514 96.9991 84.147C96.2991 95.998 99.0081 118.713 99.0081 118.713L97.3561 138.964C102.879 144.872 129.346 147.455 143.458 138.796C143.458 138.796 143.836 98.518 143.458 91.728C142.793 79.772 135.884 72.128 131.474 71.799C131.474 71.813 127.442 70.854 116.851 72.464Z" fill="#37474F"/>
<path d="M127.869 143.836C128.492 143.759 129.108 143.661 129.717 143.563C129.906 135.583 130.109 119.896 129.899 112.329C129.535 99.463 127.862 85.792 125.944 81.571C127.73 91.346 128.543 101.274 128.373 111.209C128.282 121.52 128.016 136.388 127.869 143.836Z" fill="#263238"/>
<path d="M71.3021 113.575C86.0021 85.575 89.6071 79.478 93.9121 76.391C96.2781 74.697 102.123 74.214 102.123 74.214C104.559 76.839 106.26 86.443 101.031 94.99C101.031 94.99 88.6761 111.79 85.3021 117.39C88.8441 124.082 94.1011 132.363 97.3561 136.36C98.0728 137.221 99.0874 137.781 100.198 137.928C103.054 138.201 104.356 139.104 106.771 140.028C108.654 140.728 109.942 140.525 109.928 141.036C109.928 141.694 109.291 143.038 107.436 143.339C106.314 143.459 105.18 143.419 104.069 143.22C105.666 144.673 107.48 145.868 109.445 146.762C114.142 148.981 115.577 152.25 108.654 154.336C105.889 155.176 100.828 155.036 93.9891 148.393C91.6721 146.146 87.3251 141.505 85.0361 138.873C79.0441 131.978 74.0881 125.86 70.9031 121.702C68.9221 119.077 69.9581 116.137 71.3021 113.575Z" fill="#FFA8A7"/>
<path d="M92.0501 128.499L96.0331 134.638C96.0331 134.638 89.4601 136.248 87.2551 141.316L81.5221 135.212C81.5221 135.212 81.8861 132.755 85.5891 130.312C89.2921 127.869 92.0501 128.499 92.0501 128.499Z" fill="#37474F"/>
<path d="M104.244 73.962C99.386 73.92 95.725 74.06 92.855 76.223C89.985 78.386 85.855 85.526 82.586 91.511C79.317 97.496 70.994 112.217 69.797 115.626C68.6 119.035 69.405 120.715 71.4 123.2C73.395 125.685 81.557 135.198 81.557 135.198C84.112 132.02 87.57 129.171 92.057 128.485L85.988 117.327L100.205 98.063C100.205 98.063 104.16 93.163 105.028 84.931C105.896 76.699 104.244 73.962 104.244 73.962Z" fill="#455A64"/>
<path d="M110.894 36.834C110.894 36.834 107.52 37.303 106.281 39.851C105.203 42.063 105.581 47.404 107.03 53.228C108.479 59.052 109.83 62.559 110.663 64.169C111.218 65.1757 112.141 65.9284 113.239 66.269L113.071 59.36L112.819 54.544C112.819 54.544 115.913 50.344 116.249 46.844C116.683 42.392 115.752 40.544 115.752 40.544L110.894 36.834Z" fill="#263238"/>
<path d="M110.103 37.681L105.343 35.504C105.635 34.8379 106.174 34.3114 106.847 34.0358C107.519 33.7601 108.273 33.757 108.948 34.027C109.267 34.1874 109.551 34.4102 109.783 34.6821C110.014 34.954 110.189 35.2696 110.297 35.6102C110.404 35.9508 110.443 36.3096 110.409 36.6652C110.376 37.0209 110.272 37.3663 110.103 37.681Z" fill="#263238"/>
<path d="M116.347 43.519C116.355 46.0706 117.12 48.5623 118.545 50.6793C119.969 52.7962 121.989 54.4432 124.35 55.4119C126.71 56.3807 129.305 56.6277 131.806 56.1218C134.307 55.6158 136.602 54.3797 138.4 52.5696C140.198 50.7595 141.42 48.4567 141.909 45.9526C142.399 43.4484 142.135 40.8553 141.151 38.5012C140.167 36.147 138.507 34.1376 136.38 32.7269C134.254 31.3162 131.758 30.5677 129.206 30.576C127.512 30.5815 125.835 30.9207 124.272 31.5741C122.709 32.2275 121.29 33.1824 120.096 34.3843C118.902 35.5862 117.956 37.0115 117.313 38.5788C116.67 40.1461 116.341 41.8248 116.347 43.519Z" fill="#263238"/>
<path d="M113.001 53.739C111.839 54.747 110.901 52.143 109.921 51.128C108.941 50.113 105.756 48.727 104.181 52.073C102.606 55.419 105.637 60.116 108.017 61.222C111.517 62.839 113.071 59.325 113.071 59.325L113.442 73.857C116.795 78.939 124.642 77 125.79 80.017C126.49 77.336 129.99 77.329 127.484 74.417V69.685C127.484 69.685 131.39 70.266 133.301 69.965C136.465 69.461 138.124 67.074 139.076 63.665C140.602 58.142 141.218 48.867 139.076 38.15C135.52 35.399 123.207 35.854 115.759 40.579C116.298 50.064 114.163 52.738 113.001 53.739Z" fill="#FFA8A7"/>
<path d="M140.84 30.534C140.8 30.4398 140.737 30.3575 140.656 30.2949C140.575 30.2324 140.479 30.1918 140.378 30.177C140.218 30.1951 140.066 30.2609 139.944 30.366C139.066 31.0788 138.13 31.7157 137.144 32.27C137.409 31.0018 137.425 29.6945 137.193 28.42C137.053 27.636 136.836 25.823 135.87 25.62C135.289 25.501 134.792 25.984 134.358 26.383C130.48 30.016 125.419 28.336 120.75 28.483C116.844 28.609 112.133 30.198 110.369 33.999C109.557 35.735 109.417 37.562 111.013 38.766C112.441 39.7243 114.074 40.3334 115.78 40.544C123.557 41.895 134.68 45.101 140.462 37.842C141.308 36.7608 141.737 35.4121 141.673 34.041C141.681 32.8299 141.413 31.6328 140.889 30.541L140.84 30.534Z" fill="#263238"/>
<path d="M127.456 69.692C127.456 69.692 120.365 68.292 117.887 66.976C116.429 66.2244 115.233 65.0479 114.457 63.602C114.835 65.049 115.499 66.4057 116.41 67.592C118.23 69.902 127.463 71.575 127.463 71.575L127.456 69.692Z" fill="#F28F8F"/>
<path d="M125.615 52.038C125.6 52.3111 125.505 52.5738 125.343 52.7937C125.18 53.0136 124.956 53.181 124.7 53.2753C124.443 53.3695 124.164 53.3865 123.898 53.3241C123.631 53.2617 123.389 53.1226 123.201 52.9241C123.013 52.7256 122.887 52.4763 122.839 52.207C122.791 51.9378 122.823 51.6603 122.931 51.409C123.038 51.1576 123.218 50.9433 123.446 50.7926C123.674 50.6419 123.941 50.5614 124.215 50.561C124.404 50.5655 124.59 50.6074 124.763 50.6842C124.936 50.761 125.092 50.8711 125.222 51.0084C125.352 51.1457 125.454 51.3073 125.521 51.484C125.589 51.6607 125.621 51.849 125.615 52.038Z" fill="#263238"/>
<path d="M124.096 46.683L121.1 48.37C120.882 47.954 120.832 47.4696 120.963 47.0182C121.093 46.5667 121.393 46.1832 121.8 45.948C121.999 45.845 122.216 45.7823 122.44 45.7635C122.663 45.7447 122.887 45.7702 123.101 45.8385C123.314 45.9068 123.512 46.0166 123.683 46.1615C123.853 46.3064 123.994 46.4836 124.096 46.683Z" fill="#263238"/>
<path d="M126.315 61.061L130.844 62.741C130.746 63.0454 130.588 63.3269 130.38 63.5689C130.171 63.8109 129.915 64.0083 129.629 64.1494C129.342 64.2905 129.029 64.3724 128.71 64.3902C128.391 64.408 128.072 64.3614 127.771 64.253C127.162 64.013 126.67 63.5462 126.399 62.9509C126.127 62.3555 126.097 61.678 126.315 61.061Z" fill="#F28F8F"/>
<path d="M138.124 48.174L135.324 46.074C135.454 45.8862 135.62 45.7267 135.813 45.6053C136.006 45.4839 136.222 45.403 136.447 45.3676C136.672 45.3323 136.902 45.3432 137.123 45.3996C137.344 45.4561 137.551 45.5569 137.732 45.696C138.099 45.983 138.343 46.3981 138.416 46.8579C138.488 47.3177 138.384 47.7879 138.124 48.174Z" fill="#263238"/>
<path d="M137.284 51.59C137.27 51.8635 137.177 52.127 137.015 52.3478C136.853 52.5686 136.63 52.7371 136.373 52.8325C136.116 52.9278 135.837 52.9457 135.571 52.884C135.304 52.8224 135.061 52.6838 134.872 52.4855C134.683 52.2872 134.557 52.0379 134.508 51.7684C134.459 51.4989 134.491 51.2211 134.599 50.9693C134.706 50.7175 134.886 50.5029 135.114 50.3519C135.343 50.201 135.61 50.1203 135.884 50.12C136.264 50.131 136.624 50.2916 136.887 50.5669C137.149 50.8422 137.292 51.2099 137.284 51.59Z" fill="#263238"/>
<path d="M130.186 50.274L130.676 58.8L135.128 57.267L130.186 50.274Z" fill="#F28F8F"/>
<path d="M164.745 98.7C159.691 99.183 150.108 97.524 144.571 93.975C137.305 89.327 131.474 77.595 129.248 73.444C129.248 73.444 127.393 73.332 127.848 74.004C128.303 74.676 134.316 89.047 143.948 95.13C148.848 98.217 157.892 99.841 164.528 99.379L164.745 98.7Z" fill="#5CE1E6"/>
<path opacity="0.4" d="M164.745 98.7C159.691 99.183 150.108 97.524 144.571 93.975C137.305 89.327 131.474 77.595 129.248 73.444C129.248 73.444 127.393 73.332 127.848 74.004C128.303 74.676 134.316 89.047 143.948 95.13C148.848 98.217 157.892 99.841 164.528 99.379L164.745 98.7Z" fill="black"/>
<path d="M164.745 98.7C164.745 98.7 146.545 101.675 135.128 97.713C124.348 93.954 115.927 83.748 113.428 73.85L111.3 74.2C111.3 74.2 116.578 92.029 132.104 98.168C146.44 103.845 163.604 99.442 164.738 99.33L164.745 98.7Z" fill="#5CE1E6"/>
<path opacity="0.3" d="M164.745 98.7C164.745 98.7 146.545 101.675 135.128 97.713C124.348 93.954 115.927 83.748 113.428 73.85L111.3 74.2C111.3 74.2 116.578 92.029 132.104 98.168C146.44 103.845 163.604 99.442 164.738 99.33L164.745 98.7Z" fill="black"/>
<path d="M166.6 98.203C166.6 98.203 165.256 98.406 164.717 98.539C163.968 98.728 163.66 99.61 164.43 99.533C165.2 99.456 165.669 99.351 166.355 99.239C167.041 99.127 167.664 98.035 166.6 98.203Z" fill="#5CE1E6"/>
<path d="M166.299 98.784C166.299 98.784 167.916 98.973 167.923 98.959C167.93 98.945 168.357 98.413 168.357 98.413L166.957 98.336L166.299 98.784Z" fill="#5CE1E6"/>
<path opacity="0.4" d="M166.299 98.784C166.299 98.784 167.916 98.973 167.923 98.959C167.93 98.945 168.357 98.413 168.357 98.413L166.957 98.336L166.299 98.784Z" fill="black"/>
<path d="M167.3 98.917L171.073 99.848L171.997 99.316C170.465 98.9185 168.877 98.7835 167.3 98.917Z" fill="#263238"/>
<path d="M167.286 98.917V99.134L170.8 100.002L171.059 99.848L167.286 98.917Z" fill="#37474F"/>
<path d="M182.637 95.466C182.637 95.466 182.637 95.396 182.637 95.368C182.637 95.34 182.637 95.368 182.637 95.333C182.618 95.2998 182.594 95.2692 182.567 95.242C182.544 95.2092 182.512 95.1828 182.476 95.165H182.441L181.041 94.367C180.956 94.3271 180.861 94.3112 180.767 94.321C180.674 94.3309 180.584 94.3661 180.509 94.423L167.797 101.752C167.577 101.898 167.393 102.094 167.262 102.324C167.131 102.553 167.055 102.811 167.041 103.075V130.9C167.03 130.994 167.045 131.09 167.084 131.176C167.124 131.263 167.186 131.337 167.265 131.39L168.665 132.209H168.742C168.797 132.223 168.855 132.223 168.91 132.209C169.002 132.196 169.09 132.165 169.169 132.118L181.881 124.782C182.102 124.639 182.285 124.446 182.417 124.219C182.548 123.991 182.624 123.735 182.637 123.473V95.655C182.645 95.5922 182.645 95.5288 182.637 95.466ZM175.994 100.555L173.138 102.2C173.273 101.767 173.559 101.397 173.943 101.157L176.799 99.512C176.663 99.9441 176.378 100.314 175.994 100.555Z" fill="#5CE1E6"/>
<path opacity="0.15" d="M182.637 95.466C182.637 95.466 182.637 95.396 182.637 95.368C182.637 95.34 182.637 95.368 182.637 95.333C182.618 95.2998 182.594 95.2692 182.567 95.242C182.544 95.2092 182.512 95.1828 182.476 95.165H182.441L181.041 94.367C180.956 94.3271 180.861 94.3112 180.767 94.321C180.674 94.3309 180.584 94.3661 180.509 94.423L167.797 101.752C167.577 101.898 167.393 102.094 167.262 102.324C167.131 102.553 167.055 102.811 167.041 103.075V130.9C167.03 130.994 167.045 131.09 167.084 131.176C167.124 131.263 167.186 131.337 167.265 131.39L168.665 132.209H168.742C168.797 132.223 168.855 132.223 168.91 132.209C169.002 132.196 169.09 132.165 169.169 132.118L181.881 124.782C182.102 124.639 182.285 124.446 182.417 124.219C182.548 123.991 182.624 123.735 182.637 123.473V95.655C182.645 95.5922 182.645 95.5288 182.637 95.466ZM175.994 100.555L173.138 102.2C173.273 101.767 173.559 101.397 173.943 101.157L176.799 99.512C176.663 99.9441 176.378 100.314 175.994 100.555Z" fill="black"/>
<path d="M168.7 132.188L167.3 131.369C167.221 131.316 167.159 131.242 167.119 131.155C167.08 131.069 167.065 130.973 167.076 130.879V103.054C167.084 102.789 167.161 102.531 167.3 102.305L168.7 103.124C168.561 103.35 168.484 103.608 168.476 103.873V131.684C168.461 131.781 168.474 131.879 168.514 131.969C168.554 132.058 168.618 132.134 168.7 132.188Z" fill="#5CE1E6"/>
<path opacity="0.3" d="M168.7 132.188L167.3 131.369C167.221 131.316 167.159 131.242 167.119 131.155C167.08 131.069 167.065 130.973 167.076 130.879V103.054C167.084 102.789 167.161 102.531 167.3 102.305L168.7 103.124C168.561 103.35 168.484 103.608 168.476 103.873V131.684C168.461 131.781 168.474 131.879 168.514 131.969C168.554 132.058 168.618 132.134 168.7 132.188Z" fill="black"/>
<path d="M182.637 95.466C182.637 95.466 182.637 95.396 182.637 95.368C182.637 95.34 182.637 95.368 182.637 95.333C182.618 95.2998 182.594 95.2692 182.567 95.242C182.543 95.2092 182.512 95.1828 182.476 95.165H182.441C182.358 95.1382 182.27 95.1312 182.183 95.1445C182.097 95.1579 182.015 95.1913 181.944 95.242L176.036 98.651L172.809 100.513L169.232 102.578C169.013 102.724 168.83 102.919 168.699 103.147C168.568 103.375 168.492 103.631 168.476 103.894V131.705C168.464 131.804 168.481 131.905 168.526 131.995C168.571 132.084 168.641 132.159 168.728 132.209H168.805C168.86 132.223 168.918 132.223 168.973 132.209C169.064 132.196 169.153 132.165 169.232 132.118L181.944 124.782C182.165 124.639 182.348 124.446 182.48 124.219C182.611 123.991 182.687 123.735 182.7 123.473V95.655C182.687 95.5895 182.666 95.526 182.637 95.466ZM173.943 101.171L176.799 99.526C176.66 99.9529 176.375 100.317 175.994 100.555L173.138 102.2C173.276 101.772 173.561 101.408 173.943 101.171Z" fill="#5CE1E6"/>
<path opacity="0.2" d="M178.066 99.757C178.043 100.055 177.951 100.345 177.797 100.601C177.643 100.857 177.43 101.074 177.177 101.234L173.943 103.103C173.453 103.383 173.054 103.187 173.054 102.655C173.055 102.504 173.084 102.355 173.138 102.214L175.994 100.555C176.375 100.317 176.66 99.9529 176.799 99.526L177.177 99.309C177.667 99.022 178.066 99.225 178.066 99.757Z" fill="black"/>
<path d="M171.024 106.4L180.068 101.178C180.229 101.087 180.362 101.178 180.362 101.346V112.861C180.357 112.963 180.327 113.063 180.276 113.152C180.225 113.24 180.154 113.316 180.068 113.372L171.024 118.587C170.863 118.678 170.73 118.587 170.73 118.412V106.904C170.737 106.803 170.767 106.705 170.818 106.618C170.869 106.53 170.94 106.456 171.024 106.4Z" fill="#FAFAFA"/>
<path d="M179.9 113.47L178.5 114.289L178.332 114.394C177.765 113.603 177.261 112.875 177.261 112.875C177.11 112.448 176.981 112.013 176.876 111.573C176.791 111.234 176.728 110.891 176.687 110.544C177.05 110.437 177.437 110.437 177.8 110.544C178.159 110.718 178.455 110.999 178.647 111.349C178.829 111.734 179.438 112.735 179.9 113.47Z" fill="#455A64"/>
<path d="M178.458 114.289L178.29 114.394L176.645 115.339L176.4 115.5L173.11 117.397L172.977 117.474V116.907L173.138 114.282C173.138 113.771 173.404 111.755 173.404 111.755L174.146 111.461L174.601 111.279L174.748 111.223H174.804L176.05 110.726L176.288 110.656C176.314 110.652 176.34 110.652 176.365 110.656C176.461 110.629 176.56 110.613 176.659 110.607C177.583 110.537 178.059 111.23 178.304 112.343C178.389 112.989 178.441 113.638 178.458 114.289Z" fill="#37474F"/>
<path d="M176.645 115.339L176.4 115.5C176.516 114.328 176.431 113.144 176.148 112C176.547 113.066 176.717 114.203 176.645 115.339Z" fill="#263238"/>
<path d="M173.677 114.954C173.677 114.954 173.369 116.158 173.103 117.383L172.97 117.46L171.108 118.531C171.437 115.192 171.661 113.414 172.193 112.518C172.475 112.115 172.901 111.837 173.383 111.741C173.803 112.056 173.978 113.554 173.677 114.954Z" fill="#455A64"/>
<path d="M174.258 105.931C174.001 106.027 173.792 106.22 173.677 106.47C173.559 107.113 173.592 107.774 173.775 108.402C173.876 108.92 174.028 109.427 174.23 109.914C174.263 109.976 174.309 110.03 174.367 110.072C174.424 110.113 174.49 110.14 174.559 110.152V109.151L174.524 108.451C174.737 108.083 174.884 107.68 174.958 107.261C175.009 106.959 174.987 106.65 174.895 106.358L174.258 105.931Z" fill="#263238"/>
<path d="M174.16 106.071L173.558 105.861C173.649 105.637 173.852 105.504 174.013 105.567C174.174 105.63 174.244 105.847 174.16 106.071Z" fill="#263238"/>
<path d="M174.951 106.778C174.925 106.996 174.95 107.217 175.023 107.424C175.096 107.631 175.216 107.818 175.373 107.972C175.529 108.125 175.719 108.24 175.928 108.309C176.136 108.378 176.358 108.397 176.575 108.367C177.05 108.24 177.468 107.957 177.763 107.563C178.057 107.17 178.211 106.688 178.199 106.197C178.224 105.979 178.198 105.758 178.124 105.551C178.05 105.345 177.93 105.158 177.772 105.005C177.615 104.852 177.424 104.738 177.215 104.67C177.007 104.602 176.785 104.584 176.568 104.615C176.094 104.741 175.677 105.023 175.384 105.415C175.09 105.808 174.938 106.288 174.951 106.778Z" fill="#263238"/>
<path d="M174.524 108.339C174.377 108.514 174.258 108.157 174.139 108.031C174.02 107.905 173.614 107.772 173.439 108.297C173.365 108.529 173.373 108.779 173.46 109.005C173.548 109.232 173.711 109.422 173.922 109.543C174.356 109.697 174.559 109.151 174.559 109.151L174.601 111.412C175.028 112.112 176.001 111.412 176.155 111.888C176.155 111.517 176.687 111.391 176.372 111.027V110.327C176.62 110.329 176.867 110.299 177.107 110.236C177.303 110.136 177.47 109.988 177.593 109.806C177.715 109.623 177.789 109.412 177.807 109.193C178.046 107.965 178.046 106.703 177.807 105.476C177.366 105.154 175.812 105.476 174.874 106.351C174.944 107.737 174.671 108.171 174.524 108.339Z" fill="#FFA8A7"/>
<path d="M178.031 104.349C178.031 104.349 178.031 104.3 177.975 104.307C177.919 104.314 177.94 104.307 177.919 104.342C177.81 104.466 177.691 104.581 177.562 104.685C177.593 104.497 177.593 104.306 177.562 104.118C177.562 104.013 177.52 103.754 177.394 103.747C177.268 103.74 177.261 103.824 177.205 103.894C176.715 104.503 176.078 104.37 175.49 104.496C175.204 104.549 174.936 104.672 174.708 104.852C174.479 105.033 174.299 105.266 174.181 105.532C174.083 105.805 174.062 106.071 174.265 106.232C174.447 106.339 174.656 106.392 174.867 106.386C175.847 106.386 177.254 106.624 177.975 105.441C178.08 105.266 178.134 105.064 178.129 104.86C178.13 104.694 178.097 104.53 178.031 104.377V104.349Z" fill="#263238"/>
<path d="M176.344 110.341C175.937 110.324 175.534 110.263 175.14 110.159C174.952 110.075 174.799 109.929 174.706 109.746C174.753 109.939 174.839 110.12 174.958 110.278C175.182 110.579 176.358 110.614 176.358 110.614L176.344 110.341Z" fill="#F28F8F"/>
<path d="M176.113 107.8C176.117 107.855 176.101 107.909 176.069 107.954C176.037 107.998 175.991 108.031 175.938 108.045C175.84 108.045 175.756 107.982 175.756 107.863C175.754 107.808 175.771 107.753 175.804 107.709C175.837 107.664 175.884 107.632 175.938 107.618C176.036 107.611 176.113 107.695 176.113 107.8Z" fill="#263238"/>
<path d="M175.924 107.1L175.539 107.408C175.513 107.346 175.508 107.277 175.524 107.211C175.541 107.145 175.578 107.087 175.63 107.044C175.651 107.023 175.677 107.008 175.705 107C175.733 106.991 175.763 106.989 175.792 106.995C175.821 107 175.848 107.013 175.871 107.031C175.894 107.049 175.912 107.073 175.924 107.1Z" fill="#263238"/>
<path d="M176.218 109.109L176.715 109.235C176.701 109.312 176.659 109.38 176.597 109.427C176.534 109.474 176.457 109.495 176.379 109.487C176.343 109.473 176.311 109.452 176.283 109.426C176.256 109.399 176.234 109.367 176.219 109.332C176.204 109.297 176.196 109.259 176.196 109.221C176.196 109.182 176.203 109.144 176.218 109.109Z" fill="#F28F8F"/>
<path d="M177.632 106.932L177.282 106.687C177.293 106.658 177.31 106.632 177.332 106.61C177.355 106.588 177.381 106.571 177.41 106.561C177.44 106.55 177.471 106.546 177.502 106.548C177.533 106.551 177.563 106.56 177.59 106.575C177.637 106.621 177.666 106.681 177.674 106.746C177.681 106.811 177.667 106.877 177.632 106.932Z" fill="#263238"/>
<path d="M177.527 107.499C177.531 107.554 177.515 107.608 177.483 107.653C177.451 107.697 177.405 107.73 177.352 107.744C177.254 107.744 177.17 107.681 177.17 107.562C177.168 107.507 177.185 107.452 177.218 107.408C177.251 107.363 177.298 107.331 177.352 107.317C177.45 107.303 177.527 107.38 177.527 107.499Z" fill="#263238"/>
<path d="M176.687 107.457L176.75 108.689L177.317 108.367L176.687 107.457Z" fill="#F28F8F"/>
<path d="M174.566 110.537C174.447 110.537 174.405 110.593 174.314 110.824L174.118 111.328C174.134 111.653 174.272 111.96 174.503 112.189C174.854 112.455 175.265 112.63 175.7 112.7C175.7 112.7 175.77 112.238 175.819 112.042C175.938 111.615 176.113 111.902 176.113 111.902C176.104 111.82 176.072 111.743 176.022 111.678C175.702 111.649 175.386 111.578 175.084 111.468C174.835 111.316 174.645 111.084 174.545 110.81L174.566 110.537Z" fill="#455A64"/>
<path d="M176.134 111.888C176.125 111.754 176.162 111.62 176.239 111.51C176.322 111.336 176.358 111.143 176.344 110.95C176.344 110.761 176.344 110.341 176.344 110.341C176.477 110.341 176.575 110.341 176.652 110.558C176.8 110.921 176.858 111.315 176.82 111.706C176.805 111.958 176.72 112.2 176.575 112.406C176.575 112.406 176.477 112.028 176.414 111.86C176.351 111.692 176.232 111.636 176.134 111.888Z" fill="#455A64"/>
<path d="M172.564 119.119L178.528 115.675C178.745 115.549 178.92 115.675 178.92 115.906V116.06C178.916 116.2 178.879 116.336 178.811 116.458C178.742 116.58 178.645 116.684 178.528 116.76L172.564 120.204C172.347 120.33 172.172 120.204 172.172 119.973V119.819C172.176 119.679 172.213 119.542 172.281 119.421C172.35 119.299 172.447 119.195 172.564 119.119Z" fill="#455A64"/>
<path d="M171.108 123.144L173.208 121.912C173.299 121.863 173.369 121.912 173.369 121.996C173.365 122.051 173.348 122.104 173.32 122.151C173.293 122.199 173.254 122.239 173.208 122.269L171.108 123.501C171.017 123.55 170.947 123.501 170.947 123.417C170.951 123.362 170.968 123.309 170.996 123.262C171.023 123.214 171.062 123.174 171.108 123.144Z" fill="#455A64"/>
<path d="M174.79 121.023L179.984 118.02C180.075 117.971 180.145 118.02 180.145 118.104C180.142 118.159 180.126 118.213 180.098 118.26C180.07 118.308 180.031 118.348 179.984 118.377L174.79 121.373C174.699 121.429 174.629 121.373 174.629 121.289C174.632 121.235 174.648 121.182 174.676 121.136C174.704 121.089 174.743 121.051 174.79 121.023Z" fill="#455A64"/>
<path d="M171.108 123.851L173.208 122.619C173.299 122.57 173.369 122.619 173.369 122.703C173.366 122.758 173.35 122.812 173.322 122.859C173.294 122.907 173.255 122.947 173.208 122.976L171.108 124.208C171.017 124.257 170.947 124.208 170.947 124.124C170.951 124.069 170.968 124.016 170.996 123.969C171.023 123.921 171.062 123.881 171.108 123.851Z" fill="#455A64"/>
<path d="M174.79 121.73L179.984 118.734C180.075 118.678 180.145 118.734 180.145 118.811C180.142 118.866 180.126 118.92 180.098 118.967C180.07 119.015 180.031 119.055 179.984 119.084L174.79 122.08C174.699 122.136 174.629 122.08 174.629 122.003C174.632 121.948 174.648 121.894 174.676 121.847C174.704 121.799 174.743 121.759 174.79 121.73Z" fill="#455A64"/>
<path d="M171.108 124.558L173.208 123.333C173.299 123.277 173.369 123.333 173.369 123.41C173.366 123.465 173.35 123.519 173.322 123.566C173.294 123.614 173.255 123.654 173.208 123.683L171.108 124.915C171.017 124.964 170.947 124.915 170.947 124.831C170.951 124.776 170.968 124.723 170.996 124.676C171.023 124.628 171.062 124.588 171.108 124.558Z" fill="#455A64"/>
<path d="M174.79 122.437L179.984 119.441C180.075 119.385 180.145 119.441 180.145 119.525C180.142 119.579 180.126 119.632 180.098 119.678C180.07 119.725 180.031 119.763 179.984 119.791L174.79 122.794C174.699 122.843 174.629 122.794 174.629 122.71C174.632 122.655 174.648 122.601 174.676 122.554C174.704 122.506 174.743 122.466 174.79 122.437Z" fill="#455A64"/>
<path d="M171.108 125.3L173.208 124.068C173.299 124.012 173.369 124.068 173.369 124.152C173.365 124.206 173.348 124.258 173.32 124.304C173.292 124.351 173.254 124.389 173.208 124.418L171.108 125.65C171.017 125.706 170.947 125.65 170.947 125.566C170.95 125.512 170.966 125.459 170.994 125.413C171.022 125.366 171.061 125.328 171.108 125.3Z" fill="#455A64"/>
<path d="M174.79 123.144L179.984 120.148C180.075 120.092 180.145 120.148 180.145 120.232C180.141 120.287 180.124 120.34 180.096 120.387C180.069 120.435 180.03 120.475 179.984 120.505L174.79 123.501C174.699 123.55 174.629 123.501 174.629 123.417C174.633 123.362 174.65 123.309 174.678 123.262C174.706 123.214 174.744 123.174 174.79 123.144Z" fill="#455A64"/>
<path d="M171.864 126.532V128.744L172.508 128.38V126.161L171.864 126.532Z" fill="#455A64"/>
<path d="M173.782 125.419V127.638L174.426 127.267V125.055L173.782 125.419Z" fill="#455A64"/>
<path d="M176.344 123.942V126.161L176.988 125.79V123.571L176.344 123.942Z" fill="#455A64"/>
<path d="M178.584 122.654V124.866L179.228 124.495V122.283L178.584 122.654Z" fill="#455A64"/>
<path d="M172.823 125.979V128.191L173.145 128.009V125.79L172.823 125.979Z" fill="#455A64"/>
<path d="M177.303 123.389V125.608L177.625 125.419V123.207L177.303 123.389Z" fill="#455A64"/>
<path d="M175.385 124.495V126.714L175.707 126.532V124.313L175.385 124.495Z" fill="#455A64"/>
<path d="M173.467 125.608V127.82L173.628 127.729V125.517L173.467 125.608Z" fill="#455A64"/>
<path d="M175.924 124.187V126.406L176.085 126.308V124.096L175.924 124.187Z" fill="#455A64"/>
<path d="M174.909 124.775V126.994L175.063 126.896V124.684L174.909 124.775Z" fill="#455A64"/>
<path d="M178.108 122.927V125.146L178.262 125.055V122.836L178.108 122.927Z" fill="#455A64"/>
<path d="M174.587 124.957V127.176L174.748 127.085V124.866L174.587 124.957Z" fill="#455A64"/>
<path d="M177.786 123.116V125.328L177.947 125.237V123.018L177.786 123.116Z" fill="#455A64"/>
<path opacity="0.3" d="M172.949 120.582L178.143 117.586C178.234 117.537 178.304 117.586 178.304 117.67C178.3 117.725 178.283 117.778 178.256 117.825C178.228 117.873 178.189 117.913 178.143 117.943L172.949 120.939C172.858 120.988 172.788 120.939 172.788 120.855C172.792 120.8 172.809 120.747 172.837 120.7C172.865 120.652 172.903 120.612 172.949 120.582Z" fill="black"/>
<path d="M187.306 121.912C187.306 120.876 187.803 120.162 187.306 118.888C186.809 117.614 184.681 115.388 183.666 113.491C182.651 111.594 181.923 111.104 181.209 111.979C180.6 112.728 182.084 116.424 182.532 117.481C181.741 117.061 180.971 116.886 180.341 117.285C178.941 118.181 181.111 120.232 181.111 120.232C181.111 120.232 179.438 120.589 179.34 121.751C179.242 122.913 181.44 125.055 181.44 125.055L172.858 130.011C174.325 130.414 175.824 130.693 177.338 130.844C178.105 130.899 178.874 130.899 179.641 130.844C182.364 130.585 183.435 130.081 184.989 128.562C186.072 127.374 186.941 126.008 187.558 124.523C187.719 124.098 187.78 123.641 187.736 123.188C187.692 122.735 187.545 122.299 187.306 121.912Z" fill="#FFA8A7"/>
<path d="M182.378 126L181.426 125.069L172.844 130.025C174.313 130.429 175.815 130.707 177.331 130.858L182.378 126Z" fill="#F28F8F"/>
<path d="M174.419 101.129C174.713 100.961 174.622 100.002 174.139 99.729C173.061 99.106 169.596 98.707 167.279 98.714L169.26 97.573C171.57 97.573 175.035 97.965 176.113 98.588C176.596 98.868 176.687 99.827 176.393 99.988L174.419 101.129Z" fill="#455A64"/>
<path d="M174.419 101.129C174.342 101.171 174.258 101.164 174.132 101.08L174.314 100.975C174.344 100.892 174.359 100.804 174.356 100.716V100.639C174.354 100.504 174.323 100.371 174.263 100.25C174.204 100.129 174.118 100.023 174.013 99.939C172.963 99.337 169.526 98.952 167.377 98.952H167.3V98.7C169.61 98.7 173.075 99.099 174.146 99.715C174.622 100.002 174.713 100.968 174.419 101.129Z" fill="#37474F"/>
<path opacity="0.35" d="M170.359 97.93L170.219 98.007L169.463 98.413C169.341 98.4728 169.207 98.5016 169.071 98.497H168.77H168.7C168.581 98.497 168.574 98.434 168.7 98.378L169.484 97.923C169.604 97.8628 169.735 97.8294 169.869 97.825H170.366C170.45 97.832 170.457 97.881 170.359 97.93Z" fill="black"/>
<path opacity="0.35" d="M170.219 98L169.463 98.406C169.341 98.4658 169.207 98.4946 169.071 98.49H168.77L169.47 98.098C169.588 98.0345 169.721 98.0009 169.855 98H170.219Z" fill="black"/>
<path d="M168.854 98.434L168.938 98.385C168.938 98.266 168.56 98.189 167.867 98.287C167.317 98.3507 166.785 98.5194 166.299 98.784C166.513 98.4634 166.807 98.205 167.153 98.035C167.79 97.685 169.449 97.734 169.554 98.035C169.554 98.07 169.596 98.133 169.554 98.175C169.512 98.217 169.316 98.336 169.19 98.406C169.081 98.4398 168.967 98.4494 168.854 98.434Z" fill="#5CE1E6"/>
<path opacity="0.3" d="M168.854 98.434L168.938 98.385C168.938 98.266 168.56 98.189 167.867 98.287C167.317 98.3507 166.785 98.5194 166.299 98.784C166.513 98.4634 166.807 98.205 167.153 98.035C167.79 97.685 169.449 97.734 169.554 98.035C169.554 98.07 169.596 98.133 169.554 98.175C169.512 98.217 169.316 98.336 169.19 98.406C169.081 98.4398 168.967 98.4494 168.854 98.434Z" fill="black"/>
<path d="M113.302 68.53C112.406 68.593 112.035 68.705 111.307 70.168C110.474 71.834 109.753 73.36 109.753 73.36C109.94 75.8132 111.021 78.1124 112.791 79.821C115.801 82.873 122.479 84.945 122.479 84.945C122.479 84.945 123.032 81.858 123.459 80.591C124.39 77.791 125.79 80.017 125.79 80.017C125.699 79.4088 125.434 78.8399 125.027 78.379C124.432 77.847 120.617 77.518 117.565 75.579C115.66 74.2855 114.195 72.4419 113.365 70.294L113.302 68.53Z" fill="#455A64"/>
<path d="M125.79 80.017C125.745 79.5761 125.794 79.1307 125.932 78.7098C126.071 78.2889 126.297 77.9019 126.595 77.574C127.463 76.307 127.449 75.145 127.463 73.857C127.477 72.569 127.463 69.657 127.463 69.657C128.499 69.79 129.262 69.965 129.906 71.575C130.55 73.185 131.74 76.475 131.201 79.681C130.662 82.887 129.29 83.958 129.29 83.958C129.29 83.958 128.492 81.249 127.995 79.996C127.498 78.743 126.539 78.442 125.79 80.017Z" fill="#455A64"/>
<path d="M274.197 36.4C274.197 36.246 274.106 36.085 274.078 35.959C274.041 35.9155 274.019 35.8616 274.015 35.805C273.926 35.6581 273.82 35.5218 273.7 35.399C273.597 35.253 273.457 35.137 273.294 35.063L273.14 34.965C272.083 34.342 267.54 31.731 266.98 31.416C266.6 31.2401 266.179 31.1707 265.762 31.2151C265.345 31.2595 264.949 31.416 264.614 31.668L208.124 64.253C207.144 64.8963 206.329 65.7613 205.745 66.7779C205.162 67.7946 204.825 68.9343 204.764 70.105V193.676C204.714 194.096 204.781 194.522 204.956 194.907C205.131 195.292 205.409 195.621 205.758 195.86C206.353 196.196 211.456 199.157 212.058 199.5C212.121 199.5 212.156 199.563 212.219 199.563C212.326 199.62 212.442 199.661 212.562 199.682C212.805 199.745 213.061 199.745 213.304 199.682C213.713 199.631 214.106 199.495 214.459 199.283L270.9 166.663C271.882 166.03 272.7 165.172 273.285 164.161C273.87 163.149 274.207 162.013 274.267 160.846V37.226C274.278 36.9488 274.254 36.6714 274.197 36.4Z" fill="#5CE1E6"/>
<path opacity="0.15" d="M274.197 36.4C274.197 36.246 274.106 36.085 274.078 35.959C274.041 35.9155 274.019 35.8616 274.015 35.805C273.926 35.6581 273.82 35.5218 273.7 35.399C273.597 35.253 273.457 35.137 273.294 35.063L273.14 34.965C272.083 34.342 267.54 31.731 266.98 31.416C266.6 31.2401 266.179 31.1707 265.762 31.2151C265.345 31.2595 264.949 31.416 264.614 31.668L208.124 64.253C207.144 64.8963 206.329 65.7613 205.745 66.7779C205.162 67.7946 204.825 68.9343 204.764 70.105V193.676C204.714 194.096 204.781 194.522 204.956 194.907C205.131 195.292 205.409 195.621 205.758 195.86C206.353 196.196 211.456 199.157 212.058 199.5C212.121 199.5 212.156 199.563 212.219 199.563C212.326 199.62 212.442 199.661 212.562 199.682C212.805 199.745 213.061 199.745 213.304 199.682C213.713 199.631 214.106 199.495 214.459 199.283L270.9 166.663C271.882 166.03 272.7 165.172 273.285 164.161C273.87 163.149 274.207 162.013 274.267 160.846V37.226C274.278 36.9488 274.254 36.6714 274.197 36.4Z" fill="black"/>
<path d="M212.205 199.563C212.142 199.563 212.107 199.563 212.044 199.5C211.456 199.157 206.353 196.196 205.744 195.86C205.395 195.621 205.118 195.292 204.942 194.907C204.767 194.522 204.701 194.096 204.75 193.676V70.091C204.785 68.9126 205.127 67.7638 205.744 66.759L212.044 70.399C211.427 71.4038 211.085 72.5526 211.05 73.731V197.316C211.085 198.471 211.519 199.248 212.205 199.563Z" fill="#5CE1E6"/>
<path opacity="0.3" d="M212.205 199.563C212.142 199.563 212.107 199.563 212.044 199.5C211.456 199.157 206.353 196.196 205.744 195.86C205.395 195.621 205.118 195.292 204.942 194.907C204.767 194.522 204.701 194.096 204.75 193.676V70.091C204.785 68.9126 205.127 67.7638 205.744 66.759L212.044 70.399C211.427 71.4038 211.085 72.5526 211.05 73.731V197.316C211.085 198.471 211.519 199.248 212.205 199.563Z" fill="black"/>
<path d="M274.197 36.4C274.197 36.246 274.106 36.085 274.078 35.959C274.041 35.9155 274.019 35.8616 274.015 35.805C273.926 35.6581 273.82 35.5218 273.7 35.399C273.597 35.253 273.457 35.137 273.294 35.063L273.14 34.965C272.77 34.8468 272.377 34.8163 271.994 34.8758C271.61 34.9353 271.245 35.0833 270.928 35.308L244.664 50.449L230.349 58.73L214.445 67.9C213.469 68.5478 212.658 69.4138 212.074 70.4295C211.491 71.4452 211.152 72.5827 211.085 73.752V197.316C211.085 198.471 211.519 199.248 212.205 199.563C212.312 199.62 212.428 199.661 212.548 199.682C212.791 199.745 213.047 199.745 213.29 199.682C213.699 199.631 214.092 199.495 214.445 199.283L270.9 166.663C271.882 166.03 272.7 165.172 273.285 164.161C273.87 163.149 274.207 162.013 274.267 160.846V37.226C274.278 36.9488 274.254 36.6714 274.197 36.4Z" fill="#5CE1E6"/>
<path d="M221.249 75.397L264.124 50.645C264.894 50.204 265.524 50.561 265.524 51.45V106.05C265.497 106.532 265.356 107.001 265.112 107.419C264.869 107.836 264.53 108.19 264.124 108.451L221.249 133.161C220.479 133.609 219.849 133.245 219.849 132.363V77.833C219.873 77.3452 220.012 76.87 220.256 76.4465C220.499 76.023 220.84 75.6633 221.249 75.397Z" fill="#FAFAFA"/>
<path d="M263.2 108.948L256.459 112.833L255.654 113.302C252.966 109.571 250.6 106.127 250.6 106.127C249.874 104.096 249.258 102.028 248.752 99.932C248.348 98.3366 248.051 96.716 247.863 95.081C249.576 94.5571 251.407 94.5571 253.12 95.081C254.562 95.62 256.074 97.097 257.131 98.875C258.188 100.653 261.1 105.462 263.2 108.948Z" fill="#455A64"/>
<path d="M256.487 112.833L255.682 113.302L247.891 117.789L246.701 118.489L231.105 127.47L230.468 127.834L230.398 125.146L231.182 112.7C231.182 110.299 232.428 100.744 232.428 100.744L235.928 99.344L238.063 98.49L238.763 98.217L239.043 98.105L244.951 95.739C245.336 95.606 245.707 95.494 246.071 95.396C246.19 95.354 246.323 95.333 246.435 95.305C246.894 95.1893 247.363 95.1144 247.835 95.081C252.224 94.738 254.562 98.035 255.647 103.299C256.101 106.459 256.382 109.642 256.487 112.833Z" fill="#37474F"/>
<path d="M247.891 117.789L246.701 118.489C247.093 112.84 246.848 105.728 245.497 102.004C248.003 108.136 248.066 114.52 247.891 117.789Z" fill="#263238"/>
<path d="M233.835 115.962C233.835 115.962 232.365 121.681 231.105 127.47L230.468 127.834L221.641 132.923C223.23 117.103 224.28 108.661 226.779 104.433C228.137 102.116 230.223 101.535 232.428 100.744C234.423 102.235 235.249 109.347 233.835 115.962Z" fill="#455A64"/>
<path d="M236.6 73.192C235.993 73.4169 235.437 73.7598 234.964 74.2007C234.491 74.6416 234.109 75.1719 233.842 75.761C233.198 77.399 233.429 81.039 234.29 84.903C234.759 87.3589 235.484 89.759 236.453 92.064C236.599 92.3653 236.815 92.6274 237.083 92.8283C237.351 93.0293 237.663 93.1632 237.993 93.219L237.895 88.473L237.748 85.183C237.748 85.183 239.589 81.942 239.792 79.527C240.058 76.405 239.498 75.25 239.498 75.25L236.6 73.192Z" fill="#263238"/>
<path d="M236.124 73.857L233.282 72.863C233.688 71.813 234.647 71.183 235.431 71.463C236.215 71.743 236.53 72.8 236.124 73.857Z" fill="#263238"/>
<path d="M239.855 77.231C239.855 82.131 243.355 85.498 247.555 84.735C251.755 83.972 255.255 79.366 255.255 74.452C255.255 69.538 251.755 66.185 247.555 66.948C243.355 67.711 239.841 72.317 239.855 77.231Z" fill="#263238"/>
<path d="M237.853 84.63C237.153 85.449 236.6 83.748 236.012 83.153C235.424 82.558 233.527 81.935 232.589 84.413C231.651 86.891 233.457 89.803 234.878 90.314C236.978 91.063 237.895 88.473 237.895 88.473L238.119 99.183C240.135 102.361 244.685 99.218 245.49 101.43C245.623 99.673 247.989 99.078 246.498 97.37V94.108C247.677 94.1122 248.853 93.9712 249.998 93.688C251.895 92.988 252.882 91.182 253.449 88.711C254.359 84.749 254.73 78.288 253.449 71.12C251.349 69.601 243.971 71.211 239.526 75.25C239.82 81.746 238.546 83.811 237.853 84.63Z" fill="#FFA8A7"/>
<path d="M254.478 65.702C254.459 65.644 254.423 65.5934 254.374 65.557C254.325 65.5206 254.266 65.5004 254.205 65.499C254.1 65.5311 254.007 65.5946 253.939 65.681C253.419 66.2558 252.858 66.7916 252.259 67.284C252.402 66.4031 252.402 65.5049 252.259 64.624C252.175 64.099 252.042 62.874 251.461 62.846C251.118 62.846 250.817 63.21 250.565 63.546C248.248 66.458 245.224 65.828 242.438 66.423C240.107 66.92 237.286 68.523 236.236 71.323C235.753 72.604 235.669 73.878 236.621 74.543C237.484 75.0453 238.473 75.2883 239.47 75.243C244.111 75.355 250.775 76.391 254.212 70.784C254.707 69.9541 254.95 68.9984 254.912 68.033C254.929 67.2384 254.772 66.4498 254.45 65.723L254.478 65.702Z" fill="#263238"/>
<path d="M246.484 94.108C246.484 94.108 242.284 93.884 240.772 93.24C239.879 92.8478 239.153 92.1539 238.721 91.28C238.936 92.1906 239.333 93.048 239.89 93.8C240.975 95.2 246.491 95.382 246.491 95.382L246.484 94.108Z" fill="#F28F8F"/>
<path d="M245.385 82.124C245.397 82.3849 245.32 82.6421 245.168 82.8542C245.015 83.0663 244.796 83.2209 244.545 83.293C244.076 83.377 243.698 82.985 243.691 82.425C243.681 82.1643 243.76 81.908 243.913 81.6972C244.067 81.4865 244.287 81.3335 244.538 81.263C245 81.2 245.385 81.564 245.385 82.124Z" fill="#263238"/>
<path d="M244.482 78.596L242.669 80.08C242.544 79.7827 242.517 79.4531 242.593 79.1395C242.668 78.8259 242.842 78.5447 243.089 78.337C243.188 78.2388 243.309 78.166 243.442 78.1249C243.575 78.0838 243.716 78.0756 243.853 78.1011C243.99 78.1266 244.119 78.1849 244.229 78.2711C244.338 78.3573 244.425 78.4688 244.482 78.596Z" fill="#263238"/>
<path d="M245.854 88.263L248.227 88.865C248.16 89.23 247.958 89.5562 247.661 89.7783C247.363 90.0003 246.993 90.1016 246.624 90.062C246.286 89.9221 246.016 89.6556 245.872 89.3194C245.729 88.9832 245.722 88.604 245.854 88.263Z" fill="#F28F8F"/>
<path d="M252.588 77.952L250.929 76.776C250.982 76.6462 251.062 76.5289 251.163 76.4317C251.264 76.3344 251.384 76.2593 251.516 76.2112C251.648 76.1632 251.788 76.1431 251.928 76.1523C252.068 76.1616 252.205 76.2 252.329 76.265C252.564 76.4703 252.719 76.7524 252.767 77.0611C252.814 77.3699 252.751 77.6855 252.588 77.952Z" fill="#263238"/>
<path d="M252.084 80.64C252.093 80.9013 252.014 81.158 251.861 81.3697C251.708 81.5814 251.488 81.736 251.237 81.809C250.775 81.886 250.39 81.501 250.39 80.941C250.381 80.6797 250.46 80.4229 250.613 80.2112C250.766 79.9995 250.986 79.845 251.237 79.772C251.699 79.688 252.084 80.08 252.084 80.64Z" fill="#263238"/>
<path d="M248.115 80.43L248.409 86.261L251.069 84.735L248.115 80.43Z" fill="#F28F8F"/>
<path d="M238 95.018C237.447 95.06 237.251 95.305 236.817 96.418C236.32 97.671 235.886 98.812 235.886 98.812C235.963 100.352 236.612 101.807 237.706 102.893C239.498 104.636 243.481 105.245 243.481 105.245C243.481 105.245 243.817 103.054 244.069 102.123C244.629 100.1 245.469 101.423 245.469 101.423C245.424 101.038 245.266 100.675 245.014 100.38C244.657 100.086 242.382 100.324 240.562 99.372C239.383 98.6561 238.489 97.5524 238.035 96.25L238 95.018Z" fill="#455A64"/>
<path d="M245.49 101.43C245.444 100.797 245.614 100.168 245.973 99.645C246.376 98.8166 246.552 97.8965 246.484 96.978C246.484 96.089 246.484 94.108 246.484 94.108C247.1 94.073 247.555 94.108 247.94 95.137C248.643 96.8558 248.91 98.7219 248.717 100.569C248.633 101.712 248.238 102.811 247.576 103.747C247.576 103.747 247.1 101.976 246.806 101.171C246.512 100.366 245.938 100.254 245.49 101.43Z" fill="#455A64"/>
<path d="M211.085 91.511L204.785 87.857L189.63 103.894C189.522 104.008 189.44 104.145 189.392 104.295C189.344 104.445 189.33 104.604 189.352 104.76C189.373 104.916 189.43 105.065 189.517 105.196C189.604 105.327 189.719 105.437 189.854 105.518C190.029 105.623 195.643 108.85 196.154 109.172C196.347 109.283 196.57 109.329 196.791 109.305L211.071 107.905L211.085 91.511Z" fill="#5CE1E6"/>
<path opacity="0.15" d="M211.085 91.511L204.785 87.857L189.63 103.894C189.522 104.008 189.44 104.145 189.392 104.295C189.344 104.445 189.33 104.604 189.352 104.76C189.373 104.916 189.43 105.065 189.517 105.196C189.604 105.327 189.719 105.437 189.854 105.518C190.029 105.623 195.643 108.85 196.154 109.172C196.347 109.283 196.57 109.329 196.791 109.305L211.071 107.905L211.085 91.511Z" fill="black"/>
<path d="M211.085 91.511L195.944 107.548C195.796 107.703 195.7 107.899 195.667 108.111C195.635 108.322 195.669 108.538 195.763 108.73C195.858 108.922 196.009 109.08 196.197 109.183C196.385 109.286 196.599 109.328 196.812 109.305L211.092 107.905L211.085 91.511Z" fill="#5CE1E6"/>
<path d="M228.557 135.009L256.816 118.692C257.845 118.104 258.671 118.58 258.671 119.77V120.505C258.637 121.15 258.451 121.778 258.129 122.337C257.807 122.897 257.357 123.372 256.816 123.725L228.557 140.042C227.535 140.63 226.702 140.154 226.702 138.964V138.229C226.736 137.584 226.922 136.956 227.244 136.397C227.566 135.837 228.016 135.362 228.557 135.009Z" fill="#FFDE59"/>
<path d="M221.662 154.791L231.742 148.953C232.169 148.708 232.512 148.883 232.512 149.345C232.494 149.605 232.415 149.857 232.281 150.081C232.147 150.305 231.963 150.494 231.742 150.633L221.662 156.471C221.235 156.716 220.885 156.541 220.885 156.079C220.904 155.818 220.985 155.566 221.12 155.342C221.255 155.119 221.441 154.93 221.662 154.791Z" fill="#FFDE59"/>
<path d="M239.099 144.725L263.711 130.515C264.138 130.27 264.488 130.445 264.488 130.907C264.467 131.167 264.387 131.419 264.252 131.643C264.117 131.866 263.932 132.055 263.711 132.195L239.099 146.398C238.672 146.65 238.329 146.475 238.329 146.006C238.347 145.747 238.426 145.496 238.56 145.273C238.694 145.05 238.879 144.863 239.099 144.725Z" fill="#FFDE59"/>
<path d="M221.662 158.144L231.742 152.313C232.169 152.061 232.512 152.236 232.512 152.705C232.493 152.965 232.413 153.217 232.28 153.44C232.146 153.664 231.962 153.853 231.742 153.993L221.662 159.824C221.235 160.076 220.885 159.901 220.885 159.432C220.906 159.172 220.986 158.92 221.121 158.696C221.256 158.473 221.441 158.284 221.662 158.144Z" fill="#FFDE59"/>
<path d="M239.099 148.078L263.711 133.868C264.138 133.623 264.488 133.798 264.488 134.26C264.469 134.521 264.389 134.773 264.254 134.997C264.119 135.221 263.933 135.41 263.711 135.548L239.099 149.758C238.672 150.003 238.329 149.828 238.329 149.366C238.347 149.106 238.426 148.854 238.56 148.63C238.694 148.406 238.878 148.217 239.099 148.078Z" fill="#FFDE59"/>
<path d="M221.662 161.504L231.742 155.666C232.169 155.421 232.512 155.596 232.512 156.058C232.494 156.318 232.415 156.57 232.281 156.794C232.147 157.018 231.963 157.207 231.742 157.346L221.662 163.184C221.235 163.429 220.885 163.254 220.885 162.792C220.904 162.531 220.985 162.279 221.12 162.055C221.255 161.832 221.441 161.643 221.662 161.504Z" fill="#FFDE59"/>
<path d="M239.099 151.438L263.711 137.2C264.138 136.955 264.488 137.13 264.488 137.592C264.467 137.852 264.387 138.104 264.252 138.328C264.117 138.551 263.932 138.74 263.711 138.88L239.099 153.083C238.672 153.335 238.329 153.16 238.329 152.691C238.351 152.437 238.433 152.191 238.566 151.974C238.7 151.756 238.882 151.573 239.099 151.438Z" fill="#FFDE59"/>
<path d="M221.662 164.864L231.742 159.026C232.169 158.781 232.512 158.956 232.512 159.418C232.493 159.678 232.413 159.93 232.28 160.153C232.146 160.377 231.962 160.566 231.742 160.706L221.662 166.537C221.235 166.789 220.885 166.614 220.885 166.145C220.905 165.886 220.986 165.634 221.121 165.412C221.256 165.189 221.441 165.002 221.662 164.864Z" fill="#FFDE59"/>
<path d="M239.099 154.791L263.711 140.581C264.138 140.336 264.488 140.511 264.488 140.973C264.469 141.234 264.389 141.486 264.254 141.71C264.119 141.934 263.933 142.123 263.711 142.261L239.099 156.471C238.672 156.716 238.329 156.541 238.329 156.079C238.347 155.819 238.426 155.567 238.56 155.343C238.694 155.119 238.878 154.93 239.099 154.791Z" fill="#FFDE59"/>
<path d="M225.246 170.835V181.342L228.277 179.592V169.085L225.246 170.835Z" fill="#FFDE59"/>
<path d="M234.346 165.578V176.092L237.377 174.335V163.828L234.346 165.578Z" fill="#FFDE59"/>
<path d="M246.484 158.571V169.085L249.515 167.328V156.821L246.484 158.571Z" fill="#FFDE59"/>
<path d="M257.096 152.446V162.953L260.127 161.203V150.696L257.096 152.446Z" fill="#FFDE59"/>
<path d="M229.796 168.21V178.717L231.315 177.842V167.335L229.796 168.21Z" fill="#FFDE59"/>
<path d="M251.027 155.946V166.453L252.546 165.578V155.071L251.027 155.946Z" fill="#FFDE59"/>
<path d="M241.927 161.203V171.71L243.446 170.835V160.328L241.927 161.203Z" fill="#FFDE59"/>
<path d="M232.827 166.46V176.967L233.583 176.526V166.019L232.827 166.46Z" fill="#FFDE59"/>
<path d="M244.482 159.733V170.24L245.238 169.799V159.292L244.482 159.733Z" fill="#FFDE59"/>
<path d="M239.652 162.519V173.026L240.415 172.585V162.078L239.652 162.519Z" fill="#FFDE59"/>
<path d="M254.821 153.762V164.269L255.577 163.828V153.321L254.821 153.762Z" fill="#FFDE59"/>
<path d="M238.14 163.387V173.887L238.896 173.453V162.946L238.14 163.387Z" fill="#FFDE59"/>
<path d="M253.302 154.637V165.151L254.065 164.71V154.203L253.302 154.637Z" fill="#FFDE59"/>
<path opacity="0.3" d="M230.384 141.953L254.996 127.743C255.423 127.498 255.766 127.673 255.766 128.135C255.748 128.395 255.669 128.647 255.535 128.871C255.401 129.095 255.216 129.284 254.996 129.423L230.384 143.633C229.957 143.878 229.607 143.703 229.607 143.241C229.626 142.98 229.706 142.728 229.841 142.504C229.976 142.28 230.162 142.091 230.384 141.953Z" fill="black"/>
</svg>
